<?xml version="1.0" encoding="utf-8"?>
<!-- Generator: Adobe Illustrator 22.0.1, SVG Export Plug-In . SVG Version: 6.00 Build 0)  -->
<svg version="1.1" id="Layer_1" xmlns="http://www.w3.org/2000/svg" xmlns:xlink="http://www.w3.org/1999/xlink" x="0px" y="0px"
	 viewBox="0 0 30 30" style="enable-background:new 0 0 30 30;" xml:space="preserve">
<path d="M25.6,10c-0.6-1.4-1.4-2.7-2.5-3.7c-1-1-2.3-1.9-3.7-2.5c-2.8-1.2-6.1-1.2-9,0C9.1,4.4,7.9,5.2,6.9,6.3
	c-1,1-1.9,2.3-2.5,3.7c-0.6,1.4-0.9,2.9-0.9,4.5c0,1.6,0.3,3,0.9,4.5c0.6,1.4,1.4,2.7,2.5,3.7c1,1,2.3,1.9,3.7,2.5
	C12,25.6,13.5,26,15,26c1.6,0,3-0.3,4.5-0.9c1.4-0.6,2.7-1.4,3.7-2.5c1-1,1.9-2.3,2.5-3.7c0.6-1.4,0.9-2.9,0.9-4.5
	C26.5,12.9,26.2,11.4,25.6,10z M24.8,14.4c0,1.3-0.3,2.6-0.8,3.8c-0.5,1.2-1.2,2.3-2.1,3.1c-0.9,0.9-1.9,1.6-3.1,2.1
	c-2.4,1-5.2,1-7.6,0c-1.2-0.5-2.3-1.2-3.1-2.1c-0.9-0.9-1.6-1.9-2.1-3.1c-0.5-1.2-0.8-2.5-0.8-3.8c0-1.3,0.3-2.6,0.8-3.8
	c0.5-1.2,1.2-2.3,2.1-3.1c0.9-0.9,1.9-1.6,3.1-2.1c1.2-0.5,2.5-0.8,3.8-0.8c1.8,0,3.4,0.4,4.9,1.3c1.5,0.9,2.7,2.1,3.6,3.6
	C24.4,11,24.8,12.7,24.8,14.4z"/>
</svg>
