<?xml version="1.0" encoding="utf-8"?>
<!-- Generator: Adobe Illustrator 22.0.1, SVG Export Plug-In . SVG Version: 6.00 Build 0)  -->
<svg version="1.1" id="Layer_1" xmlns="http://www.w3.org/2000/svg" xmlns:xlink="http://www.w3.org/1999/xlink" x="0px" y="0px"
	 viewBox="0 0 30 30" style="enable-background:new 0 0 30 30;" xml:space="preserve">
<g>
	<path d="M11.1,24.7c-0.3-0.1-0.5-0.1-0.8,0.1c-0.3,0.2-0.4,0.4-0.5,0.7l-0.3,1.2c0,0.1,0,0.1,0,0.2c0,0.2,0.1,0.4,0.2,0.6
		c0.1,0.2,0.3,0.3,0.6,0.4c0.1,0,0.2,0,0.3,0c0.2,0,0.4,0,0.5-0.1c0.2-0.1,0.5-0.3,0.6-0.7l0.3-1c0.1-0.3,0-0.6-0.1-0.8
		C11.6,24.9,11.4,24.8,11.1,24.7z"/>
	<path d="M23.2,7.1C23.3,7.2,23.3,7.2,23.2,7.1c0.4,0,0.6-0.1,0.8-0.3l1.4-1.4c0.2-0.2,0.3-0.5,0.3-0.8c0-0.3-0.1-0.6-0.3-0.8
		c-0.4-0.4-1.1-0.5-1.5,0l-1.4,1.4c-0.2,0.2-0.3,0.5-0.3,0.8c0,0.3,0.1,0.6,0.3,0.8C22.7,7,22.9,7.1,23.2,7.1z"/>
	<path d="M12.4,19.9c-0.3-0.1-0.6-0.1-0.8,0.1c-0.3,0.2-0.4,0.4-0.5,0.7l-0.3,1.2c0,0.1,0,0.1,0,0.1c0,0.2,0.1,0.4,0.2,0.6
		c0.1,0.2,0.4,0.3,0.6,0.4c0.1,0,0.2,0.1,0.3,0.1c0.2,0,0.3,0,0.5-0.1c0.3-0.1,0.4-0.4,0.5-0.7l0.3-1c0.1-0.3,0.1-0.6-0.1-0.8
		C12.9,20.1,12.7,19.9,12.4,19.9z"/>
	<path d="M10.6,6c0.2,0.2,0.4,0.3,0.7,0.3c0,0,0.1,0,0.1,0c0.2,0,0.5-0.1,0.7-0.3c0.3-0.2,0.4-0.5,0.4-0.8c0-0.3-0.1-0.6-0.3-0.8
		l-0.6-0.7c-0.4-0.4-1.1-0.4-1.6,0C9.8,4,9.6,4.3,9.6,4.6c0,0.3,0.1,0.6,0.3,0.8L10.6,6z"/>
	<path d="M17.8,4.9c0.3,0,0.6-0.1,0.8-0.3c0.2-0.2,0.3-0.5,0.3-0.8V1.7c0-0.3-0.1-0.6-0.3-0.8c-0.4-0.5-1.2-0.4-1.6,0
		c-0.2,0.2-0.3,0.5-0.3,0.8v2.1c0,0.3,0.1,0.6,0.3,0.8S17.5,4.9,17.8,4.9z"/>
	<path d="M28.4,10.8c-0.2-0.2-0.5-0.3-0.8-0.3h-2.1c-0.3,0-0.6,0.1-0.8,0.3c-0.2,0.2-0.3,0.5-0.3,0.8c0,0.3,0.1,0.6,0.3,0.8
		c0.2,0.2,0.5,0.3,0.8,0.3h2.1c0.3,0,0.6-0.1,0.8-0.3c0.2-0.2,0.3-0.5,0.3-0.8C28.8,11.3,28.6,11,28.4,10.8z"/>
	<path d="M15.3,21.6c-0.3-0.1-0.6-0.1-0.8,0.1c-0.3,0.1-0.4,0.4-0.5,0.7l-0.3,1l0,0.1c0,0,0,0.1,0,0.1c0,0,0,0.1,0,0.1
		c0,0.2,0,0.4,0.1,0.5c0.2,0.3,0.4,0.5,0.7,0.5c0.1,0,0.3,0.1,0.4,0.1c0.1,0,0.3,0,0.4-0.1c0.3-0.1,0.5-0.4,0.6-0.8l0.2-1
		c0.1-0.3,0.1-0.6-0.1-0.8C15.8,21.8,15.6,21.7,15.3,21.6z"/>
	<path d="M24.9,17.2c-0.5-0.5-1.2-0.4-1.6,0C23.1,17.4,23,17.7,23,18c0,0.3,0.1,0.6,0.3,0.8l0.7,0.6c0.2,0.2,0.4,0.3,0.7,0.3l0.1,0
		c0.3,0,0.6-0.1,0.7-0.3c0.2-0.2,0.3-0.5,0.3-0.8c0-0.3-0.1-0.6-0.3-0.8L24.9,17.2z"/>
	<path d="M17.4,18.1c0.1-0.3,0-0.6-0.1-0.9c-0.2-0.3-0.4-0.4-0.7-0.5c-0.3-0.1-0.6-0.1-0.8,0.1c-0.3,0.1-0.4,0.4-0.5,0.7L15,18.6
		c0,0.1,0,0.2,0,0.2l0,0c0,0.2,0.1,0.4,0.2,0.6c0.1,0.2,0.4,0.4,0.6,0.4c0.1,0,0.2,0,0.3,0c0.2,0,0.3,0,0.5-0.1
		c0.3-0.1,0.5-0.4,0.6-0.7L17.4,18.1z"/>
	<path d="M23.3,11.6c0-1-0.2-1.9-0.7-2.8c-0.5-0.8-1.2-1.5-2-2c-1.5-0.9-3.3-1-5-0.3c-0.6,0.3-1.2,0.7-1.7,1.2
		c-0.8-0.4-1.7-0.6-2.7-0.6c-1.5,0-2.8,0.5-3.9,1.4c-1.1,0.9-1.8,2-2.2,3.4c-1.1,0.3-2,0.9-2.7,1.8c-0.7,1-1.1,2.1-1.1,3.3
		c0,1.2,0.4,2.2,1.1,3.2c0.6,0.8,1.5,1.4,2.4,1.8l-0.6,1.5c-0.1,0.2,0,0.3,0,0.4c0,0.1,0.1,0.2,0.3,0.2h1.8L4.9,28h0.8l4.4-5.7
		c0.1-0.1,0.1-0.3,0.1-0.4c0-0.1-0.1-0.2-0.4-0.2H8l2.3-4.3c0.1-0.2,0.1-0.3,0-0.4c0-0.1-0.2-0.2-0.4-0.2H7c-0.2,0-0.3,0.1-0.5,0.3
		l-1,2.7c-0.6-0.2-1.1-0.5-1.4-1c-0.4-0.5-0.6-1.2-0.6-1.9c0-0.8,0.3-1.5,0.8-2c0.5-0.6,1.2-0.9,1.9-1l0.5,0c0.2,0,0.4-0.1,0.5-0.4
		l0.1-0.6c0.1-1,0.5-1.9,1.3-2.6c0.8-0.7,1.7-1,2.7-1c1,0,1.9,0.3,2.7,1c0.8,0.7,1.2,1.5,1.3,2.6l0.1,0.6c0,0.3,0.2,0.4,0.4,0.4h1.6
		c0.8,0,1.5,0.3,2.1,0.9c0.6,0.6,0.9,1.3,0.9,2.1c0,0.8-0.3,1.5-0.8,2.1c-0.6,0.6-1.2,0.9-2,1c-0.3,0-0.5,0.2-0.5,0.4v1.3
		c0,0.3,0.2,0.4,0.5,0.4c0.9,0,1.8-0.3,2.5-0.8c0.8-0.5,1.4-1.1,1.8-1.9c0.4-0.8,0.7-1.6,0.7-2.6c0-0.7-0.1-1.4-0.4-2
		C22.9,13.9,23.3,12.8,23.3,11.6z M21.1,11.6c0,0.5-0.1,1-0.3,1.4c-1-0.8-2.1-1.3-3.4-1.3h-0.1c-0.3-1.1-0.8-2-1.5-2.7
		c0.6-0.5,1.3-0.7,2.1-0.7c0.9,0,1.7,0.3,2.3,1C20.7,9.9,21.1,10.7,21.1,11.6z"/>
</g>
</svg>
