<?xml version="1.0" encoding="utf-8"?>
<!-- Generator: Adobe Illustrator 22.0.1, SVG Export Plug-In . SVG Version: 6.00 Build 0)  -->
<svg version="1.1" id="Layer_1" xmlns="http://www.w3.org/2000/svg" xmlns:xlink="http://www.w3.org/1999/xlink" x="0px" y="0px"
	 viewBox="0 0 30 30" style="enable-background:new 0 0 30 30;" xml:space="preserve">
<g>
	<path d="M17.8,4.9c0.3,0,0.6-0.1,0.8-0.3c0.2-0.2,0.3-0.5,0.3-0.8V1.7c0-0.3-0.1-0.6-0.3-0.8c-0.4-0.4-1.1-0.4-1.6,0
		c-0.2,0.2-0.3,0.5-0.3,0.8v2.1c0,0.3,0.1,0.6,0.3,0.8C17.2,4.8,17.5,4.9,17.8,4.9z"/>
	<path d="M13.7,17.3c-0.1-0.3-0.4-0.4-0.6-0.5c-0.3-0.1-0.6-0.1-0.8,0.1c-0.3,0.1-0.4,0.4-0.5,0.7l-2.3,8.6c0,0.1,0,0.2,0,0.3
		c0,0.2,0.1,0.4,0.2,0.6c0.1,0.2,0.3,0.3,0.6,0.4c0.1,0,0.2,0,0.3,0c0.2,0,0.4-0.1,0.6-0.2c0.2-0.1,0.4-0.3,0.5-0.6l2.3-8.6
		C13.9,17.9,13.8,17.6,13.7,17.3z"/>
	<path d="M10.7,6.1c0.2,0.2,0.5,0.3,0.8,0.3c0.3,0,0.6-0.1,0.7-0.3c0.2-0.2,0.4-0.5,0.4-0.8c0-0.3-0.1-0.6-0.3-0.8l-0.6-0.7
		c-0.4-0.4-1.2-0.4-1.6,0C9.8,4.1,9.7,4.3,9.7,4.6c0,0.3,0.1,0.6,0.3,0.8L10.7,6.1z"/>
	<path d="M23.3,7.2c0.3,0,0.6-0.1,0.8-0.3l1.4-1.4c0.2-0.2,0.3-0.5,0.3-0.8c0-0.3-0.1-0.6-0.3-0.8c-0.4-0.4-1.1-0.4-1.5,0l-1.4,1.4
		c-0.2,0.2-0.3,0.5-0.3,0.8c0,0.3,0.1,0.6,0.3,0.8C22.7,7.1,22.9,7.2,23.3,7.2z"/>
	<path d="M23.3,11.6c0-1-0.2-1.9-0.7-2.7c-0.5-0.8-1.2-1.5-2-2c-0.9-0.5-1.8-0.7-2.7-0.7c-1.5,0-2.9,0.6-3.9,1.7
		c-0.8-0.4-1.7-0.6-2.6-0.6c-1.5,0-2.8,0.5-3.9,1.4c-1.1,0.9-1.8,2-2.2,3.3c-1.1,0.3-2,0.9-2.7,1.8c-0.8,1-1.1,2.1-1.1,3.2
		c0,1.1,0.3,2.2,1,3.1c0.6,0.8,1.4,1.4,2.4,1.8l-0.6,1.5c0,0.2,0,0.3,0,0.4c0.1,0.1,0.1,0.1,0.3,0.1h1.8l-1.2,4h0.8l4.2-5.5
		c0.1-0.1,0.1-0.3,0.1-0.4c0-0.1-0.1-0.2-0.4-0.2H8l2.3-4.3c0.1-0.2,0-0.3,0-0.4c0-0.1-0.2-0.2-0.4-0.2H7c-0.2,0-0.3,0.1-0.5,0.3
		l-1,2.7c-0.6-0.2-1-0.5-1.4-1c-0.4-0.5-0.6-1.2-0.6-1.9c0-0.8,0.3-1.4,0.8-2c0.5-0.6,1.2-0.9,1.9-1l0.5-0.1c0.3,0,0.4-0.2,0.4-0.4
		l0.1-0.5c0.1-1,0.5-1.9,1.3-2.6c0.8-0.7,1.7-1,2.7-1c1,0,1.9,0.3,2.7,1c0.8,0.7,1.2,1.5,1.3,2.6l0.1,0.6c0,0.3,0.2,0.4,0.4,0.4h1.6
		c0.8,0,1.5,0.3,2.1,0.9c0.6,0.6,0.9,1.3,0.9,2.1c0,0.8-0.3,1.5-0.8,2c-0.5,0.6-1.2,0.9-2,1c-0.3,0-0.5,0.2-0.5,0.4v1.4
		c0,0.3,0.2,0.4,0.5,0.4c0,0,0,0,0,0c1.4,0,2.6-0.6,3.6-1.6c1-1,1.5-2.2,1.5-3.6c0-0.7-0.1-1.4-0.4-2C22.9,14,23.3,12.8,23.3,11.6z
		 M21.1,11.6c0,0.5-0.1,1-0.3,1.4c-1-0.9-2.1-1.3-3.4-1.3h-0.1c-0.3-1-0.8-1.9-1.5-2.7c0.6-0.5,1.3-0.7,2.1-0.7
		c0.9,0,1.7,0.3,2.3,0.9C20.7,9.9,21.1,10.7,21.1,11.6z"/>
	<path d="M17.1,17.3c-0.1-0.2-0.4-0.4-0.7-0.5c-0.3-0.1-0.6-0.1-0.8,0.1c-0.3,0.1-0.4,0.4-0.5,0.7l-1.5,5.6l0.2,0c0,0,0,0,0,0
		l-0.3,0.1c0,0.1,0,0.1,0,0.2c0,0.2,0,0.3,0.1,0.5c0.2,0.2,0.4,0.4,0.6,0.5c0.1,0,0.2,0.1,0.4,0.1c0.2,0,0.3,0,0.4-0.1
		c0.2-0.1,0.4-0.3,0.6-0.7l1.5-5.6C17.2,17.9,17.2,17.6,17.1,17.3z"/>
	<path d="M24.9,17.2c-0.4-0.5-1.1-0.5-1.5,0c-0.2,0.2-0.3,0.5-0.3,0.8c0,0.3,0.1,0.5,0.3,0.8l0.6,0.6c0.2,0.2,0.4,0.3,0.7,0.3l0.1,0
		c0.3,0,0.5-0.1,0.7-0.3c0.2-0.2,0.3-0.5,0.3-0.8c0-0.3-0.1-0.6-0.3-0.8L24.9,17.2z"/>
	<path d="M28.4,10.8c-0.2-0.2-0.5-0.3-0.8-0.3h-2c-0.3,0-0.6,0.1-0.8,0.3c-0.2,0.2-0.3,0.5-0.3,0.8c0,0.3,0.1,0.6,0.3,0.8
		c0.2,0.2,0.5,0.3,0.8,0.3h2c0.3,0,0.6-0.1,0.8-0.3c0.2-0.2,0.3-0.5,0.3-0.8C28.7,11.3,28.6,11,28.4,10.8z"/>
</g>
</svg>
