<?xml version="1.0" encoding="utf-8"?>
<!-- Generator: Adobe Illustrator 22.0.1, SVG Export Plug-In . SVG Version: 6.00 Build 0)  -->
<svg version="1.1" id="Layer_1" xmlns="http://www.w3.org/2000/svg" xmlns:xlink="http://www.w3.org/1999/xlink" x="0px" y="0px"
	 viewBox="0 0 30 30" style="enable-background:new 0 0 30 30;" xml:space="preserve">
<g>
	<path d="M16.8,17.3c-0.1-0.2-0.4-0.4-0.7-0.5l-0.3,0c-0.2,0-0.4,0.1-0.6,0.2c-0.2,0.1-0.4,0.3-0.4,0.6l-2.3,8.8c0,0.1,0,0.2,0,0.3
		c0,0.5,0.3,0.9,0.8,1l0.1,0c0,0,0,0,0.1,0c0.1,0,0.1,0,0.2,0c0.2,0,0.4-0.1,0.6-0.2c0.2-0.1,0.4-0.4,0.4-0.6l2.2-8.7
		C17,17.8,16.9,17.6,16.8,17.3z"/>
	<path d="M24.9,14.3c-0.5-0.8-1.1-1.4-1.9-1.9c-0.8-0.5-1.7-0.7-2.6-0.7h-0.1c-0.4-1.3-1.1-2.4-2.1-3.2c-1.1-0.9-2.4-1.3-3.8-1.3
		c-1.5,0-2.8,0.5-3.9,1.4c-1.1,0.9-1.8,2-2.2,3.3c-1.1,0.3-2,0.9-2.7,1.8c-0.8,0.9-1.1,2-1.1,3.3c0,1.2,0.4,2.2,1,3.1
		c0.6,0.8,1.5,1.4,2.5,1.8l-0.6,1.5c0,0.2,0,0.3,0.1,0.4c0.1,0.1,0.2,0.1,0.3,0.1h1.8l-1,4.3h0.7l4-5.8c0.1-0.1,0.1-0.3,0-0.4
		c0-0.1-0.1-0.2-0.4-0.2h-1.8l2.3-4.3c0.1-0.2,0-0.3,0-0.4c0-0.1-0.2-0.2-0.4-0.2h-2.9c-0.2,0-0.3,0.1-0.5,0.3l-1,2.7
		c-0.6-0.2-1-0.5-1.4-1c-0.4-0.5-0.6-1.2-0.6-1.9c0-0.8,0.3-1.4,0.8-2c0.5-0.6,1.2-0.9,2-1l0.5-0.1c0.3,0,0.5-0.2,0.4-0.4l0.1-0.5
		c0.1-1,0.5-1.9,1.3-2.6c0.8-0.7,1.7-1,2.7-1c1,0,1.9,0.3,2.7,1c0.8,0.7,1.2,1.5,1.3,2.6l0.1,0.5c0,0.3,0.2,0.4,0.4,0.4h1.6
		c0.8,0,1.5,0.3,2.1,0.9c0.6,0.6,0.9,1.3,0.9,2.1c0,0.8-0.3,1.5-0.8,2c-0.5,0.6-1.2,0.9-2,1c-0.3,0-0.5,0.2-0.5,0.4v1.4
		c0,0.3,0.2,0.4,0.5,0.4c0,0,0,0,0,0c1.4,0,2.6-0.6,3.6-1.6c1-1,1.5-2.2,1.5-3.6C25.6,15.9,25.4,15.1,24.9,14.3z"/>
	<path d="M20.3,17.8c0-0.2-0.1-0.4-0.2-0.6c-0.1-0.2-0.3-0.3-0.6-0.4l-0.3,0c-0.2,0-0.4,0.1-0.6,0.2c-0.2,0.1-0.3,0.3-0.4,0.6
		l-1.5,5.7l0,0.1c0,0,0,0,0,0c0,0.1,0,0.2,0,0.2c0,0.2,0,0.4,0.1,0.5c0.2,0.3,0.4,0.5,0.7,0.5c0.1,0,0.3,0.1,0.4,0.1
		c0.1,0,0.3,0,0.4-0.1c0.3-0.1,0.5-0.4,0.6-0.7l1.5-5.7C20.3,18,20.3,17.9,20.3,17.8z"/>
</g>
</svg>
