<?xml version="1.0" encoding="utf-8"?>
<!-- Generator: Adobe Illustrator 22.0.1, SVG Export Plug-In . SVG Version: 6.00 Build 0)  -->
<svg version="1.1" id="Layer_1" xmlns="http://www.w3.org/2000/svg" xmlns:xlink="http://www.w3.org/1999/xlink" x="0px" y="0px"
	 viewBox="0 0 30 30" style="enable-background:new 0 0 30 30;" xml:space="preserve">
<g>
	<path d="M11,24.7c-0.3-0.1-0.6-0.1-0.9,0.1c-0.3,0.2-0.4,0.4-0.5,0.7l-0.3,1c0,0.1-0.1,0.2-0.1,0.3c0,0.2,0.1,0.4,0.2,0.6
		c0.1,0.2,0.4,0.4,0.6,0.5l0.1,0c0.1,0,0.1,0,0.2,0c0.2,0,0.3,0,0.5-0.1c0.3-0.1,0.5-0.4,0.6-0.7l0.3-1c0.1-0.3,0.1-0.6-0.1-0.9
		C11.4,25,11.2,24.8,11,24.7z"/>
	<path d="M10.2,19.1l0.2-1c0.1-0.3,0.1-0.6-0.1-0.8c-0.1-0.3-0.4-0.5-0.7-0.5c-0.3-0.1-0.6,0-0.9,0.1c-0.3,0.2-0.4,0.4-0.5,0.7
		l-0.3,1l0,0.1c0,0,0,0.1,0,0.1c0,0,0,0.1,0,0.1c0,0.3,0.1,0.8,0.8,1c0.1,0,0.2,0.1,0.4,0.1c0.2,0,0.3,0,0.5-0.1
		C9.9,19.7,10.1,19.5,10.2,19.1z"/>
	<path d="M8.4,21.5c-0.3-0.1-0.6,0-0.8,0.1C7.3,21.8,7.1,22,7,22.3l-0.3,1l0,0.1c0,0,0,0.1,0,0.2c0,0.2,0.1,0.5,0.2,0.7
		c0.1,0.2,0.3,0.4,0.6,0.5c0.1,0,0.2,0.1,0.3,0.1c0.2,0,0.3,0,0.5-0.1c0.3-0.1,0.5-0.4,0.6-0.7l0.2-1c0.1-0.3,0.1-0.6-0.1-0.8
		C8.9,21.8,8.7,21.6,8.4,21.5z"/>
	<path d="M23.3,7.2c0.2,0,0.5-0.1,0.8-0.3l1.4-1.4c0.2-0.2,0.3-0.5,0.3-0.8c0-0.3-0.1-0.6-0.3-0.8c-0.4-0.4-1.1-0.4-1.6,0l-1.5,1.4
		c-0.2,0.2-0.3,0.5-0.3,0.8c0,0.3,0.1,0.6,0.3,0.8C22.8,7.1,23,7.2,23.3,7.2z"/>
	<path d="M10.7,6.1c0.1,0.1,0.4,0.3,0.7,0.3c0.2,0,0.5-0.1,0.8-0.3c0.2-0.2,0.3-0.5,0.3-0.8c0-0.3-0.1-0.5-0.3-0.8l-0.6-0.7
		c-0.4-0.4-1.1-0.4-1.5,0C9.8,4.1,9.7,4.4,9.7,4.7C9.7,5,9.8,5.3,10,5.5L10.7,6.1z"/>
	<path d="M17.8,4.9c0.3,0,0.6-0.1,0.8-0.3c0.2-0.2,0.3-0.5,0.3-0.8v-2c0-0.3-0.1-0.6-0.3-0.8c-0.4-0.4-1.2-0.4-1.6,0
		c-0.2,0.2-0.3,0.5-0.3,0.8v2c0,0.3,0.1,0.6,0.3,0.8C17.2,4.8,17.4,4.9,17.8,4.9z"/>
	<path d="M15,21.6c-0.3-0.1-0.6-0.1-0.8,0.1c-0.3,0.1-0.4,0.4-0.5,0.7l-0.3,1.3l0,0.1c0,0.5,0.3,0.8,0.8,1l0.4,0.1
		c0.2,0,0.4-0.1,0.6-0.2c0.2-0.1,0.3-0.4,0.4-0.6l0.3-1c0.1-0.3,0-0.6-0.1-0.8C15.6,21.8,15.3,21.7,15,21.6z M13.6,23.7
		C13.6,23.7,13.6,23.7,13.6,23.7L13.6,23.7L13.6,23.7z"/>
	<path d="M24.8,17.2c-0.4-0.4-1.1-0.4-1.5,0C23.1,17.4,23,17.7,23,18c0,0.3,0.1,0.6,0.3,0.8l0.6,0.6c0.3,0.3,0.5,0.4,0.8,0.4
		c0.2,0,0.5-0.1,0.8-0.4c0.2-0.2,0.3-0.5,0.3-0.8c0-0.3-0.1-0.6-0.3-0.8L24.8,17.2z"/>
	<path d="M12.3,19.9c-0.3-0.1-0.6,0-0.9,0.1c-0.3,0.2-0.4,0.4-0.5,0.7l-0.3,1c0,0.1,0,0.2,0,0.3c0,0.2,0.1,0.4,0.2,0.6
		c0.1,0.2,0.3,0.4,0.6,0.5c0.1,0,0.2,0.1,0.3,0.1c0.2,0,0.3,0,0.5-0.1c0.3-0.1,0.4-0.4,0.5-0.7l0.2-1c0.1-0.3,0.1-0.6-0.1-0.8
		C12.8,20.2,12.6,20,12.3,19.9z"/>
	<path d="M28.4,10.8c-0.2-0.2-0.5-0.3-0.8-0.3h-2c-0.3,0-0.6,0.1-0.8,0.3c-0.2,0.2-0.3,0.5-0.3,0.8c0,0.3,0.1,0.6,0.3,0.8
		c0.2,0.2,0.5,0.3,0.8,0.3h2c0.3,0,0.6-0.1,0.8-0.3c0.2-0.2,0.3-0.5,0.3-0.8C28.7,11.3,28.6,11,28.4,10.8z"/>
	<path d="M17.1,17.3c-0.1-0.3-0.4-0.4-0.7-0.5c-0.3-0.1-0.6-0.1-0.8,0.1c-0.3,0.1-0.4,0.4-0.5,0.7l-0.3,1.1l0,0.1c0,0,0,0.1,0,0.1
		c0,0,0,0.1,0,0.1c0,0.2,0.1,0.4,0.2,0.6c0.1,0.2,0.3,0.4,0.6,0.4l0.3,0c0.3,0,0.5-0.1,0.7-0.2c0.2-0.2,0.3-0.4,0.4-0.6l0.3-1
		C17.3,17.9,17.2,17.6,17.1,17.3z"/>
	<path d="M23.2,11.6c0-0.7-0.1-1.4-0.4-2.1c-0.3-0.7-0.7-1.2-1.2-1.7c-0.5-0.5-1.1-0.9-1.7-1.2c-0.7-0.3-1.4-0.4-2.1-0.4
		c-1.5,0-2.8,0.5-3.9,1.6c-0.8-0.4-1.7-0.6-2.7-0.6c-1.5,0-2.8,0.5-3.9,1.4c-1.1,0.9-1.8,2-2.1,3.3c-1.1,0.3-2,0.9-2.8,1.8
		c-0.7,0.9-1.1,2-1.1,3.2c0,1.4,0.5,2.6,1.5,3.6c1,1,2.2,1.5,3.6,1.6c0.2,0,0.4-0.2,0.4-0.4v-1.3c0-0.3-0.2-0.4-0.4-0.4h0
		c-0.8,0-1.4-0.3-2-0.9c-0.6-0.6-0.8-1.3-0.8-2.1c0-0.8,0.3-1.4,0.8-2c0.5-0.6,1.2-0.9,1.9-1l0.5,0c0.3,0,0.5-0.2,0.4-0.4l0.1-0.5
		c0.1-1,0.5-1.9,1.3-2.5c0.8-0.7,1.6-1,2.7-1c1,0,1.9,0.3,2.7,1c0.8,0.7,1.2,1.5,1.3,2.6l0.1,0.5c0,0.3,0.2,0.4,0.4,0.4h1.7
		c0.8,0,1.5,0.3,2.1,0.9c0.6,0.6,0.9,1.3,0.9,2.1c0,0.8-0.3,1.5-0.8,2c-0.6,0.6-1.2,0.9-2,1c-0.3,0-0.4,0.2-0.4,0.4v1.3
		c0,0.2,0.2,0.4,0.4,0.4c0.9,0,1.8-0.3,2.5-0.8c0.8-0.5,1.4-1.1,1.8-1.9c0.4-0.8,0.7-1.6,0.7-2.6c0-0.7-0.1-1.3-0.4-1.9
		C22.9,14,23.2,12.9,23.2,11.6z M21.1,11.6c0,0.4-0.1,0.9-0.3,1.3c-0.9-0.8-2.1-1.3-3.4-1.3h-0.1c-0.3-1-0.8-1.9-1.5-2.7
		c0.6-0.5,1.2-0.7,2-0.7c0.9,0,1.7,0.3,2.3,1C20.7,10,21.1,10.7,21.1,11.6z"/>
</g>
</svg>
