<?xml version="1.0" encoding="utf-8"?>
<!-- Generator: Adobe Illustrator 22.0.1, SVG Export Plug-In . SVG Version: 6.00 Build 0)  -->
<svg version="1.1" id="Layer_1" xmlns="http://www.w3.org/2000/svg" xmlns:xlink="http://www.w3.org/1999/xlink" x="0px" y="0px"
	 viewBox="0 0 30 30" style="enable-background:new 0 0 30 30;" xml:space="preserve">
<g>
	<path d="M10.2,16.7c-0.2-0.4-0.5-0.8-0.7-1L8.9,15l-0.5,0.6c-0.3,0.3-0.6,0.7-0.8,1.1c-0.2,0.4-0.4,0.8-0.4,1.1
		c0,0.5,0.2,0.8,0.5,1.2c0.3,0.3,0.7,0.5,1.2,0.5c0.5,0,0.9-0.2,1.2-0.5c0.3-0.3,0.5-0.7,0.5-1.2C10.6,17.5,10.4,17.1,10.2,16.7z"/>
	<path d="M23.2,7.2c0.2,0,0.5-0.1,0.8-0.3l1.4-1.4c0.2-0.2,0.3-0.5,0.3-0.8c0-0.3-0.1-0.6-0.3-0.8c-0.4-0.4-1.1-0.4-1.5,0l-1.4,1.4
		c-0.2,0.2-0.3,0.5-0.3,0.8c0,0.3,0.1,0.6,0.3,0.8C22.7,7.1,23,7.2,23.2,7.2z"/>
	<path d="M17.8,4.9c0.3,0,0.6-0.1,0.8-0.3c0.2-0.2,0.3-0.5,0.3-0.8v-2c0-0.3-0.1-0.6-0.3-0.8c-0.4-0.4-1.1-0.4-1.5,0
		c-0.2,0.2-0.3,0.5-0.3,0.8v2c0,0.3,0.1,0.6,0.3,0.8C17.2,4.8,17.5,4.9,17.8,4.9z"/>
	<path d="M13.2,18.1C13.1,18,13,18,13,17.9l-0.2-0.2l-0.4,0.4c-0.3,0.3-0.8,0.8-1.3,1.5c-0.6,0.8-0.9,1.5-0.9,2.1
		c0,0.7,0.3,1.3,0.8,1.8c0.5,0.5,1.1,0.7,1.8,0.7c0.7,0,1.3-0.3,1.8-0.8c0.5-0.5,0.8-1.1,0.8-1.8c0-0.6-0.3-1.3-0.9-2.1
		C14.1,19,13.6,18.5,13.2,18.1z"/>
	<path d="M10.7,6.1c0.2,0.2,0.5,0.3,0.8,0.3c0.3,0,0.5-0.1,0.8-0.3c0.2-0.2,0.3-0.5,0.3-0.8c0-0.3-0.1-0.6-0.3-0.8l-0.7-0.7
		c-0.5-0.4-1.2-0.4-1.6,0C9.8,4.1,9.7,4.4,9.7,4.7C9.7,5,9.8,5.3,10,5.4L10.7,6.1z"/>
	<path d="M28.3,10.8c-0.2-0.2-0.5-0.3-0.8-0.3h-2c-0.3,0-0.6,0.1-0.8,0.3c-0.2,0.2-0.3,0.5-0.3,0.8c0,0.3,0.1,0.6,0.3,0.8
		c0.2,0.2,0.5,0.3,0.8,0.3h2c0.3,0,0.6-0.1,0.8-0.3c0.2-0.2,0.3-0.5,0.3-0.8C28.7,11.3,28.6,11,28.3,10.8z"/>
	<path d="M13.7,15.9c0.2-0.2,0.3-0.5,0.3-0.8c0-0.5-0.3-1.1-1-1.8l-0.2-0.2l-0.4,0.4c-0.2,0.2-0.4,0.5-0.5,0.7
		c-0.2,0.3-0.3,0.6-0.3,0.8c0,0.3,0.1,0.6,0.4,0.8c0.2,0.2,0.5,0.3,0.9,0.3C13.2,16.3,13.5,16.2,13.7,15.9z"/>
	<path d="M24.8,17.1c-0.5-0.4-1.1-0.4-1.6,0c-0.2,0.2-0.3,0.5-0.3,0.8c0,0.3,0.1,0.6,0.3,0.8l0.6,0.5c0.2,0.2,0.5,0.4,0.8,0.4
		c0.3,0,0.6-0.1,0.7-0.3c0.2-0.2,0.4-0.5,0.4-0.8c0-0.3-0.1-0.5-0.3-0.8L24.8,17.1z"/>
	<path d="M23.2,11.6c0-1-0.2-1.9-0.7-2.7c-0.5-0.8-1.2-1.5-2-2c-0.8-0.5-1.8-0.7-2.7-0.7c-1.5,0-2.9,0.6-3.9,1.7
		c-0.8-0.4-1.7-0.6-2.6-0.6c-1.5,0-2.8,0.5-3.9,1.4c-1.1,0.9-1.8,2-2.1,3.3c-1.1,0.3-2,0.9-2.7,1.8c-0.8,0.9-1.1,2-1.1,3.2
		c0,0.9,0.2,1.8,0.7,2.5c0.4,0.8,1,1.4,1.8,1.9c0.8,0.5,1.6,0.7,2.5,0.8c0.3,0,0.4-0.2,0.4-0.4v-1.3c0-0.3-0.2-0.4-0.4-0.4h0
		c-0.8,0-1.5-0.4-2-0.9c-0.6-0.6-0.8-1.3-0.8-2.1c0-0.8,0.3-1.4,0.8-2c0.5-0.6,1.2-0.9,1.9-1l0.5,0c0.3,0,0.4-0.2,0.4-0.4l0.1-0.6
		c0.1-1,0.5-1.9,1.3-2.6c0.8-0.7,1.6-1,2.7-1c1,0,1.9,0.3,2.7,1c0.8,0.7,1.2,1.5,1.3,2.5l0.1,0.6c0,0.2,0.2,0.4,0.4,0.4h1.6
		c0.8,0,1.5,0.3,2.1,0.9c0.6,0.6,0.9,1.3,0.9,2.1c0,0.8-0.3,1.5-0.8,2.1c-0.6,0.6-1.2,0.9-2,0.9c-0.3,0-0.4,0.2-0.4,0.4v1.3
		c0,0.3,0.2,0.4,0.4,0.4c0.9,0,1.8-0.3,2.5-0.8c0.8-0.5,1.4-1.1,1.8-1.9c0.4-0.8,0.7-1.6,0.7-2.6c0-0.7-0.1-1.4-0.4-2
		C22.9,14,23.2,12.8,23.2,11.6z M21,11.6c0,0.5-0.1,0.9-0.3,1.4c-1-0.9-2.1-1.3-3.4-1.3h-0.1c-0.3-1-0.8-1.9-1.5-2.7
		c0.6-0.5,1.3-0.7,2.1-0.7c0.9,0,1.7,0.3,2.3,1C20.7,9.9,21,10.7,21,11.6z"/>
</g>
</svg>
