<?xml version="1.0" encoding="utf-8"?>
<!-- Generator: Adobe Illustrator 22.0.1, SVG Export Plug-In . SVG Version: 6.00 Build 0)  -->
<svg version="1.1" id="Layer_1" xmlns="http://www.w3.org/2000/svg" xmlns:xlink="http://www.w3.org/1999/xlink" x="0px" y="0px"
	 viewBox="0 0 30 30" style="enable-background:new 0 0 30 30;" xml:space="preserve">
<g>
	<path d="M8.3,22.4c-0.3-0.1-0.6,0-0.9,0.1c-0.3,0.2-0.4,0.4-0.5,0.7l-0.1,0.6l0,0.2c0,0.1,0,0.1,0,0.1c0,0.2,0.1,0.5,0.2,0.6
		c0.1,0.2,0.3,0.4,0.6,0.4l0.1,0c0,0,0,0,0.1,0c0.1,0,0.1,0,0.2,0c0.4,0,0.8-0.1,1-0.9L9,23.7c0.1-0.3,0-0.6-0.1-0.8
		C8.8,22.7,8.6,22.5,8.3,22.4z M7,24C7,24,7,24,7,24L7,24L7,24z"/>
	<path d="M9.3,21.9c0.2-0.2,0.3-0.5,0.3-0.8c0-0.3-0.1-0.6-0.3-0.8c-0.2-0.2-0.5-0.3-0.8-0.3c-0.3,0-0.6,0.1-0.8,0.3
		c-0.2,0.2-0.3,0.5-0.3,0.8c0,0.3,0.1,0.5,0.3,0.7c0.2,0.2,0.5,0.3,0.8,0.3C8.9,22.2,9.1,22.1,9.3,21.9z"/>
	<path d="M10.7,25.5c-0.3-0.1-0.6-0.1-0.8,0.1c-0.3,0.1-0.4,0.4-0.5,0.7l-0.1,0.6c0,0.1,0,0.2,0,0.3c0,0.2,0.1,0.4,0.2,0.6
		c0.1,0.2,0.4,0.4,0.6,0.4c0.1,0,0.2,0,0.3,0c0.5,0,0.9-0.3,1-0.8l0.1-0.6c0.1-0.3,0.1-0.6-0.1-0.9C11.2,25.7,10.9,25.5,10.7,25.5z"
		/>
	<path d="M23.3,7.2C23.3,7.2,23.3,7.2,23.3,7.2c0.3,0,0.6-0.1,0.8-0.3l1.4-1.5c0.2-0.2,0.3-0.5,0.3-0.8c0-0.3-0.1-0.6-0.3-0.8
		c-0.4-0.4-1.2-0.4-1.5,0l-1.4,1.5c-0.2,0.2-0.3,0.5-0.3,0.8c0,0.3,0.1,0.6,0.3,0.8C22.7,7.1,22.9,7.2,23.3,7.2z"/>
	<path d="M10.6,6.1c0.2,0.2,0.4,0.3,0.7,0.3c0,0,0.1,0,0.1,0c0.2,0,0.5-0.1,0.7-0.3c0.3-0.2,0.4-0.5,0.4-0.8c0-0.3-0.1-0.6-0.3-0.8
		l-0.6-0.7c-0.4-0.4-1.1-0.4-1.6,0C9.8,4,9.6,4.3,9.6,4.6c0,0.3,0.1,0.5,0.3,0.8L10.6,6.1z"/>
	<path d="M17.8,4.9c0.3,0,0.6-0.1,0.8-0.3c0.2-0.2,0.3-0.5,0.3-0.8v-2c0-0.3-0.1-0.6-0.3-0.8c-0.4-0.4-1.1-0.5-1.6,0
		c-0.2,0.2-0.3,0.5-0.3,0.8v2c0,0.3,0.1,0.6,0.3,0.8C17.2,4.8,17.5,4.9,17.8,4.9z"/>
	<path d="M24.9,17.2c-0.5-0.4-1.1-0.4-1.6,0C23.1,17.4,23,17.7,23,18c0,0.3,0.1,0.5,0.3,0.8l0.7,0.6c0.2,0.2,0.4,0.3,0.7,0.3l0.1,0
		c0.3,0,0.5-0.1,0.7-0.3c0.2-0.2,0.3-0.5,0.3-0.8c0-0.3-0.1-0.6-0.3-0.8L24.9,17.2z"/>
	<path d="M23.3,11.6c0-1-0.2-1.9-0.7-2.8c-0.5-0.8-1.2-1.5-2-2c-1.5-0.9-3.3-1-5-0.3c-0.6,0.3-1.2,0.7-1.7,1.2
		c-0.8-0.4-1.7-0.6-2.7-0.6c-1.5,0-2.8,0.5-3.9,1.4c-1.1,0.9-1.8,2-2.1,3.4c-1.1,0.3-2,0.9-2.7,1.8c-0.8,1-1.1,2-1.1,3.2
		c0,0.4,0,0.7,0.1,0.9c0,0,0,0,0,0l0,0c0.2,0.9,0.6,1.7,1.2,2.4c0.6,0.7,1.3,1.2,2.2,1.5l0.3,0.1v0c0.4,0.1,0.8,0.2,1.2,0.2
		c0.2,0,0.4-0.2,0.4-0.4v-1.3c0-0.2-0.2-0.4-0.4-0.4c0,0,0,0,0,0c-0.3,0-0.6-0.1-1-0.2l-0.1-0.1c-0.2-0.1-0.5-0.3-0.7-0.5
		c-0.7-0.6-1-1.3-1-2.2l0-0.2c0-0.7,0.3-1.3,0.8-1.9c0.5-0.6,1.2-0.9,1.9-1l0.5,0c0.2,0,0.4-0.1,0.5-0.4l0.1-0.6
		c0.1-1,0.5-1.9,1.3-2.6c0.8-0.7,1.7-1,2.7-1c1,0,1.9,0.3,2.7,1c0.8,0.7,1.2,1.5,1.3,2.6l0.1,0.6c0,0.3,0.2,0.4,0.4,0.4h1.6
		c0.8,0,1.5,0.3,2.1,0.9c0.6,0.6,0.9,1.3,0.9,2.1c0,0.8-0.3,1.5-0.8,2.1c-0.6,0.6-1.2,0.9-2,1c-0.3,0-0.5,0.2-0.5,0.4v1.3
		c0,0.3,0.2,0.4,0.5,0.4c0.9,0,1.8-0.3,2.5-0.8c0.8-0.5,1.4-1.1,1.8-1.9c0.4-0.8,0.7-1.6,0.7-2.6c0-0.7-0.1-1.4-0.4-2
		C22.9,14,23.3,12.9,23.3,11.6z M21.1,11.6c0,0.5-0.1,1-0.3,1.4c-1-0.9-2.1-1.3-3.4-1.3h-0.1c-0.3-1.1-0.8-2-1.5-2.7
		c0.6-0.5,1.3-0.7,2.1-0.7c0.9,0,1.7,0.3,2.3,1C20.7,9.9,21.1,10.7,21.1,11.6z"/>
	<path d="M11,23.2c-0.3,0-0.6,0.1-0.8,0.3c-0.2,0.2-0.3,0.5-0.3,0.8c0,0.3,0.1,0.5,0.3,0.7c0.2,0.2,0.5,0.3,0.8,0.3
		c0.3,0,0.6-0.1,0.8-0.3c0.2-0.2,0.3-0.5,0.3-0.8c0-0.3-0.1-0.6-0.3-0.8C11.5,23.3,11.3,23.2,11,23.2z"/>
	<path d="M28.4,10.8c-0.2-0.2-0.5-0.3-0.8-0.3h-2.1c-0.3,0-0.6,0.1-0.8,0.3c-0.2,0.2-0.3,0.5-0.3,0.8c0,0.3,0.1,0.6,0.3,0.8
		c0.2,0.2,0.5,0.4,0.8,0.4h2.1c0.3,0,0.6-0.1,0.8-0.3c0.2-0.2,0.3-0.5,0.3-0.8C28.8,11.3,28.6,11,28.4,10.8z"/>
	<path d="M12.2,20c-0.3-0.1-0.6-0.1-0.8,0.1c-0.3,0.2-0.4,0.4-0.5,0.7l-0.2,0.9c0,0.1,0,0.2,0,0.3c0,0.3,0.1,0.5,0.2,0.6
		c0.1,0.2,0.3,0.4,0.6,0.4c0.1,0,0.2,0,0.3,0c0.2,0,0.3,0,0.5-0.1c0.3-0.1,0.4-0.4,0.5-0.7l0.3-0.9c0.1-0.3,0.1-0.6-0.1-0.8
		C12.7,20.2,12.5,20,12.2,20z"/>
	<path d="M15.1,20.1c-0.3,0-0.6,0.1-0.8,0.3c-0.2,0.2-0.3,0.5-0.3,0.8c0,0.3,0.1,0.5,0.3,0.7c0.2,0.2,0.5,0.3,0.8,0.3
		c0.3,0,0.6-0.1,0.8-0.3c0.2-0.2,0.3-0.5,0.3-0.8c0-0.3-0.1-0.6-0.3-0.8C15.7,20.2,15.4,20.1,15.1,20.1z"/>
	<path d="M14.8,22.4c-0.3-0.1-0.6,0-0.9,0.1c-0.3,0.2-0.4,0.4-0.5,0.7l-0.1,0.6c0,0,0,0,0,0.1c0,0.1,0,0.1,0,0.2
		c0,0.2,0.1,0.4,0.2,0.6c0.1,0.2,0.3,0.4,0.6,0.4l0.1,0c0,0,0,0,0.1,0c0.1,0,0.1,0,0.2,0c0.5,0,0.9-0.3,1-0.8l0.1-0.6
		c0.1-0.3,0.1-0.6-0.1-0.8C15.3,22.7,15.1,22.5,14.8,22.4z"/>
</g>
</svg>
