<?xml version="1.0" encoding="utf-8"?>
<!-- Generator: Adobe Illustrator 22.0.1, SVG Export Plug-In . SVG Version: 6.00 Build 0)  -->
<svg version="1.1" id="Layer_1" xmlns="http://www.w3.org/2000/svg" xmlns:xlink="http://www.w3.org/1999/xlink" x="0px" y="0px"
	 viewBox="0 0 30 30" style="enable-background:new 0 0 30 30;" xml:space="preserve">
<g>
	<path d="M8.1,23.5c0.3,0,0.6-0.2,0.7-0.4l2.2-2.8c0.2-0.2,0.3-0.5,0.2-0.8c0-0.3-0.2-0.6-0.4-0.7c-0.2-0.2-0.5-0.3-0.8-0.2
		c-0.3,0-0.6,0.2-0.8,0.4l-2.1,2.8c-0.2,0.2-0.3,0.4-0.3,0.7l0,0.1c0,0.3,0.2,0.5,0.4,0.7c0.2,0.2,0.4,0.3,0.7,0.3
		C8.1,23.5,8.1,23.5,8.1,23.5z"/>
	<path d="M17.8,4.9c0.3,0,0.6-0.1,0.8-0.3c0.2-0.2,0.3-0.5,0.3-0.8V1.7c0-0.3-0.1-0.6-0.3-0.8c-0.4-0.4-1.1-0.4-1.6,0
		c-0.2,0.2-0.3,0.5-0.3,0.8v2.1c0,0.3,0.1,0.6,0.3,0.8C17.2,4.7,17.5,4.9,17.8,4.9z"/>
	<path d="M6.6,23.9c-0.3-0.1-0.6-0.1-0.9,0c-0.3,0.1-0.5,0.3-0.6,0.6c-0.1,0.3-0.1,0.6,0,0.8c0.1,0.3,0.3,0.5,0.6,0.6
		C5.9,25.9,6,26,6.2,26c0.1,0,0.3,0,0.4-0.1c0.3-0.1,0.5-0.3,0.6-0.6c0.1-0.3,0.1-0.6,0-0.8C7.1,24.2,6.9,24,6.6,23.9z"/>
	<path d="M10.7,6c0.2,0.2,0.4,0.3,0.7,0.3c0,0,0.1,0,0.1,0c0.2,0,0.5-0.1,0.7-0.3c0.3-0.2,0.4-0.5,0.4-0.8c0-0.3-0.1-0.6-0.3-0.8
		l-0.6-0.6c-0.4-0.4-1.1-0.4-1.6,0C9.8,4.1,9.7,4.3,9.7,4.6c0,0.3,0.1,0.6,0.3,0.8L10.7,6z"/>
	<path d="M23.3,7.2c0.3,0,0.6-0.1,0.7-0.3l1.5-1.5c0.2-0.2,0.3-0.5,0.3-0.8c0-0.3-0.1-0.6-0.3-0.8c-0.4-0.4-1.1-0.4-1.6,0l-1.5,1.5
		c-0.2,0.2-0.3,0.5-0.3,0.8c0,0.3,0.1,0.6,0.3,0.8C22.8,7,23,7.1,23.3,7.2z"/>
	<path d="M15.5,19.5c0-0.3-0.2-0.5-0.4-0.8c-0.2-0.2-0.5-0.3-0.8-0.2c-0.3,0-0.5,0.2-0.7,0.4l-4.2,5.3c-0.2,0.2-0.3,0.4-0.3,0.7
		l0,0.1c0,0.3,0.2,0.5,0.4,0.7c0.2,0.2,0.4,0.3,0.7,0.3c0,0,0.1,0,0.1,0c0.3,0,0.6-0.2,0.8-0.4l4.1-5.2
		C15.4,20.1,15.5,19.8,15.5,19.5z"/>
	<path d="M24.9,17.2c-0.4-0.4-1.1-0.4-1.6,0C23.1,17.4,23,17.7,23,18c0,0.3,0.1,0.6,0.3,0.8l0.7,0.6c0.2,0.2,0.4,0.3,0.7,0.3l0.1,0
		c0.2,0,0.5-0.1,0.8-0.3c0.2-0.2,0.3-0.5,0.3-0.8c0-0.3-0.1-0.6-0.3-0.8L24.9,17.2z"/>
	<path d="M28.4,10.8c-0.2-0.2-0.5-0.3-0.8-0.3h-2c-0.3,0-0.6,0.1-0.8,0.3c-0.2,0.2-0.3,0.5-0.3,0.8c0,0.3,0.1,0.6,0.3,0.8
		c0.2,0.2,0.5,0.4,0.8,0.4h2c0.3,0,0.6-0.1,0.8-0.3c0.2-0.2,0.3-0.5,0.3-0.8S28.7,11,28.4,10.8z"/>
	<path d="M9,26.3c-0.3-0.1-0.6-0.1-0.9,0c-0.3,0.1-0.5,0.3-0.6,0.6c-0.1,0.1-0.1,0.3-0.1,0.5c0,0.1,0,0.2,0.1,0.4
		c0.1,0.3,0.3,0.5,0.6,0.6c0.2,0.1,0.3,0.1,0.4,0.1c0.1,0,0.2,0,0.4-0.1c0.3-0.1,0.5-0.3,0.6-0.6c0.1-0.3,0.1-0.6,0-0.9
		C9.5,26.6,9.3,26.4,9,26.3z"/>
	<path d="M14.2,25c-0.3-0.1-0.6-0.1-0.9,0c-0.3,0.1-0.5,0.3-0.6,0.6c-0.1,0.1-0.1,0.3-0.1,0.5c0,0.2,0,0.3,0.1,0.4
		c0.1,0.3,0.3,0.5,0.6,0.6c0.2,0.1,0.3,0.1,0.5,0.1c0.1,0,0.2,0,0.4-0.1c0.3-0.1,0.5-0.3,0.6-0.6c0.1-0.3,0.1-0.6,0-0.8
		C14.7,25.3,14.5,25.1,14.2,25z"/>
	<path d="M23.3,11.5c0-0.7-0.1-1.4-0.4-2.1c-0.3-0.7-0.7-1.3-1.2-1.8c-0.5-0.5-1.1-0.9-1.8-1.2C19.3,6.2,18.6,6,17.8,6
		c-1.5,0-2.8,0.6-3.9,1.7c-0.8-0.4-1.7-0.6-2.7-0.6c-1.5,0-2.8,0.5-3.9,1.4c-1.1,0.9-1.8,2-2.1,3.4c-1.1,0.3-2.1,0.9-2.8,1.8
		c-0.8,0.9-1.2,2.1-1.2,3.3c0,1.2,0.4,2.2,1.1,3.2C3,21,3.9,21.6,5,21.9c0.2,0,0.3,0,0.5-0.2L7,20H6.5c-0.8,0-1.5-0.3-2.1-0.9
		c-0.6-0.6-0.9-1.3-0.9-2.2c0-0.8,0.3-1.4,0.8-2c0.5-0.6,1.2-0.9,1.9-1l0.5,0c0.3,0,0.4-0.2,0.4-0.4l0.1-0.5c0.1-1,0.5-1.9,1.3-2.6
		c0.8-0.7,1.7-1,2.7-1c1,0,1.9,0.3,2.7,1c0.8,0.7,1.2,1.5,1.3,2.6l0.1,0.6c0.1,0.2,0.2,0.3,0.5,0.3h1.6c0.8,0,1.5,0.3,2.1,0.9
		c0.6,0.6,0.9,1.3,0.9,2.1c0,0.8-0.3,1.5-0.8,2c-0.5,0.6-1.2,0.9-1.9,1c-0.6,0.1-0.9,0.2-1.1,0.4l-2.2,2.8c-0.2,0.2-0.2,0.5-0.2,0.8
		c0,0.3,0.2,0.5,0.4,0.7c0.2,0.2,0.4,0.3,0.7,0.3c0,0,0.1,0,0.1,0c0.3,0,0.6-0.2,0.8-0.5l1.9-2.4c0.8-0.1,1.6-0.4,2.3-0.9
		c0.7-0.5,1.3-1.1,1.7-1.9c0.4-0.8,0.6-1.6,0.6-2.5c0-0.7-0.1-1.4-0.4-2C22.9,13.9,23.3,12.8,23.3,11.5z M21.1,11.6
		c0,0.5-0.1,1-0.3,1.5c-1-0.9-2.1-1.3-3.4-1.3h-0.1c-0.3-1-0.8-1.9-1.5-2.7c0.6-0.5,1.3-0.7,2.1-0.7c0.9,0,1.7,0.3,2.4,1
		C20.8,9.9,21.1,10.7,21.1,11.6z"/>
</g>
</svg>
