<?xml version="1.0" encoding="utf-8"?>
<!-- Generator: Adobe Illustrator 22.0.1, SVG Export Plug-In . SVG Version: 6.00 Build 0)  -->
<svg version="1.1" id="Layer_1" xmlns="http://www.w3.org/2000/svg" xmlns:xlink="http://www.w3.org/1999/xlink" x="0px" y="0px"
	 viewBox="0 0 30 30" style="enable-background:new 0 0 30 30;" xml:space="preserve">
<g>
	<path d="M16.8,17.3c-0.1-0.3-0.4-0.4-0.7-0.5c-0.3-0.1-0.6,0-0.9,0.2c-0.2,0.1-0.4,0.3-0.4,0.6l-2.4,8.8l0,0
		c-0.1,0.3-0.1,0.6,0.1,0.9c0.2,0.3,0.4,0.4,0.6,0.5c0.1,0,0.2,0.1,0.3,0.1c0.2,0,0.5-0.1,0.7-0.2c0.2-0.2,0.3-0.3,0.4-0.6l2.4-8.8
		C17,17.9,17,17.6,16.8,17.3z"/>
	<path d="M13.4,17.3c-0.2-0.3-0.4-0.4-0.7-0.5c-0.3-0.1-0.6,0-0.9,0.2c-0.2,0.1-0.3,0.3-0.4,0.6l-1.6,5.8c0,0.1-0.1,0.2-0.1,0.3
		c0,0.2,0.1,0.4,0.2,0.6c0.1,0.2,0.4,0.4,0.7,0.4l0.1,0c0,0,0.1,0,0.2,0c0.5,0,0.9-0.3,1.1-0.8l1.6-5.7
		C13.6,17.9,13.6,17.6,13.4,17.3z"/>
	<path d="M20.3,18c0-0.1,0-0.1,0-0.2c0-0.2-0.1-0.4-0.2-0.6c-0.1-0.2-0.3-0.3-0.6-0.4c-0.3-0.1-0.6,0-0.9,0.2
		c-0.2,0.1-0.3,0.3-0.4,0.6l-1.6,5.8c0,0.1,0,0.2,0,0.3c0,0.2,0.1,0.4,0.2,0.6c0.1,0.2,0.3,0.3,0.6,0.4l0.3,0.1
		c0.2,0,0.5-0.1,0.7-0.2c0.2-0.1,0.3-0.4,0.4-0.6l1.6-5.7L20.3,18z"/>
	<path d="M24.9,14.3c-0.5-0.8-1.1-1.4-1.9-1.9c-0.8-0.5-1.7-0.7-2.6-0.7h-0.1c-0.4-1.3-1.1-2.4-2.1-3.2c-1.1-0.9-2.4-1.3-3.8-1.3
		c-1.5,0-2.8,0.5-3.9,1.4c-1.1,0.9-1.8,2-2.2,3.3c-1.1,0.3-2,0.9-2.7,1.8c-0.8,0.9-1.1,2-1.1,3.2c0,1.4,0.5,2.6,1.4,3.6
		c1,1,2.2,1.5,3.6,1.6c0.2,0,0.4-0.2,0.4-0.4v-1.3c0-0.3-0.2-0.4-0.4-0.4h0c-0.8,0-1.5-0.4-2-0.9c-0.6-0.6-0.8-1.3-0.8-2.1
		c0-0.8,0.3-1.4,0.8-2c0.5-0.6,1.2-0.9,1.9-1l0.5,0c0.3,0,0.4-0.2,0.4-0.4l0.1-0.5c0.1-1,0.5-1.9,1.3-2.5c0.7-0.7,1.6-1,2.7-1
		c1,0,1.9,0.3,2.7,1c0.8,0.7,1.2,1.5,1.3,2.6l0.1,0.5c0,0.3,0.2,0.4,0.4,0.4h1.6c0.8,0,1.5,0.3,2.1,0.9c0.6,0.6,0.9,1.3,0.9,2.1
		c0,0.8-0.3,1.5-0.8,2.1c-0.6,0.6-1.2,0.9-2,0.9c-0.3,0-0.5,0.2-0.5,0.4v1.3c0,0.3,0.2,0.4,0.5,0.4c0.9,0,1.8-0.3,2.5-0.7
		c0.8-0.5,1.4-1.1,1.8-1.9c0.4-0.8,0.7-1.6,0.7-2.6C25.6,16,25.4,15.1,24.9,14.3z"/>
</g>
</svg>
