<?xml version="1.0" encoding="utf-8"?>
<!-- Generator: Adobe Illustrator 22.0.1, SVG Export Plug-In . SVG Version: 6.00 Build 0)  -->
<svg version="1.1" id="Layer_1" xmlns="http://www.w3.org/2000/svg" xmlns:xlink="http://www.w3.org/1999/xlink" x="0px" y="0px"
	 viewBox="0 0 30 30" style="enable-background:new 0 0 30 30;" xml:space="preserve">
<g>
	<path d="M10.6,6.1c0.2,0.2,0.4,0.3,0.7,0.3c0,0,0.1,0,0.1,0c0.3,0,0.5-0.1,0.7-0.3c0.2-0.2,0.3-0.5,0.3-0.8c0-0.3-0.1-0.6-0.3-0.8
		l-0.6-0.6c-0.2-0.2-0.4-0.3-0.8-0.3c-0.3,0-0.6,0.1-0.8,0.3C9.8,4.1,9.7,4.4,9.7,4.7C9.7,5,9.8,5.2,10,5.4L10.6,6.1z"/>
	<path d="M9,19.9c0.2,0,0.3,0,0.5-0.1c0.3-0.1,0.5-0.4,0.5-0.7l0.3-0.9c0.1-0.3,0.1-0.6-0.1-0.9c-0.2-0.2-0.4-0.4-0.7-0.5
		c-0.3-0.1-0.6-0.1-0.8,0.1c-0.3,0.1-0.4,0.4-0.5,0.7l-0.2,1c0,0.1,0,0.2,0,0.3h0c0,0.2,0,0.4,0.2,0.6c0.1,0.2,0.3,0.3,0.6,0.4
		C8.9,19.8,9,19.9,9,19.9z M8.2,18.8L8.2,18.8L8.2,18.8L8.2,18.8z"/>
	<path d="M7.4,21.1c0,0.3,0.1,0.5,0.3,0.7c0.2,0.2,0.5,0.3,0.7,0.3c0.3,0,0.6-0.1,0.8-0.3c0.2-0.2,0.3-0.5,0.3-0.8
		c0-0.3-0.1-0.6-0.3-0.8c-0.4-0.4-1.1-0.4-1.5,0C7.5,20.5,7.4,20.8,7.4,21.1z"/>
	<path d="M10.7,25.5c-0.3-0.1-0.6-0.1-0.8,0.1c-0.3,0.1-0.4,0.4-0.5,0.7l-0.1,0.6c0,0.1,0,0.2,0,0.3c0,0.2,0.1,0.4,0.2,0.6
		c0.1,0.2,0.4,0.4,0.6,0.4c0.1,0,0.2,0,0.3,0c0.5,0,0.9-0.3,1-0.8l0.1-0.6c0.1-0.3,0-0.6-0.1-0.9C11.2,25.7,10.9,25.5,10.7,25.5z"/>
	<path d="M23.2,7.2c0.3,0,0.5-0.1,0.8-0.3l1.4-1.4c0.2-0.2,0.3-0.5,0.3-0.8c0-0.3-0.1-0.6-0.3-0.8c-0.4-0.4-1.1-0.4-1.6,0l-1.4,1.5
		c-0.2,0.2-0.3,0.5-0.3,0.8c0,0.3,0.1,0.6,0.3,0.8C22.7,7.1,22.9,7.2,23.2,7.2z"/>
	<path d="M17.7,4.9c0.3,0,0.6-0.1,0.8-0.3c0.2-0.2,0.3-0.5,0.3-0.8V1.8c0-0.3-0.1-0.6-0.3-0.8c-0.4-0.4-1.2-0.4-1.5,0
		c-0.2,0.2-0.3,0.5-0.3,0.8l0,2.1c0,0.3,0.1,0.5,0.3,0.8C17.1,4.8,17.4,4.9,17.7,4.9z"/>
	<path d="M8.1,22.4c-0.3-0.1-0.6-0.1-0.8,0.1c-0.3,0.2-0.4,0.4-0.5,0.7l-0.1,0.6c0,0.1,0,0.2,0,0.3c0,0.2,0.1,0.4,0.2,0.6
		c0.1,0.2,0.3,0.4,0.6,0.5c0.1,0,0.2,0.1,0.4,0.1c0.2,0,0.3,0,0.5-0.1c0.3-0.1,0.4-0.4,0.5-0.7l0.1-0.6c0.1-0.3,0-0.6-0.1-0.8
		C8.6,22.6,8.4,22.4,8.1,22.4z"/>
	<path d="M16.9,17.4c-0.1-0.2-0.4-0.4-0.6-0.5c-0.3-0.1-0.6-0.1-0.8,0.1c-0.3,0.1-0.4,0.4-0.5,0.7l-0.3,0.9l0,0.1c0,0,0,0,0,0
		c0,0.1,0,0.1,0,0.2c0,0.2,0.1,0.4,0.2,0.6c0.1,0.2,0.4,0.3,0.6,0.4l0.2,0c0.1,0,0.1,0,0.1,0c0.1,0,0.3,0,0.5-0.1
		c0.3-0.1,0.5-0.4,0.5-0.7l0.2-0.9C17.1,17.9,17.1,17.6,16.9,17.4z"/>
	<path d="M23.2,11.6c0-0.7-0.1-1.4-0.4-2.1c-0.3-0.7-0.7-1.2-1.2-1.8c-0.5-0.5-1.1-0.9-1.7-1.2c-0.7-0.3-1.4-0.4-2.1-0.4
		c-1.5,0-2.9,0.6-3.9,1.7c-0.9-0.4-1.8-0.6-2.7-0.6c-1.5,0-2.8,0.5-3.9,1.4c-1.1,0.9-1.8,2-2.1,3.4c-1.1,0.3-2,0.9-2.7,1.8
		c-0.7,0.9-1.1,2-1.1,3.2c0,1.4,0.5,2.6,1.4,3.6c1,1,2.2,1.5,3.6,1.6c0.3,0,0.4-0.2,0.4-0.4v-1.3c0-0.3-0.2-0.4-0.4-0.4h0
		c-0.8,0-1.4-0.3-2-0.9c-0.5-0.6-0.8-1.3-0.8-2.1c0-0.8,0.3-1.5,0.8-2c0.5-0.6,1.2-0.9,2-1l0.5-0.1c0.2,0,0.4-0.2,0.4-0.4L7.1,13
		c0.1-1,0.5-1.9,1.3-2.6c0.7-0.7,1.6-1,2.7-1c1,0,1.9,0.3,2.7,1c0.8,0.7,1.2,1.5,1.3,2.5l0.1,0.6c0,0.2,0.2,0.4,0.5,0.4h1.6
		c0.8,0,1.5,0.3,2.1,0.9c0.6,0.6,0.9,1.3,0.9,2.1c0,0.8-0.3,1.5-0.8,2.1c-0.5,0.6-1.2,0.9-2,0.9c-0.3,0-0.4,0.2-0.4,0.4v1.3
		c0,0.3,0.2,0.4,0.5,0.4c0,0,0,0,0,0c1.4,0,2.6-0.6,3.5-1.6c1-1,1.4-2.2,1.4-3.6c0-0.7-0.1-1.3-0.3-2C22.8,14,23.2,12.9,23.2,11.6z
		 M21,11.6c0,0.5-0.1,1-0.3,1.5c-1-0.9-2.1-1.3-3.4-1.3h-0.1c-0.3-1-0.8-1.9-1.5-2.7c0.6-0.5,1.3-0.8,2.1-0.8c0.9,0,1.7,0.3,2.3,0.9
		C20.7,9.9,21,10.7,21,11.6z"/>
	<path d="M24.8,17.2c-0.4-0.4-1.1-0.4-1.5,0c-0.2,0.2-0.3,0.5-0.3,0.8c0,0.3,0.1,0.6,0.3,0.8l0.6,0.7c0.2,0.2,0.5,0.3,0.8,0.3
		c0.3,0,0.5-0.1,0.8-0.3c0.2-0.2,0.3-0.5,0.3-0.8c0-0.3-0.1-0.6-0.3-0.8L24.8,17.2z"/>
	<path d="M28.3,10.8c-0.2-0.2-0.5-0.3-0.8-0.3h-2c-0.3,0-0.6,0.1-0.8,0.3c-0.2,0.2-0.3,0.5-0.3,0.8c0,0.3,0.1,0.6,0.3,0.8
		c0.2,0.2,0.5,0.3,0.8,0.3h2c0.3,0,0.6-0.1,0.8-0.3c0.2-0.2,0.3-0.5,0.3-0.8C28.7,11.3,28.5,11,28.3,10.8z"/>
	<path d="M14.8,22.4c-0.3-0.1-0.6,0-0.9,0.1c-0.3,0.2-0.4,0.4-0.5,0.7l-0.1,0.6c0,0,0,0,0,0.1l0,0.1c0,0,0,0.1,0,0.1
		c0,0.2,0.1,0.4,0.2,0.6c0.1,0.2,0.3,0.3,0.6,0.4l0.1,0c0,0,0,0,0.1,0c0.1,0,0.1,0,0.1,0c0.4,0,0.8-0.1,1-0.9l0.1-0.6
		c0.1-0.3,0.1-0.6-0.1-0.8C15.3,22.6,15.1,22.5,14.8,22.4z"/>
	<path d="M12.1,19.9c-0.3-0.1-0.6-0.1-0.8,0.1c-0.3,0.1-0.4,0.4-0.5,0.7l-0.2,0.9c0,0.1,0,0.2,0,0.3c0,0.2,0.1,0.4,0.2,0.6
		c0.1,0.2,0.3,0.4,0.6,0.4c0.1,0,0.2,0,0.3,0c0.2,0,0.3,0,0.5-0.1c0.3-0.1,0.4-0.4,0.5-0.7l0.3-0.9c0.1-0.3,0.1-0.6-0.1-0.8
		C12.7,20.2,12.4,20,12.1,19.9z"/>
	<path d="M15.1,20c-0.3,0-0.6,0.1-0.8,0.3c-0.2,0.2-0.3,0.5-0.3,0.8c0,0.3,0.1,0.6,0.3,0.7c0.2,0.2,0.5,0.3,0.8,0.3
		c0.3,0,0.5-0.1,0.8-0.3c0.2-0.2,0.3-0.5,0.3-0.8c0-0.3-0.1-0.5-0.3-0.8C15.7,20.1,15.4,20,15.1,20z"/>
	<path d="M11,23.1c-0.3,0-0.6,0.1-0.8,0.3c-0.2,0.2-0.3,0.5-0.3,0.8c0,0.3,0.1,0.5,0.3,0.8c0.2,0.2,0.5,0.3,0.8,0.3
		c0.3,0,0.6-0.1,0.8-0.3c0.2-0.2,0.3-0.5,0.3-0.8c0-0.3-0.1-0.5-0.3-0.8C11.5,23.2,11.3,23.1,11,23.1z"/>
</g>
</svg>
