<?xml version="1.0" encoding="utf-8"?>
<!-- Generator: Adobe Illustrator 22.0.1, SVG Export Plug-In . SVG Version: 6.00 Build 0)  -->
<svg version="1.1" id="Layer_1" xmlns="http://www.w3.org/2000/svg" xmlns:xlink="http://www.w3.org/1999/xlink" x="0px" y="0px"
	 viewBox="0 0 30 30" style="enable-background:new 0 0 30 30;" xml:space="preserve">
<g>
	<path d="M10.2,23.9c-0.2,0.2-0.3,0.5-0.3,0.8c0,0.3,0.1,0.6,0.3,0.8c0.2,0.2,0.5,0.3,0.8,0.3c0.3,0,0.6-0.1,0.8-0.3
		c0.2-0.2,0.3-0.5,0.3-0.8c0-0.3-0.1-0.6-0.3-0.8C11.3,23.5,10.7,23.5,10.2,23.9z"/>
	<path d="M13.8,22.2c-0.2,0.2-0.3,0.5-0.3,0.8c0,0.3,0.1,0.6,0.3,0.8c0.2,0.2,0.5,0.3,0.8,0.3c0.3,0,0.6-0.1,0.8-0.3
		s0.3-0.5,0.3-0.8c0-0.3-0.1-0.6-0.3-0.8C14.9,21.7,14.3,21.7,13.8,22.2z"/>
	<path d="M12.6,20.3c-0.4-0.4-1.1-0.4-1.5,0c-0.2,0.2-0.3,0.5-0.3,0.8c0,0.3,0.1,0.6,0.3,0.8c0.2,0.2,0.5,0.3,0.8,0.3
		c0.3,0,0.6-0.1,0.8-0.3c0.2-0.2,0.3-0.5,0.3-0.8C12.9,20.7,12.8,20.5,12.6,20.3z"/>
	<path d="M13,25.8c-0.2,0.2-0.3,0.5-0.3,0.8c0,0.3,0.1,0.5,0.3,0.8c0.2,0.2,0.5,0.3,0.8,0.3c0.3,0,0.6-0.1,0.8-0.3
		c0.2-0.2,0.3-0.5,0.3-0.8c0-0.3-0.1-0.6-0.3-0.8C14.1,25.4,13.4,25.4,13,25.8z"/>
	<path d="M17.5,20.3c-0.2,0.2-0.3,0.5-0.3,0.8c0,0.3,0.1,0.6,0.3,0.8c0.2,0.2,0.5,0.3,0.8,0.3c0.3,0,0.6-0.1,0.8-0.3
		c0.2-0.2,0.3-0.5,0.3-0.8c0-0.3-0.1-0.6-0.3-0.8C18.6,19.8,17.9,19.8,17.5,20.3z"/>
	<path d="M24.9,14.3c-0.5-0.8-1.1-1.4-1.9-1.9c-0.8-0.5-1.7-0.7-2.6-0.7h-0.1c-0.4-1.3-1.1-2.4-2.1-3.2c-1.1-0.9-2.4-1.3-3.8-1.3
		c-1.5,0-2.8,0.5-3.9,1.4c-1.1,0.9-1.8,2-2.2,3.4c-1.1,0.3-2,0.9-2.7,1.8c-0.7,0.9-1.1,2-1.1,3.2c0,1.4,0.5,2.6,1.4,3.6
		c1,1,2.2,1.5,3.6,1.6c0.2,0,0.4-0.2,0.4-0.4v-1.3c0-0.3-0.2-0.4-0.4-0.4c0,0,0,0,0,0c-0.8,0-1.5-0.4-2-0.9
		c-0.6-0.6-0.8-1.3-0.8-2.1c0-0.8,0.3-1.4,0.8-2c0.5-0.6,1.2-0.9,1.9-1l0.5-0.1c0.3,0,0.5-0.2,0.4-0.4l0.1-0.5
		c0.1-1,0.5-1.9,1.3-2.6c0.8-0.7,1.6-1,2.7-1c1,0,1.9,0.3,2.7,1c0.8,0.7,1.2,1.6,1.3,2.6l0.1,0.5c0,0.3,0.2,0.4,0.4,0.4h1.6
		c0.8,0,1.5,0.3,2.1,0.9c0.6,0.6,0.9,1.3,0.9,2.1c0,0.8-0.3,1.5-0.8,2.1c-0.6,0.6-1.2,0.9-2,0.9c-0.3,0-0.5,0.2-0.5,0.4v1.3
		c0,0.3,0.2,0.4,0.5,0.4h0c1.4,0,2.6-0.6,3.6-1.6c1-1,1.5-2.2,1.5-3.6C25.6,16,25.4,15.2,24.9,14.3z"/>
	<path d="M16.6,23.9c-0.2,0.2-0.3,0.5-0.3,0.8c0,0.3,0.1,0.6,0.3,0.7c0.2,0.2,0.5,0.3,0.8,0.3c0.3,0,0.6-0.1,0.8-0.3
		c0.2-0.2,0.3-0.5,0.3-0.8c0-0.3-0.1-0.6-0.3-0.8C17.7,23.5,17.1,23.5,16.6,23.9z"/>
	<path d="M14.3,18.6c-0.2,0.2-0.3,0.5-0.3,0.8c0,0.3,0.1,0.6,0.3,0.8c0.2,0.2,0.5,0.3,0.8,0.3c0.3,0,0.6-0.1,0.8-0.3
		c0.2-0.2,0.3-0.5,0.3-0.8c0-0.3-0.1-0.6-0.3-0.8C15.4,18.2,14.8,18.1,14.3,18.6z"/>
</g>
</svg>
