<?xml version="1.0" encoding="utf-8"?>
<!-- Generator: Adobe Illustrator 22.0.1, SVG Export Plug-In . SVG Version: 6.00 Build 0)  -->
<svg version="1.1" id="Layer_1" xmlns="http://www.w3.org/2000/svg" xmlns:xlink="http://www.w3.org/1999/xlink" x="0px" y="0px"
	 viewBox="0 0 30 30" style="enable-background:new 0 0 30 30;" xml:space="preserve">
<path d="M22.4,9.4c-0.8-0.8-1.9-1.3-3.1-1.3h-0.1c-0.3-1.1-0.9-2-1.8-2.6c-0.9-0.7-2-1.1-3.2-1.1c-1.2,0-2.3,0.4-3.2,1.1
	c-0.9,0.7-1.5,1.6-1.8,2.8C8.4,8.6,7.6,9.1,7,9.8c-0.6,0.8-0.9,1.7-0.9,2.7c0,1.1,0.4,2.1,1.2,3c0.7,0.8,1.6,1.2,2.7,1.3v0h1.4
	c0.2,0.5,0.5,0.8,0.9,1.1c-0.1,0.3-0.2,0.6-0.2,1c0,0.6,0.2,1.2,0.7,1.7c0.4,0.4,0.9,0.6,1.5,0.7c0,0.1,0,0.2,0,0.3
	c0,0.6,0.2,1,0.6,1.4c0.4,0.4,0.9,0.6,1.4,0.6c0.5,0,1-0.2,1.4-0.6c0.4-0.4,0.6-0.9,0.6-1.4c0-0.3-0.1-0.7-0.3-1
	c0.5-0.1,1-0.4,1.4-0.8c0.5-0.4,0.8-1,0.9-1.6c0.6-0.2,1-0.5,1.4-0.9c0.4-0.5,0.6-1,0.6-1.7c0.4-0.4,0.8-0.8,1-1.4
	c0.3-0.6,0.4-1.2,0.4-1.8C23.6,11.3,23.2,10.3,22.4,9.4z M17.9,10.5c0.4-0.3,0.9-0.4,1.4-0.4c0.7,0,1.3,0.2,1.9,0.8
	c0.5,0.5,0.8,1.1,0.8,1.8c0,0.4-0.1,0.9-0.3,1.3c-0.2,0.4-0.5,0.7-0.9,1L20.6,15v0.1c0,0.5-0.2,0.9-0.5,1.3
	c-0.4,0.4-0.8,0.5-1.3,0.5c-0.5,0-1-0.2-1.3-0.6l-0.2-0.2l-0.2,0.2c-0.6,0.6-1.2,0.8-2,0.8c-0.7,0-1.3-0.2-1.9-0.7
	c-0.5-0.5-0.8-1-1-1.7l-0.1-0.3l-0.3,0.2c-0.4,0.2-0.8,0.3-1.2,0.3c-0.7,0-1.3-0.3-1.9-0.8C8.2,13.6,8,13,8,12.2
	c0-0.7,0.3-1.3,0.8-1.9c0.5-0.5,1.1-0.8,1.9-0.8H11l0-0.2c0-0.9,0.4-1.6,1-2.2c0.6-0.6,1.4-0.9,2.3-0.9c0.9,0,1.7,0.3,2.3,0.9
	c0.6,0.6,1,1.4,1,2.3c0,0.3,0,0.5-0.1,0.7l-0.2,0.6L17.9,10.5z"/>
</svg>
