<?xml version="1.0" encoding="utf-8"?>
<!-- Generator: Adobe Illustrator 22.0.1, SVG Export Plug-In . SVG Version: 6.00 Build 0)  -->
<svg version="1.1" id="Layer_1" xmlns="http://www.w3.org/2000/svg" xmlns:xlink="http://www.w3.org/1999/xlink" x="0px" y="0px"
	 viewBox="0 0 30 30" style="enable-background:new 0 0 30 30;" xml:space="preserve">
<g>
	<path d="M18.2,4.6c0.2,0.2,0.5,0.3,0.8,0.3c0.3,0,0.6-0.1,0.8-0.3c0.2-0.2,0.3-0.5,0.3-0.8V1.8c0-0.3-0.1-0.6-0.3-0.8
		c-0.4-0.4-1.2-0.4-1.6,0c-0.2,0.2-0.3,0.5-0.3,0.8v2.3h0C18,4.3,18.1,4.4,18.2,4.6z"/>
	<path d="M24.5,7.2c0.3,0,0.5-0.1,0.8-0.3l1.4-1.4c0.2-0.2,0.3-0.5,0.3-0.8c0-0.3-0.1-0.6-0.3-0.8c-0.4-0.4-1.1-0.4-1.5,0l-1.5,1.5
		c-0.2,0.2-0.3,0.5-0.3,0.8c0,0.3,0.1,0.6,0.3,0.8C24,7.1,24.2,7.2,24.5,7.2z"/>
	<path d="M12,6.1c0.2,0.2,0.5,0.3,0.8,0.3c0.3,0,0.5-0.1,0.8-0.3c0.2-0.2,0.3-0.5,0.3-0.8c0-0.3-0.1-0.6-0.3-0.8l-0.6-0.6
		c-0.4-0.5-1.2-0.4-1.6,0C11.1,4.1,11,4.4,11,4.7c0,0.3,0.1,0.6,0.3,0.8L12,6.1z"/>
	<path d="M3.8,19h18.7c0.3,0,0.6-0.1,0.8-0.3c0.2-0.2,0.3-0.5,0.3-0.8c0-0.3-0.1-0.6-0.3-0.8c-0.2-0.2-0.5-0.3-0.8-0.3H3.8
		c-0.3,0-0.6,0.1-0.8,0.3c-0.2,0.2-0.3,0.5-0.3,0.8c0,0.3,0.1,0.6,0.3,0.8C3.2,18.9,3.5,19,3.8,19z"/>
	<path d="M29.6,10.8c-0.2-0.2-0.5-0.3-0.8-0.3h-2.1c-0.3,0-0.6,0.1-0.8,0.3c-0.2,0.2-0.3,0.5-0.3,0.8c0,0.3,0.1,0.6,0.3,0.8
		c0.2,0.2,0.5,0.3,0.8,0.3h2.1c0.3,0,0.6-0.1,0.8-0.3c0.2-0.2,0.3-0.5,0.3-0.8C29.9,11.3,29.8,11,29.6,10.8z"/>
	<path d="M26.1,17.1c-0.5-0.4-1.2-0.4-1.5,0c-0.2,0.2-0.3,0.5-0.3,0.8c0,0.3,0.1,0.6,0.3,0.8l0.6,0.7c0.2,0.2,0.5,0.3,0.8,0.3
		c0.3,0,0.5-0.1,0.8-0.3c0.2-0.2,0.3-0.5,0.3-0.8c0-0.3-0.1-0.5-0.3-0.7L26.1,17.1z"/>
	<path d="M3.2,15.9h1.4c0.2,0,0.3-0.1,0.4-0.3c0.2-0.5,0.5-0.9,1-1.2c0.4-0.3,0.9-0.5,1.4-0.5L8,13.8c0.3,0,0.4-0.2,0.4-0.4l0.1-0.5
		c0.1-1,0.5-1.9,1.3-2.5c0.8-0.7,1.7-1,2.7-1c1,0,1.9,0.3,2.7,1c0.8,0.7,1.2,1.5,1.3,2.5l0.1,0.5c0,0.3,0.2,0.4,0.4,0.4h1.6
		c0.6,0,1.1,0.2,1.6,0.5c0.5,0.3,0.8,0.7,1.1,1.3c0,0.1,0.2,0.3,0.4,0.3h1.4c0.2,0,0.3-0.1,0.3-0.1c0.1-0.1,0.1-0.2,0-0.4l-0.2-0.4
		c0.7-0.9,1.1-2.1,1.1-3.4c0-0.7-0.1-1.4-0.4-2.1c-0.3-0.7-0.7-1.2-1.2-1.7c-0.5-0.5-1.1-0.9-1.8-1.2c-0.7-0.3-1.4-0.4-2.1-0.4
		c-1.5,0-2.9,0.5-3.9,1.6c-0.8-0.4-1.7-0.6-2.6-0.6c-1.5,0-2.8,0.5-3.9,1.4c-1.1,0.9-1.8,2-2.2,3.4c-1.8,0.5-3,1.7-3.6,3.4
		c0,0.1,0,0.1,0,0.2C2.8,15.7,2.9,15.9,3.2,15.9z M16.9,9c0.6-0.5,1.3-0.8,2.1-0.8c0.9,0,1.7,0.3,2.3,1c0.6,0.6,1,1.4,1,2.3
		c0,0.5-0.1,1-0.3,1.4c-0.9-0.8-2.1-1.3-3.4-1.3h-0.1C18.2,10.7,17.7,9.8,16.9,9z M3.1,15.5L3.1,15.5L3.1,15.5L3.1,15.5z"/>
	<path d="M20.7,21.8c0.2-0.2,0.3-0.5,0.3-0.8c0-0.3-0.1-0.6-0.3-0.8c-0.2-0.2-0.5-0.3-0.8-0.3H1.2c-0.3,0-0.6,0.1-0.8,0.3
		c-0.2,0.2-0.3,0.5-0.3,0.8c0,0.3,0.1,0.6,0.3,0.8c0.2,0.2,0.5,0.3,0.8,0.3h18.7C20.2,22.1,20.5,22,20.7,21.8z"/>
	<path d="M24.3,23.1H5.5c-0.3,0-0.6,0.1-0.8,0.3c-0.2,0.2-0.3,0.5-0.3,0.8c0,0.3,0.1,0.6,0.3,0.8c0.2,0.2,0.5,0.3,0.8,0.3h18.7
		c0.3,0,0.6-0.1,0.8-0.3s0.3-0.5,0.3-0.8c0-0.3-0.1-0.6-0.3-0.8C24.8,23.2,24.6,23.1,24.3,23.1z"/>
</g>
</svg>
