<?xml version="1.0" encoding="utf-8"?>
<!-- Generator: Adobe Illustrator 22.0.1, SVG Export Plug-In . SVG Version: 6.00 Build 0)  -->
<svg version="1.1" id="Layer_1" xmlns="http://www.w3.org/2000/svg" xmlns:xlink="http://www.w3.org/1999/xlink" x="0px" y="0px"
	 viewBox="0 0 30 30" style="enable-background:new 0 0 30 30;" xml:space="preserve">
<g>
	<path d="M21.6,8.3c0.3,0,0.6-0.1,0.9-0.3l1.7-1.7c0.2-0.2,0.3-0.5,0.3-0.9c0-0.3-0.1-0.6-0.4-0.9c-0.5-0.5-1.2-0.5-1.7,0l-1.6,1.6
		c-0.2,0.2-0.3,0.5-0.3,0.9c0,0.3,0.1,0.6,0.3,0.9C21,8.2,21.3,8.3,21.6,8.3z"/>
	<path d="M8.1,8C8.4,8.2,8.7,8.3,9,8.3c0.3,0,0.6-0.1,0.9-0.3c0.2-0.2,0.4-0.5,0.4-0.9c0-0.3-0.1-0.6-0.4-0.9L8.2,4.6
		C8,4.3,7.7,4.2,7.4,4.2C7,4.2,6.7,4.3,6.5,4.6C6.3,4.8,6.2,5.1,6.2,5.5c0,0.3,0.1,0.6,0.3,0.8L8.1,8z"/>
	<path d="M15.3,5.7c0.3,0,0.6-0.1,0.9-0.4c0.2-0.2,0.4-0.5,0.4-0.9V2.1c0-0.3-0.1-0.6-0.4-0.8c-0.5-0.4-1.3-0.5-1.7,0
		c-0.2,0.2-0.4,0.5-0.4,0.8v2.3c0,0.3,0.1,0.6,0.4,0.9C14.7,5.6,15,5.7,15.3,5.7z"/>
	<path d="M22.5,18.8c-0.4-0.4-1.3-0.4-1.7,0c-0.2,0.2-0.3,0.5-0.3,0.9c0,0.3,0.1,0.6,0.3,0.9l1.6,1.6c0.3,0.3,0.5,0.4,0.8,0.4
		c0.3,0,0.6-0.1,0.9-0.4c0.2-0.2,0.3-0.5,0.3-0.9c0-0.3-0.1-0.6-0.3-0.8L22.5,18.8z"/>
	<path d="M6.6,14.3C6.9,14,7,13.8,7,13.4c0-0.4-0.1-0.7-0.4-0.9c-0.2-0.2-0.5-0.3-0.9-0.3H4.1c-0.4,0-0.7,0.1-0.9,0.3
		c-0.2,0.2-0.4,0.5-0.4,0.9c0,0.3,0.1,0.6,0.4,0.9c0.2,0.2,0.5,0.3,0.9,0.3h1.7C6.1,14.6,6.4,14.5,6.6,14.3z"/>
	<path d="M26.8,12.5c-0.2-0.2-0.5-0.3-0.9-0.3h-1.7c-0.4,0-0.7,0.1-0.9,0.3c-0.2,0.2-0.4,0.5-0.4,0.9c0,0.3,0.1,0.6,0.4,0.9
		c0.2,0.2,0.5,0.3,0.9,0.3h1.7c0.3,0,0.6-0.1,0.9-0.3c0.2-0.2,0.4-0.5,0.4-0.8C27.2,13.1,27,12.8,26.8,12.5z"/>
	<path d="M20.8,16.4c0.5-0.9,0.8-1.9,0.8-3c0-0.8-0.2-1.7-0.5-2.4s-0.8-1.4-1.3-2c-0.6-0.6-1.2-1-2-1.3c-0.8-0.3-1.6-0.5-2.4-0.5
		c-1.1,0-2.2,0.3-3.1,0.8c-1,0.6-1.7,1.3-2.3,2.3c-0.5,0.9-0.8,2-0.8,3.1v0.2c-0.9,0.6-1.6,1.4-1.9,2.4c-0.7,0.3-1.4,0.7-1.8,1.3
		c-0.5,0.7-0.7,1.4-0.7,2.2c0,1,0.4,1.9,1.1,2.7c0.8,0.8,1.7,1.1,2.7,1.1h6.9c1,0,1.9-0.4,2.7-1.1c0.7-0.7,1.1-1.7,1.1-2.7
		c0-0.4-0.1-0.8-0.2-1.1C19.7,17.9,20.3,17.2,20.8,16.4z M13.4,17.2l0.1,0.6l0,0.1c0.1,0.3,0.4,0.4,0.5,0.4h1.3
		c0.4,0,0.7,0.1,0.9,0.4c0.3,0.3,0.4,0.6,0.4,0.9c0,0.4-0.1,0.7-0.4,1C16,20.9,15.6,21,15.3,21H8.4c-0.4,0-0.7-0.1-1-0.4
		c-0.3-0.3-0.4-0.6-0.4-1c0-0.4,0.1-0.7,0.3-0.9c0.2-0.3,0.5-0.4,0.9-0.4l0.6-0.1c0.3,0,0.5-0.2,0.4-0.4l0.1-0.6
		c0.1-0.5,0.3-0.9,0.7-1.3c0.4-0.3,0.8-0.5,1.3-0.5c0.5,0,1,0.2,1.3,0.5C13.1,16.2,13.3,16.7,13.4,17.2z M14,13.8
		c-0.7-0.5-1.6-0.8-2.5-0.8c0.1-0.9,0.5-1.7,1.2-2.3c0.7-0.7,1.6-1.1,2.6-1.1c1,0,1.9,0.4,2.7,1.1c0.7,0.7,1.1,1.7,1.1,2.7
		c0,0.7-0.2,1.3-0.5,1.8c-0.3,0.5-0.7,0.9-1.2,1.3c-0.5-0.4-1.2-0.6-1.9-0.7C15.3,15,14.7,14.3,14,13.8z"/>
</g>
</svg>
