<?xml version="1.0" encoding="utf-8"?>
<!-- Generator: Adobe Illustrator 22.0.1, SVG Export Plug-In . SVG Version: 6.00 Build 0)  -->
<svg version="1.1" id="Layer_1" xmlns="http://www.w3.org/2000/svg" xmlns:xlink="http://www.w3.org/1999/xlink" x="0px" y="0px"
	 viewBox="0 0 30 30" style="enable-background:new 0 0 30 30;" xml:space="preserve">
<g>
	<path d="M10.7,6.1c0.3,0.2,0.5,0.3,0.7,0.3c0,0,0,0,0.1,0c0.3,0,0.5-0.1,0.7-0.3c0.2-0.2,0.3-0.5,0.3-0.8c0-0.3-0.1-0.6-0.3-0.8
		l-0.6-0.7c-0.5-0.4-1.2-0.4-1.6,0C9.8,4.1,9.7,4.3,9.7,4.6c0,0.3,0.1,0.6,0.3,0.8L10.7,6.1z"/>
	<path d="M23.3,7.2c0.2,0,0.5-0.1,0.8-0.3l1.4-1.4c0.2-0.2,0.3-0.5,0.3-0.8c0-0.3-0.1-0.6-0.3-0.8c-0.4-0.4-1.2-0.4-1.5,0l-1.5,1.5
		c-0.2,0.2-0.3,0.5-0.3,0.8c0,0.3,0.1,0.6,0.3,0.8C22.8,7.1,23,7.2,23.3,7.2z"/>
	<path d="M17.8,4.9c0.3,0,0.6-0.1,0.8-0.3c0.2-0.2,0.3-0.5,0.3-0.8v-2c0-0.3-0.1-0.6-0.3-0.8c-0.2-0.2-0.5-0.3-0.8-0.3
		c-0.3,0-0.5,0.1-0.8,0.3c-0.2,0.2-0.3,0.5-0.3,0.8v2c0,0.3,0.1,0.6,0.3,0.8C17.2,4.8,17.4,4.9,17.8,4.9z"/>
	<path d="M28.4,10.8c-0.2-0.2-0.5-0.3-0.8-0.3h-2c-0.3,0-0.6,0.1-0.8,0.3c-0.2,0.2-0.3,0.5-0.3,0.8c0,0.3,0.1,0.6,0.3,0.8
		c0.2,0.2,0.5,0.3,0.8,0.3h2c0.3,0,0.5-0.1,0.8-0.3c0.2-0.2,0.3-0.5,0.3-0.8C28.7,11.3,28.6,11,28.4,10.8z"/>
	<path d="M24.9,17.1c-0.4-0.4-1.1-0.4-1.5,0c-0.2,0.2-0.3,0.5-0.3,0.8c0,0.3,0.1,0.6,0.3,0.8l0.6,0.6c0.2,0.2,0.5,0.3,0.8,0.3
		c0.3,0,0.6-0.1,0.8-0.3c0.2-0.2,0.3-0.5,0.3-0.8c0-0.3-0.1-0.6-0.3-0.8L24.9,17.1z"/>
	<path d="M23.2,11.6c0-0.7-0.1-1.5-0.4-2.1c-0.3-0.7-0.7-1.2-1.2-1.8c-0.5-0.5-1.1-0.9-1.7-1.2c-0.7-0.3-1.4-0.4-2.1-0.4
		c-1.5,0-2.8,0.6-3.9,1.7c-0.8-0.4-1.7-0.6-2.7-0.6c-1.5,0-2.8,0.5-3.9,1.4c-1.1,0.9-1.8,2-2.1,3.3c-1.1,0.3-2,0.9-2.7,1.8
		c-0.7,0.9-1.1,2-1.1,3.2c0,0.9,0.2,1.8,0.7,2.6c0.5,0.8,1.1,1.4,1.9,1.9c0.8,0.5,1.7,0.7,2.6,0.7h10.8c0.9,0,1.8-0.2,2.6-0.7
		c0.8-0.5,1.4-1.1,1.9-1.9c0.5-0.8,0.7-1.7,0.7-2.6c0-0.6-0.1-1.3-0.4-2C22.9,14,23.2,12.9,23.2,11.6z M15.7,13.9h1.6
		c0.8,0,1.5,0.3,2.1,0.9c0.6,0.6,0.9,1.3,0.9,2.1c0,0.8-0.3,1.5-0.9,2.1c-0.6,0.6-1.3,0.9-2.1,0.9H6.5c-0.8,0-1.5-0.3-2.1-0.9
		c-0.6-0.6-0.9-1.3-0.9-2.1c0-0.8,0.3-1.4,0.8-2c0.5-0.6,1.2-0.9,1.9-1l0.5,0c0.3,0,0.4-0.2,0.4-0.4L7.2,13c0.1-1,0.6-1.9,1.3-2.6
		c0.7-0.7,1.6-1,2.6-1c1,0,1.9,0.3,2.7,1c0.8,0.7,1.2,1.5,1.3,2.6l0.1,0.6C15.3,13.8,15.5,13.9,15.7,13.9z M15.7,9.1
		c0.6-0.5,1.3-0.8,2.1-0.8c0.9,0,1.7,0.3,2.3,1c0.7,0.7,1,1.4,1,2.3c0,0.5-0.1,1-0.3,1.4c-1-0.9-2.1-1.3-3.4-1.3h-0.1
		C16.9,10.8,16.4,9.9,15.7,9.1z"/>
</g>
</svg>
