<?xml version="1.0" encoding="utf-8"?>
<!-- Generator: Adobe Illustrator 22.0.1, SVG Export Plug-In . SVG Version: 6.00 Build 0)  -->
<svg version="1.1" id="Layer_1" xmlns="http://www.w3.org/2000/svg" xmlns:xlink="http://www.w3.org/1999/xlink" x="0px" y="0px"
	 viewBox="0 0 30 30" style="enable-background:new 0 0 30 30;" xml:space="preserve">
<g>
	<path d="M17.4,13.1L17.4,13.1c-0.4-1.1-1-2-1.9-2.7c-1-0.8-2.1-1.1-3.3-1.1c-1.3,0-2.4,0.4-3.4,1.2c-0.9,0.7-1.5,1.7-1.8,2.9
		C6,13.5,5.2,14,4.6,14.8c-0.7,0.8-1,1.8-1,2.8c0,0.6,0.1,1.2,0.4,1.8c0.2,0.6,0.6,1,1,1.4c0.4,0.4,0.8,0.7,1.4,0.9
		c0.5,0.2,1.1,0.4,1.8,0.4h9.3c1.2,0,2.3-0.4,3.2-1.3c0.9-0.9,1.3-2,1.3-3.2c0-1.2-0.4-2.3-1.3-3.2C19.7,13.5,18.7,13.1,17.4,13.1z
		 M20,17.6c0,0.7-0.2,1.3-0.8,1.8c-0.5,0.5-1.1,0.7-1.8,0.7H8.1c-0.7,0-1.3-0.3-1.8-0.7s-0.7-1.1-0.7-1.8c0-0.6,0.2-1.2,0.6-1.7
		c0.5-0.5,1-0.8,1.7-0.8L8.3,15c0.2,0,0.4-0.2,0.4-0.4l0.1-0.4c0.1-0.9,0.5-1.6,1.1-2.2c0.7-0.6,1.4-0.9,2.3-0.9
		c0.9,0,1.6,0.3,2.3,0.9c0.6,0.6,1,1.3,1.1,2.2l0.1,0.5c0,0.2,0.2,0.4,0.4,0.4h1.4c0.7,0,1.3,0.2,1.8,0.8C19.7,16.3,20,16.9,20,17.6
		z"/>
	<path d="M25.2,11.7c-0.8-0.8-1.7-1.2-2.8-1.2c-0.3-1-0.9-1.8-1.7-2.4c-0.9-0.7-1.9-1-3-1C16.2,7,15,7.6,14,8.7
		C13.9,8.8,13.9,9,13.9,9c0,0.1,0.1,0.2,0.3,0.3c0.4,0.2,0.8,0.4,1,0.5l0.1,0c0.3,0.1,0.4,0,0.5-0.1C16.3,9.3,16.9,9,17.7,9
		c0.7,0,1.4,0.2,1.9,0.7c0.5,0.5,0.8,1.1,0.9,1.9l0.1,0.9h1.6c0.6,0,1.1,0.2,1.5,0.6c0.4,0.4,0.6,0.9,0.6,1.5c0,0.5-0.2,1-0.6,1.4
		c-0.4,0.4-0.8,0.6-1.3,0.7c-0.2,0-0.4,0.2-0.4,0.4v1.1c0,0.2,0.2,0.4,0.4,0.4h0c1.1-0.1,2-0.5,2.7-1.3c0.7-0.8,1.1-1.7,1.1-2.8
		C26.3,13.4,25.9,12.5,25.2,11.7z M14.2,8.9L14.2,8.9L14.2,8.9L14.2,8.9z"/>
</g>
</svg>
