<?xml version="1.0" encoding="utf-8"?>
<!-- Generator: Adobe Illustrator 22.0.1, SVG Export Plug-In . SVG Version: 6.00 Build 0)  -->
<svg version="1.1" id="Layer_1" xmlns="http://www.w3.org/2000/svg" xmlns:xlink="http://www.w3.org/1999/xlink" x="0px" y="0px"
	 viewBox="0 0 30 30" style="enable-background:new 0 0 30 30;" xml:space="preserve">
<g>
	<path d="M12.8,22.4c-0.6,0-0.9,0.3-1.1,0.8c-0.4,0.2-1,0.3-1.8,0.3c-0.7,0-1.3-0.1-1.7-0.3C8,22.7,7.6,22.4,7,22.4
		c-0.3,0-0.6,0.1-0.8,0.4C6,23,5.9,23.3,5.9,23.6c0,0.7,0.4,1.3,1.2,1.7c0.8,0.4,1.7,0.5,2.8,0.5c1.1,0,2.1-0.2,2.8-0.5
		c1-0.5,1.2-1.2,1.2-1.7c0-0.3-0.1-0.6-0.4-0.8C13.3,22.5,13.1,22.4,12.8,22.4z"/>
	<path d="M26.1,7.3c0-1-0.5-1.8-1.6-2.5c-2-1.3-4.9-2-8.7-2c-1.8,0-3.4,0.2-4.9,0.5C9.3,3.6,8,4.1,7.1,4.8C6,5.5,5.5,6.4,5.5,7.3
		c0,0.5,0.1,0.9,0.4,1.3c-1.1,0.7-1.7,1.5-1.7,2.5c0,0.7,0.3,1.4,0.9,1.9c-0.8,0.6-1.3,1.3-1.3,2.1c0,0.8,0.4,1.4,1.2,2
		c0.3,0.2,0.7,0.5,1.1,0.6c-0.2,0-0.5,0-0.7,0.2c-0.7,0.5-1,1-1,1.7c0,0.8,0.5,1.5,1.5,1.9c0.9,0.4,2.1,0.6,3.5,0.6
		c1.4,0,2.6-0.2,3.5-0.6c1-0.5,1.5-1.1,1.5-1.9c0-0.3-0.1-0.6-0.3-0.9c-0.2-0.2-0.5-0.3-0.8-0.4c0.4,0,0.8-0.1,1.2-0.2
		c1.1-0.2,2-0.6,2.7-1.1c0.8-0.6,1.1-1.2,1.1-2c0-0.1,0-0.3-0.1-0.4c1.3-0.3,2.3-0.8,3.1-1.4c0.9-0.6,1.3-1.4,1.3-2.2
		c0-0.1,0-0.3,0-0.4C25,9.9,26.1,8.7,26.1,7.3z M15.8,9.5c-2,0-3.7-0.2-5.1-0.6C9.4,8.5,8.6,8.1,8.1,7.7C7.9,7.5,7.9,7.4,7.9,7.3
		c0-0.1,0-0.2,0.3-0.4c0.4-0.4,1.3-0.8,2.6-1.2c1.4-0.4,3.1-0.6,5.1-0.6c2,0,3.7,0.2,5.1,0.6c1.3,0.4,2.2,0.8,2.6,1.2
		c0.2,0.2,0.3,0.4,0.3,0.4c0,0.1,0,0.2-0.3,0.4c-0.4,0.4-1.3,0.8-2.6,1.2C19.5,9.3,17.8,9.5,15.8,9.5z M8.6,16
		c-0.8-0.2-1.4-0.4-1.8-0.6c-0.2-0.1-0.3-0.1-0.4-0.2c0,0,0,0,0,0c0.1-0.1,0.2-0.2,0.5-0.3c0.2-0.1,0.5-0.2,1-0.4l0,0
		c1.6,0.5,3.5,0.8,5.6,0.8c0.9,0,1.7,0,2.5-0.1c-0.1,0.1-0.2,0.2-0.4,0.2c-0.4,0.2-1,0.4-1.8,0.5C12.1,16.3,10.1,16.3,8.6,16z
		 M6.6,11.2c0,0,0,0,0.1-0.1c0.1-0.2,0.5-0.5,1.2-0.8c1.9,1,4.6,1.5,7.9,1.5c1.5,0,3-0.1,4.4-0.4c0,0,0,0,0,0
		c-0.4,0.3-1.1,0.7-2.2,1c-1.2,0.4-2.7,0.5-4.5,0.5c-1.8,0-3.3-0.2-4.5-0.5c-1.1-0.3-1.9-0.6-2.2-1C6.6,11.3,6.6,11.2,6.6,11.2z
		 M12.6,18.8c-0.2,0.2-0.3,0.4-0.4,0.6c-0.2,0.1-0.5,0.2-0.9,0.3c-0.5,0.1-1.1,0.2-1.8,0.2c-0.9,0-1.7-0.1-2.3-0.3
		c0.1-0.1,0.1-0.3,0.1-0.5c0-0.3,0-0.5-0.2-0.8C7,18.2,6.9,18.1,6.8,18c1.2,0.4,2.6,0.6,4.3,0.6c0.7,0,1.3,0,1.9-0.1
		C12.9,18.6,12.7,18.6,12.6,18.8z"/>
</g>
</svg>
