<?xml version="1.0" encoding="utf-8"?>
<!-- Generator: Adobe Illustrator 22.0.1, SVG Export Plug-In . SVG Version: 6.00 Build 0)  -->
<svg version="1.1" id="Layer_1" xmlns="http://www.w3.org/2000/svg" xmlns:xlink="http://www.w3.org/1999/xlink" x="0px" y="0px"
	 viewBox="0 0 30 30" style="enable-background:new 0 0 30 30;" xml:space="preserve">
<g>
	<path d="M20.6,10.3c0.3,0,0.6-0.1,0.8-0.3l1.5-1.4c0.2-0.2,0.3-0.5,0.3-0.8c0-0.3-0.1-0.6-0.3-0.8c-0.4-0.4-1.1-0.4-1.6,0l-1.5,1.5
		c-0.2,0.2-0.3,0.5-0.3,0.8c0,0.3,0.1,0.6,0.3,0.8C20,10.2,20.3,10.3,20.6,10.3z"/>
	<path d="M7.1,13.6H5c-0.3,0-0.6,0.1-0.8,0.3c-0.2,0.2-0.3,0.5-0.3,0.8c0,0.3,0.1,0.6,0.3,0.8c0.2,0.2,0.5,0.3,0.8,0.3h2.1
		c0.3,0,0.6-0.1,0.8-0.3s0.3-0.5,0.3-0.8c0-0.3-0.1-0.6-0.3-0.8C7.7,13.8,7.4,13.6,7.1,13.6z"/>
	<path d="M15,8c0.3,0,0.6-0.1,0.8-0.3c0.2-0.2,0.3-0.5,0.3-0.8V4.9c0-0.3-0.1-0.6-0.3-0.8c-0.4-0.4-1.2-0.4-1.6,0
		c-0.2,0.2-0.3,0.5-0.3,0.8v2.1c0,0.3,0.1,0.6,0.4,0.8C14.4,7.9,14.7,8,15,8z"/>
	<path d="M10.5,9.2c0-0.3-0.1-0.6-0.3-0.8L8.7,6.9C8.5,6.7,8.2,6.6,8,6.6C7.7,6.6,7.4,6.7,7.1,7C6.9,7.2,6.8,7.4,6.8,7.7
		c0,0.3,0.1,0.6,0.3,0.8L8.6,10c0.2,0.2,0.5,0.3,0.8,0.3c0.3,0,0.6-0.1,0.8-0.3C10.4,9.8,10.5,9.5,10.5,9.2z"/>
	<path d="M19.5,18.1c0-0.2,0.2-0.3,0.4-0.5c0.4-0.2,0.6-0.5,0.6-0.9v-0.1c0-0.1,0-0.1,0-0.1c0,0,0,0,0,0c0-0.1-0.1-0.2-0.1-0.3
		c-0.2-0.3-0.6-0.5-1-0.5c-0.2,0-0.3,0-0.5,0.1l-0.3,0.2c-0.1,0.1-0.2,0.1-0.3,0.3c-0.1,0.1-0.3,0.2-0.4,0.4
		c-0.1,0.1-0.3,0.3-0.4,0.6c-0.1,0.2-0.2,0.5-0.2,0.7c-0.1,0.5,0,1,0.3,1.5c0.2,0.4,0.6,0.8,1,1.2c0.4,0.4,0.6,0.8,0.6,1.1
		c0,0.1-0.1,0.3-0.1,0.4c-0.1,0.1-0.2,0.3-0.2,0.3c-0.1,0-0.1,0.1-0.1,0.1l-0.1,0c-0.3,0.2-0.4,0.4-0.4,0.7c0,0.3,0.1,0.6,0.2,0.8
		c0.2,0.3,0.5,0.4,0.9,0.4c0.1,0,0.2,0,0.2,0c0.2,0,0.3-0.1,0.6-0.2c0.1-0.1,0.2-0.1,0.3-0.2l0.4-0.4c0.2-0.2,0.4-0.5,0.5-0.8
		c0.1-0.3,0.2-0.6,0.2-1c0.1-1-0.4-1.9-1.3-2.7C19.7,18.7,19.5,18.4,19.5,18.1z"/>
	<path d="M25.8,14c-0.2-0.2-0.5-0.3-0.8-0.3h-2.1c-0.3,0-0.6,0.1-0.8,0.3c-0.2,0.2-0.3,0.5-0.3,0.8c0,0.3,0.1,0.6,0.3,0.8
		c0.2,0.2,0.5,0.3,0.8,0.3H25c0.3,0,0.6-0.1,0.8-0.3c0.2-0.2,0.3-0.5,0.3-0.8C26.1,14.5,26,14.2,25.8,14z"/>
	<path d="M16.2,19.1c0,0-0.1-0.1-0.2-0.2c0,0-0.1-0.1-0.2-0.3c-0.1-0.1-0.1-0.2-0.1-0.3c0,0,0-0.1,0-0.2c0-0.2,0.2-0.4,0.4-0.5
		c0.3-0.1,0.5-0.4,0.6-0.7l0-0.1c0-0.1,0-0.1,0-0.2l0-0.1c-0.1-0.3-0.2-0.5-0.5-0.7L16,15.8l-0.2-0.1c-0.3-0.1-0.7,0-1,0.1l-0.1,0.1
		c-0.1,0.1-0.2,0.1-0.3,0.3c-0.1,0.1-0.3,0.2-0.4,0.4c-0.1,0.1-0.3,0.3-0.4,0.6c-0.1,0.3-0.2,0.5-0.2,0.7c0,0.1,0,0.1,0,0.2
		c0,0.7,0.2,1.4,0.8,2.2c0.1,0.1,0.3,0.3,0.5,0.4c0.4,0.4,0.6,0.8,0.6,1l0,0.2l-0.1,0.2L15,22.3l-0.2,0.2c0,0-0.1,0.1-0.1,0.1l0,0
		c-0.2,0.2-0.4,0.4-0.4,0.7c0,0.3,0,0.6,0.2,0.8c0,0.1,0.1,0.1,0.2,0.2l0.2,0.1h0.1c0.1,0,0.1,0,0.1,0c0.1,0,0.1,0,0.3,0l0.3,0
		c0,0,0.1,0,0.3-0.1l0.1-0.1c0.1,0,0.2-0.1,0.3-0.2c0.1-0.1,0.2-0.3,0.4-0.4c0.2-0.2,0.3-0.5,0.5-0.8c0.1-0.3,0.2-0.6,0.2-1
		c0.1-0.7-0.2-1.5-0.8-2.2C16.5,19.5,16.3,19.3,16.2,19.1z M16.3,16.9C16.3,16.9,16.3,16.9,16.3,16.9L16.3,16.9L16.3,16.9z"/>
	<path d="M9.6,16.3L10,16c0.1-0.1,0.2-0.1,0.2-0.2c0.1-0.1,0.1-0.1,0.2-0.2l0.1-0.1c0,0,0.1,0,0.1-0.1c0,0,0.1-0.1,0.1-0.1
		c0.2-0.1,0.5-0.2,0.7-0.2l0.2,0v-0.4c0-0.9,0.3-1.7,1-2.3c0.7-0.7,1.4-1,2.4-1c0.9,0,1.7,0.3,2.4,1c0.7,0.6,1,1.4,1,2.3
		c0,0.1,0,0.2,0,0.3l-0.1,0.4l0.4-0.2c0.5-0.2,1.1-0.2,1.5,0.1l0.3,0.2l0.1-0.4c0-0.1,0-0.3,0-0.5c0-1-0.2-1.9-0.7-2.8
		c-0.5-0.8-1.2-1.5-2-2C16.9,9.5,16,9.2,15,9.2c-0.7,0-1.5,0.2-2.2,0.5c-0.7,0.3-1.3,0.7-1.8,1.2c-0.5,0.5-0.9,1.1-1.2,1.8
		c-0.3,0.7-0.5,1.4-0.5,2.1c0,0.4,0,0.8,0.1,1.1L9.6,16.3z"/>
	<path d="M12.2,19L12.2,19c-0.2-0.2-0.3-0.3-0.3-0.4c0-0.1-0.1-0.2-0.1-0.3v-0.1c0,0,0,0,0,0l0-0.1c0,0,0,0,0.1-0.1c0,0,0,0,0.1-0.1
		l0.1-0.1c0,0,0.1,0,0.1-0.1l0.2-0.1c0.1-0.1,0.2-0.2,0.3-0.3c0.1-0.2,0.2-0.4,0.2-0.6c0-0.2-0.1-0.4-0.2-0.6
		c-0.1-0.1-0.2-0.3-0.4-0.3l0,0c-0.1,0-0.1-0.1-0.2-0.1c-0.2-0.1-0.7-0.1-1,0.1l-0.1,0.1c-0.1,0-0.1,0.1-0.2,0.1l-0.2,0.1
		c0,0,0,0,0,0l-0.1,0.1c0,0,0,0.1-0.1,0.1c-0.1,0.1-0.1,0.2-0.3,0.3c-0.3,0.4-0.4,0.7-0.5,1.1c0,0.2,0,0.3,0,0.4v0.2
		c0,0,0,0.1,0,0.2c0,0.1,0,0.2,0.1,0.3c0.1,0.3,0.2,0.6,0.4,0.8c0,0.1,0.1,0.1,0.1,0.2l0.1,0.2c0.1,0.1,0.2,0.2,0.4,0.4l0.1,0.1
		c0,0,0,0,0.1,0.1c0,0,0.1,0.1,0.1,0.2c0,0,0.1,0.1,0.1,0.1c0.1,0.1,0.1,0.2,0.2,0.3c0.1,0.2,0.1,0.3,0.1,0.5c0,0,0,0.1,0,0.1l0,0.1
		c0,0,0,0,0,0.1c0,0,0,0.1-0.1,0.1c0,0,0,0.1-0.1,0.1c0,0,0,0.1-0.1,0.1c0,0,0,0-0.1,0.1c0,0-0.1,0-0.1,0.1c0,0-0.1,0-0.1,0.1l0,0
		c-0.2,0.2-0.4,0.4-0.4,0.7c0,0.3,0.1,0.6,0.2,0.8c0.2,0.3,0.5,0.4,0.9,0.4c0,0,0.1,0,0.2,0l0.1,0c0.1,0,0.2,0,0.3-0.1
		c0,0,0.1,0,0.1-0.1l0.1,0c0.1-0.1,0.2-0.1,0.3-0.2c0.1-0.1,0.2-0.2,0.4-0.4c0.2-0.2,0.3-0.5,0.5-0.8c0.1-0.3,0.2-0.6,0.2-1
		c0.1-1-0.4-1.9-1.3-2.7C12.2,19,12.2,18.9,12.2,19z M12,24.1C12,24.1,12,24.1,12,24.1L12,24.1L12,24.1z"/>
</g>
</svg>
