<?xml version="1.0" encoding="utf-8"?>
<!-- Generator: Adobe Illustrator 22.0.1, SVG Export Plug-In . SVG Version: 6.00 Build 0)  -->
<svg version="1.1" id="Layer_1" xmlns="http://www.w3.org/2000/svg" xmlns:xlink="http://www.w3.org/1999/xlink" x="0px" y="0px"
	 viewBox="0 0 30 30" style="enable-background:new 0 0 30 30;" xml:space="preserve">
<g>
	<path d="M8.8,19.3l-1.5,1.4C7.1,21,7,21.3,7,21.5c0,0.3,0.1,0.6,0.3,0.8c0.2,0.2,0.5,0.3,0.8,0.3c0.3,0,0.5-0.1,0.8-0.3l1.4-1.4
		c0.2-0.2,0.3-0.5,0.3-0.8c0-0.3-0.1-0.6-0.3-0.8C9.9,18.9,9.1,18.9,8.8,19.3z"/>
	<path d="M8,15.4c0.2-0.2,0.3-0.5,0.3-0.8c0-0.3-0.1-0.6-0.3-0.8c-0.2-0.2-0.5-0.3-0.8-0.3h-2c-0.3,0-0.6,0.1-0.8,0.3
		c-0.2,0.2-0.3,0.5-0.3,0.8c0,0.3,0.1,0.6,0.3,0.8c0.2,0.2,0.5,0.3,0.8,0.3h2C7.6,15.7,7.8,15.6,8,15.4z"/>
	<path d="M20.5,10.2c0.3,0,0.5-0.1,0.8-0.3l1.5-1.4C22.9,8.3,23,8,23,7.7c0-0.3-0.1-0.6-0.3-0.8c-0.4-0.4-1.1-0.5-1.6,0l-1.4,1.5
		c-0.2,0.2-0.3,0.5-0.3,0.8c0,0.3,0.1,0.6,0.3,0.8C19.9,10.1,20.2,10.2,20.5,10.2z"/>
	<path d="M15,8c0.3,0,0.6-0.1,0.8-0.3c0.2-0.2,0.3-0.5,0.3-0.8v-2c0-0.3-0.1-0.6-0.3-0.8c-0.4-0.4-1.1-0.4-1.6,0
		c-0.2,0.2-0.3,0.5-0.3,0.8v2c0,0.3,0.1,0.6,0.3,0.8C14.4,7.9,14.7,8,15,8z"/>
	<path d="M8.7,9.9c0.2,0.2,0.5,0.3,0.8,0.3c0.3,0,0.6-0.1,0.8-0.3c0.2-0.2,0.3-0.5,0.3-0.8c0-0.3-0.1-0.6-0.3-0.8L8.9,6.9
		c-0.4-0.4-1.1-0.4-1.6,0C7.1,7.2,7,7.4,7,7.7C7,8,7.1,8.3,7.3,8.5L8.7,9.9z"/>
	<path d="M14.2,21.6c-0.2,0.2-0.3,0.5-0.3,0.8v2c0,0.3,0.1,0.6,0.3,0.8c0.2,0.2,0.5,0.3,0.8,0.3c0.3,0,0.6-0.1,0.8-0.3
		s0.3-0.5,0.3-0.8v-2c0-0.3-0.1-0.6-0.3-0.8C15.4,21.2,14.7,21.2,14.2,21.6z"/>
	<path d="M25.5,13.8c-0.2-0.2-0.5-0.3-0.8-0.3h-2c-0.3,0-0.5,0.1-0.8,0.3c-0.2,0.2-0.3,0.5-0.3,0.8c0,0.3,0.1,0.5,0.3,0.8
		c0.2,0.2,0.5,0.3,0.8,0.3h2c0.3,0,0.6-0.1,0.8-0.3c0.2-0.2,0.3-0.5,0.3-0.8C25.9,14.3,25.7,14.1,25.5,13.8z"/>
	<path d="M21.2,19.3c-0.4-0.4-1.1-0.4-1.5,0c-0.2,0.2-0.3,0.4-0.3,0.7c0,0.3,0.1,0.6,0.3,0.8l1.4,1.4c0.2,0.2,0.5,0.3,0.7,0.3
		c0.3,0,0.5-0.1,0.8-0.3c0.2-0.2,0.3-0.5,0.3-0.8s-0.1-0.6-0.3-0.8L21.2,19.3z"/>
	<path d="M20.4,14.6c0-0.7-0.1-1.4-0.4-2.1c-0.3-0.7-0.7-1.2-1.2-1.7c-0.5-0.5-1.1-0.9-1.7-1.2c-0.7-0.3-1.4-0.4-2.1-0.4
		c-1,0-1.9,0.2-2.7,0.7c-0.8,0.5-1.5,1.2-2,2c-0.5,0.8-0.7,1.7-0.7,2.7c0,1,0.2,1.9,0.7,2.7c0.5,0.8,1.2,1.5,2,2
		c0.8,0.5,1.7,0.7,2.7,0.7s1.9-0.2,2.7-0.7c0.8-0.5,1.5-1.2,2-2C20.2,16.5,20.4,15.6,20.4,14.6z M18.3,14.6c0,0.9-0.3,1.7-1,2.3
		c-0.7,0.7-1.4,1-2.3,1c-0.9,0-1.7-0.3-2.3-1c-0.6-0.6-1-1.4-1-2.3c0-0.9,0.3-1.7,1-2.3c0.6-0.6,1.4-0.9,2.3-0.9
		c0.9,0,1.7,0.3,2.3,0.9C18,13,18.3,13.7,18.3,14.6z"/>
</g>
</svg>
