<?xml version="1.0" encoding="utf-8"?>
<!-- Generator: Adobe Illustrator 22.0.1, SVG Export Plug-In . SVG Version: 6.00 Build 0)  -->
<svg version="1.1" id="Layer_1" xmlns="http://www.w3.org/2000/svg" xmlns:xlink="http://www.w3.org/1999/xlink" x="0px" y="0px"
	 viewBox="0 0 30 30" style="enable-background:new 0 0 30 30;" xml:space="preserve">
<g>
	<path d="M7.3,12.6h2c0.3,0,0.6-0.1,0.8-0.3c0.2-0.2,0.3-0.5,0.3-0.8c0-0.3-0.1-0.6-0.3-0.8c-0.2-0.2-0.5-0.3-0.8-0.3h-2
		c-0.3,0-0.6,0.1-0.8,0.3c-0.2,0.2-0.3,0.5-0.3,0.8c0,0.3,0.1,0.6,0.3,0.8C6.7,12.5,7,12.6,7.3,12.6z"/>
	<path d="M12.6,16c0.3,0,0.6-0.1,0.8-0.3c0.2-0.2,0.3-0.5,0.3-0.8c0-0.3-0.1-0.6-0.3-0.8c-0.2-0.2-0.5-0.3-0.8-0.3H3.2
		c-0.3,0-0.6,0.1-0.8,0.3c-0.2,0.2-0.3,0.5-0.3,0.8s0.1,0.6,0.3,0.8C2.6,15.8,2.9,16,3.2,16H12.6z"/>
	<path d="M10.8,6.9c0.2,0.2,0.5,0.3,0.8,0.3c0.3,0,0.6-0.1,0.8-0.3c0.2-0.2,0.3-0.5,0.3-0.8c0-0.3-0.1-0.6-0.3-0.8l-1.4-1.5
		c-0.4-0.4-1.1-0.4-1.6,0C9.2,4.1,9.1,4.3,9.1,4.6c0,0.3,0.1,0.6,0.3,0.8L10.8,6.9z"/>
	<path d="M12.9,19.9H3.5c-0.3,0-0.6,0.1-0.8,0.3c-0.2,0.2-0.3,0.5-0.3,0.8c0,0.3,0.1,0.6,0.3,0.8c0.2,0.2,0.5,0.3,0.8,0.3h9.4
		c0.3,0,0.6-0.1,0.8-0.3S14,21.3,14,21c0-0.3-0.1-0.6-0.3-0.8C13.5,20,13.2,19.9,12.9,19.9z"/>
	<path d="M22.5,7.2c0.3,0,0.5-0.1,0.8-0.3l1.5-1.4c0.2-0.2,0.3-0.5,0.3-0.8c0-0.3-0.1-0.6-0.3-0.8c-0.4-0.4-1-0.5-1.6,0l-1.4,1.5
		c-0.2,0.2-0.3,0.4-0.3,0.8c0,0.3,0.1,0.6,0.3,0.8C22,7.1,22.2,7.2,22.5,7.2z"/>
	<path d="M17.1,4.9c0.3,0,0.5-0.1,0.8-0.3c0.2-0.2,0.3-0.5,0.3-0.8v-2c0-0.3-0.1-0.6-0.3-0.8c-0.4-0.4-1.1-0.4-1.5,0
		C16.1,1.2,16,1.5,16,1.8v2.1c0,0.3,0.1,0.6,0.3,0.8C16.5,4.8,16.8,4.9,17.1,4.9z"/>
	<path d="M23.3,16.3c-0.4-0.4-1.2-0.4-1.5,0c-0.2,0.2-0.3,0.4-0.3,0.7c0,0.3,0.1,0.6,0.3,0.8l1.4,1.5c0.2,0.2,0.5,0.3,0.7,0.3
		c0.3,0,0.5-0.1,0.8-0.3c0.2-0.2,0.3-0.5,0.3-0.8c0-0.3-0.1-0.6-0.3-0.8L23.3,16.3z"/>
	<path d="M27.6,10.8c-0.2-0.2-0.5-0.3-0.8-0.3h-2c-0.3,0-0.5,0.1-0.7,0.3c-0.2,0.2-0.3,0.5-0.3,0.8s0.1,0.6,0.3,0.8
		c0.2,0.2,0.5,0.3,0.8,0.3h2c0.3,0,0.6-0.1,0.8-0.3c0.2-0.2,0.3-0.5,0.3-0.8S27.8,11,27.6,10.8z"/>
	<path d="M14.3,16.8H4.9c-0.3,0-0.6,0.1-0.8,0.3c-0.2,0.2-0.3,0.5-0.3,0.8c0,0.3,0.1,0.6,0.3,0.8C4.3,18.9,4.6,19,4.9,19h9.4
		c0.3,0,0.5-0.1,0.8-0.3c0.2-0.2,0.3-0.5,0.3-0.8c0-0.3-0.1-0.6-0.3-0.8C14.9,16.9,14.6,16.8,14.3,16.8z"/>
	<path d="M22.5,11.5c0-0.7-0.1-1.4-0.4-2.1c-0.3-0.7-0.7-1.2-1.2-1.7c-0.5-0.5-1.1-0.9-1.7-1.2c-0.7-0.3-1.4-0.4-2.1-0.4
		c-1,0-1.9,0.2-2.7,0.7c-0.8,0.5-1.5,1.1-2,1.9c-0.5,0.8-0.8,1.7-0.8,2.7v0.1c0,0.2,0,0.3,0.1,0.4c0.1,0.1,0.2,0.1,0.3,0.1h1.1
		c0.2,0,0.3-0.1,0.4-0.2c0.1-0.1,0.1-0.2,0.1-0.3c0-0.9,0.4-1.6,1-2.2c0.6-0.6,1.4-0.9,2.3-0.9c0.9,0,1.7,0.3,2.3,0.9
		c0.7,0.6,1,1.4,1,2.3c0,0.9-0.3,1.7-1,2.3c-0.6,0.6-1.4,1-2.3,1h-0.2c-0.3,0-0.5,0.2-0.5,0.4v1.2c0,0.1,0.1,0.3,0.2,0.4
		c0.1,0.1,0.2,0.1,0.4,0.1h0.2c1,0,1.9-0.3,2.7-0.7c0.8-0.5,1.5-1.1,2-2C22.3,13.4,22.5,12.5,22.5,11.5z"/>
	<path d="M16.3,18.5C16.1,18.8,16,19,16,19.3v2c0,0.3,0.1,0.6,0.3,0.8c0.2,0.2,0.5,0.3,0.8,0.3c0.3,0,0.6-0.1,0.8-0.3
		s0.3-0.5,0.3-0.8v-2c0-0.3-0.1-0.6-0.3-0.8C17.4,18.1,16.7,18.1,16.3,18.5z"/>
</g>
</svg>
