<?xml version="1.0" encoding="utf-8"?>
<!-- Generator: Adobe Illustrator 22.0.1, SVG Export Plug-In . SVG Version: 6.00 Build 0)  -->
<svg version="1.1" id="Layer_1" xmlns="http://www.w3.org/2000/svg" xmlns:xlink="http://www.w3.org/1999/xlink" x="0px" y="0px"
	 viewBox="0 0 30 30" style="enable-background:new 0 0 30 30;" xml:space="preserve">
<g>
	<path d="M1.2,19.1h11c0.8,0,1.5-0.3,2.1-0.9c0.6-0.6,0.9-1.3,0.9-2.1c0-0.8-0.3-1.5-0.9-2.1c-0.6-0.6-1.3-0.8-2.1-0.8
		c-0.8,0-1.5,0.3-2.1,0.8c-0.2,0.2-0.3,0.5-0.3,0.8c0,0.3,0.1,0.6,0.3,0.8c0.4,0.4,1.1,0.4,1.6,0c0.3-0.3,0.7-0.3,1,0
		c0.1,0.1,0.2,0.3,0.2,0.5c0,0.2-0.1,0.4-0.2,0.5c-0.1,0.1-0.3,0.2-0.5,0.2h-11c-0.3,0-0.6,0.1-0.8,0.3c-0.2,0.2-0.3,0.5-0.3,0.8
		c0,0.3,0.1,0.5,0.3,0.7C0.7,19,0.9,19.1,1.2,19.1z"/>
	<path d="M11.9,6c0.2,0.2,0.5,0.3,0.8,0.3c0.3,0,0.6-0.1,0.8-0.3c0.2-0.2,0.3-0.5,0.3-0.8c0-0.3-0.1-0.6-0.3-0.8l-0.7-0.6
		c-0.4-0.5-1.1-0.4-1.6,0c-0.2,0.2-0.3,0.5-0.3,0.8c0,0.3,0.1,0.6,0.3,0.8L11.9,6z"/>
	<path d="M19,4.9c0.3,0,0.6-0.1,0.8-0.3c0.2-0.2,0.3-0.5,0.3-0.8v-2c0-0.3-0.1-0.6-0.3-0.8c-0.4-0.4-1.2-0.4-1.6,0
		c-0.2,0.2-0.3,0.5-0.3,0.8v2c0,0.3,0.1,0.6,0.3,0.8C18.4,4.8,18.7,4.9,19,4.9z"/>
	<path d="M24.5,7.2C24.5,7.2,24.5,7.2,24.5,7.2c0.3,0,0.6-0.1,0.8-0.3l1.5-1.4C26.9,5.2,27,4.9,27,4.6c0-0.3-0.1-0.6-0.3-0.8
		c-0.4-0.4-1.2-0.4-1.6,0l-1.4,1.5c-0.2,0.2-0.3,0.5-0.3,0.8c0,0.3,0.1,0.6,0.3,0.8C23.9,7,24.2,7.2,24.5,7.2z"/>
	<path d="M26.1,17.1c-0.4-0.4-1.2-0.4-1.6,0c-0.2,0.2-0.3,0.5-0.3,0.8c0,0.3,0.1,0.6,0.3,0.8l0.7,0.7c0.2,0.2,0.5,0.3,0.8,0.3
		c0.2,0,0.5-0.1,0.8-0.3c0.2-0.2,0.3-0.5,0.3-0.8c0-0.3-0.1-0.5-0.3-0.8L26.1,17.1z"/>
	<path d="M29.6,10.8c-0.2-0.2-0.5-0.3-0.8-0.3h-2c-0.3,0-0.6,0.1-0.8,0.3c-0.2,0.2-0.3,0.5-0.3,0.8c0,0.3,0.1,0.6,0.3,0.8
		c0.2,0.2,0.4,0.4,0.8,0.4h2c0.3,0,0.6-0.1,0.8-0.3s0.3-0.5,0.3-0.8C29.9,11.3,29.8,11,29.6,10.8z"/>
	<path d="M24.5,11.5c0-1-0.3-1.9-0.7-2.7c-0.5-0.8-1.2-1.5-2-2C20.9,6.3,20,6,19,6c-1.5,0-2.9,0.6-3.9,1.7c-0.8-0.4-1.7-0.6-2.6-0.6
		c-1.5,0-2.8,0.5-3.9,1.4c-1.1,0.9-1.8,2-2.1,3.3c-0.8,0.2-1.6,0.6-2.2,1.3c-0.7,0.7-1.2,1.4-1.4,2.3l0,0c0,0.1-0.1,0.1-0.1,0.2
		c0,0.2,0.1,0.4,0.4,0.4h1.4c0.2,0,0.3-0.2,0.4-0.2l0-0.1c0.2-0.5,0.5-0.9,1-1.2c0.4-0.3,0.9-0.5,1.5-0.6L8,13.9
		c0.3,0,0.4-0.2,0.4-0.4l0.1-0.5c0.1-1,0.5-1.9,1.3-2.5c0.8-0.7,1.6-1,2.7-1c1,0,1.9,0.3,2.7,1c0.8,0.7,1.2,1.5,1.3,2.6l0.1,0.6
		c0,0.3,0.2,0.4,0.4,0.4h1.6c0.8,0,1.5,0.3,2.1,0.9c0.6,0.6,0.9,1.3,0.9,2.1c0,0.8-0.3,1.5-0.9,2.1s-1.3,0.9-2.1,0.9h-6.9
		c-0.3,0-0.4,0.2-0.4,0.4v1.4c0,0.3,0.2,0.4,0.4,0.4h6.9c0.9,0,1.8-0.2,2.6-0.7c0.8-0.5,1.4-1.1,1.9-1.9c0.5-0.8,0.7-1.7,0.7-2.6
		c0-0.7-0.1-1.4-0.4-2C24.1,13.9,24.5,12.8,24.5,11.5z M22.3,11.6c0,0.5-0.1,1-0.3,1.4c-1-0.8-2.1-1.3-3.4-1.3h-0.1
		c-0.2-1-0.8-1.9-1.6-2.7c0.6-0.5,1.3-0.8,2.1-0.8c0.9,0,1.7,0.3,2.3,1C22,9.9,22.3,10.7,22.3,11.6z"/>
	<path d="M7.1,19.9H1.2c-0.3,0-0.6,0.1-0.8,0.3c-0.2,0.2-0.3,0.5-0.3,0.8c0,0.3,0.1,0.6,0.3,0.8c0.2,0.2,0.5,0.3,0.8,0.3h5.9
		c0.2,0,0.4,0.1,0.5,0.2c0.1,0.1,0.2,0.3,0.2,0.5c0,0.2-0.1,0.4-0.2,0.5c-0.3,0.3-0.7,0.3-1,0c-0.5-0.4-1.2-0.4-1.6,0
		c-0.2,0.2-0.3,0.5-0.3,0.8s0.1,0.6,0.3,0.8c0.6,0.6,1.3,0.9,2.1,0.9c0.8,0,1.5-0.3,2.1-0.9c0.6-0.6,0.9-1.3,0.9-2.1
		s-0.3-1.5-0.9-2.1C8.6,20.2,7.9,19.9,7.1,19.9z"/>
</g>
</svg>
