<?xml version="1.0" encoding="utf-8"?>
<!-- Generator: Adobe Illustrator 22.0.1, SVG Export Plug-In . SVG Version: 6.00 Build 0)  -->
<svg version="1.1" id="Layer_1" xmlns="http://www.w3.org/2000/svg" xmlns:xlink="http://www.w3.org/1999/xlink" x="0px" y="0px"
	 viewBox="0 0 30 30" style="enable-background:new 0 0 30 30;" xml:space="preserve">
<g>
	<path d="M15.5,19.9c-0.3-0.1-0.6,0-0.8,0.1c-0.3,0.2-0.4,0.4-0.5,0.7l-0.2,1c0,0.2,0,0.3,0,0.3c0,0.2,0.1,0.4,0.2,0.6
		c0.1,0.2,0.3,0.3,0.6,0.4c0.1,0,0.2,0.1,0.4,0.1c0.2,0,0.3,0,0.5-0.1c0.3-0.1,0.4-0.4,0.5-0.7l0.3-1c0.1-0.3,0-0.6-0.1-0.8
		C16.1,20.1,15.8,20,15.5,19.9z"/>
	<path d="M14.2,24.7c-0.3-0.1-0.6,0-0.8,0.1c-0.3,0.2-0.4,0.4-0.5,0.7l-0.3,1.1c0,0.2,0,0.2,0,0.2l0,0c0,0.2,0.1,0.4,0.2,0.6
		c0.1,0.2,0.3,0.3,0.6,0.4l0.1,0c0.1,0,0.2,0,0.2,0c0.1,0,0.3,0,0.5-0.1c0.3-0.1,0.5-0.4,0.6-0.7l0.3-1c0.1-0.3,0-0.6-0.1-0.8
		C14.7,24.9,14.5,24.7,14.2,24.7z"/>
	<path d="M18.4,21.6c-0.3-0.1-0.6,0-0.9,0.1c-0.3,0.2-0.4,0.4-0.5,0.7l-0.3,1c0,0.1,0,0.2,0,0.3c0,0.2,0.1,0.4,0.2,0.6
		c0.1,0.2,0.3,0.4,0.6,0.5l0.1,0l0-0.2c0,0,0,0,0,0l0,0.3c0,0,0.1,0,0.1,0c0.2,0,0.3,0,0.5-0.1c0.2-0.1,0.4-0.3,0.6-0.7l0.2-1
		c0.1-0.3,0.1-0.6-0.1-0.8C18.9,21.9,18.7,21.7,18.4,21.6z"/>
	<path d="M20.5,18.1c0-0.2,0-0.2,0-0.3c0-0.2-0.1-0.4-0.2-0.6c-0.1-0.2-0.4-0.4-0.7-0.4l0,0.2c0,0,0,0,0,0l0-0.1l0-0.1
		c-0.1-0.1-0.2-0.1-0.2-0.1c-0.2,0-0.4,0.1-0.6,0.2c-0.2,0.1-0.4,0.3-0.4,0.6l-0.3,1l0,0.1c0,0.1,0,0.1,0,0.2c0,0.2,0.1,0.4,0.2,0.6
		c0.1,0.2,0.3,0.3,0.6,0.5C19,20,19.1,20,19.2,20s0.3,0,0.4-0.1c0.3-0.1,0.5-0.4,0.6-0.7L20.5,18.1z"/>
	<path d="M24.9,14.3c-0.5-0.8-1.1-1.4-1.9-1.9c-0.8-0.5-1.7-0.7-2.6-0.7h-0.1c-0.4-1.3-1.1-2.4-2.1-3.2c-1.1-0.9-2.4-1.3-3.8-1.3
		c-1.5,0-2.8,0.5-3.9,1.4c-1.1,0.9-1.8,2-2.2,3.4c-1.1,0.3-2,0.9-2.7,1.8c-0.8,0.9-1.1,2-1.1,3.2c0,1.2,0.4,2.2,1,3.1
		c0.6,0.8,1.5,1.4,2.4,1.8l-0.6,1.5c0,0.2,0,0.3,0.1,0.4c0.1,0.1,0.2,0.1,0.3,0.1h1.8l-1,3.8h0.7l4-5.3c0.1-0.1,0.1-0.3,0.1-0.4
		c0-0.1-0.1-0.2-0.4-0.2h-1.8l2.3-4.3c0.1-0.2,0.1-0.3,0-0.4c-0.1-0.1-0.2-0.2-0.4-0.2h-2.9c-0.2,0-0.3,0.1-0.5,0.3l-1,2.7
		c-0.6-0.2-1-0.5-1.4-1c-0.4-0.5-0.6-1.2-0.6-1.9c0-0.8,0.3-1.4,0.8-2c0.5-0.6,1.2-0.9,1.9-1l0.5-0.1c0.3,0,0.5-0.2,0.4-0.4l0.1-0.5
		c0.1-1,0.5-1.9,1.3-2.6c0.8-0.7,1.7-1,2.7-1c1,0,1.9,0.3,2.7,1c0.8,0.7,1.2,1.5,1.3,2.6l0.1,0.6c0,0.3,0.2,0.4,0.4,0.4h1.6
		c0.8,0,1.5,0.3,2.1,0.9c0.6,0.6,0.9,1.3,0.9,2.1c0,0.8-0.3,1.5-0.8,2c-0.5,0.6-1.2,0.9-2,1c-0.3,0-0.5,0.2-0.5,0.4v1.4
		c0,0.3,0.2,0.4,0.5,0.4h0c0.7,0,1.3-0.2,2-0.5c0.6-0.3,1.2-0.7,1.6-1.1c0.4-0.5,0.8-1,1.1-1.6c0.3-0.6,0.4-1.3,0.4-2
		C25.6,16,25.4,15.1,24.9,14.3z"/>
</g>
</svg>
