<?xml version="1.0" encoding="utf-8"?>
<!-- Generator: Adobe Illustrator 22.0.1, SVG Export Plug-In . SVG Version: 6.00 Build 0)  -->
<svg version="1.1" id="Layer_1" xmlns="http://www.w3.org/2000/svg" xmlns:xlink="http://www.w3.org/1999/xlink" x="0px" y="0px"
	 viewBox="0 0 30 30" style="enable-background:new 0 0 30 30;" xml:space="preserve">
<g>
	<path d="M17.8,21.5c-0.3-0.1-0.6,0-0.9,0.1c-0.3,0.2-0.4,0.4-0.5,0.7l-0.3,1.1l0,0.1c0,0.1,0,0.2,0,0.2v0c0,0.2,0.1,0.4,0.2,0.6
		c0.1,0.2,0.4,0.3,0.6,0.4c0.2,0,0.3,0.1,0.4,0.1c0.3,0,0.7-0.1,1-0.9l0.2-1c0.1-0.3,0.1-0.6-0.1-0.8C18.4,21.8,18.2,21.6,17.8,21.5
		z"/>
	<path d="M15,19.9c-0.3-0.1-0.6-0.1-0.8,0.1c-0.3,0.2-0.4,0.4-0.5,0.7l-0.2,1c0,0.1-0.1,0.2-0.1,0.4c0,0.6,0.3,0.9,0.8,1
		c0.2,0,0.3,0.1,0.3,0.1c0.3,0,0.8-0.1,1-0.8l0.3-1c0.1-0.3,0-0.6-0.1-0.8C15.6,20.1,15.3,20,15,19.9z"/>
	<path d="M13.7,24.6c-0.3-0.1-0.6,0-0.8,0.1c-0.3,0.2-0.4,0.4-0.5,0.7l-0.3,1l0,0.3c0,0.2,0.1,0.4,0.2,0.6c0.1,0.2,0.3,0.4,0.6,0.4
		l0.2,0c0.1,0,0.1,0,0.2,0c0.1,0,0.3,0,0.5-0.1c0.3-0.1,0.5-0.4,0.6-0.7l0.3-1c0.1-0.3,0-0.6-0.1-0.8C14.2,24.9,14,24.7,13.7,24.6z"
		/>
	<path d="M20,18.1c0-0.1,0-0.1,0-0.3c0-0.2,0-0.4-0.2-0.6c-0.1-0.2-0.4-0.4-0.6-0.4l-0.1,0c-0.1,0-0.1,0-0.2,0
		c-0.2,0-0.4,0.1-0.6,0.2c-0.2,0.1-0.4,0.3-0.4,0.6l-0.3,1l0,0.2c0,0,0,0.1,0,0.1l0,0.1c0,0.5,0.3,0.9,0.9,1.1l0.1,0
		c0.1,0,0.2,0,0.2,0c0.3,0,0.8-0.1,1-0.8L20,18.1z"/>
	<path d="M25.8,10.7l-0.6-0.2c-0.5-0.2-1-0.4-1.4-0.8c-0.4-0.4-0.6-0.7-0.8-1.1c-0.2-0.4-0.2-0.8-0.2-1.2c0-0.3,0-0.5,0.1-0.8L23,6
		c0-0.2-0.1-0.4-0.3-0.5l-0.8-0.2c-0.5-0.1-0.9-0.1-1.3-0.1h0c-0.4,0-0.8,0-1.2,0.1c-0.4,0.1-0.8,0.2-1.2,0.4
		c-0.4,0.2-0.8,0.5-1.2,0.8c-0.3,0.3-0.7,0.7-0.9,1.1c-0.8-0.3-1.5-0.4-2.3-0.4c-1.5,0-2.8,0.5-3.9,1.4c-1.1,0.9-1.8,2-2.2,3.3
		c-1.1,0.3-2,0.9-2.7,1.8c-0.7,0.9-1.1,2-1.1,3.2c0,1.2,0.4,2.2,1,3.1c0.6,0.8,1.5,1.4,2.5,1.8l-0.6,1.5c0,0.2,0,0.3,0,0.4
		c0.1,0.1,0.1,0.1,0.3,0.1h1.8L7.6,28h0.7l4.3-5.7c0.1-0.1,0.1-0.3,0.1-0.4c-0.1-0.1-0.2-0.2-0.4-0.2h-1.8l2.3-4.3
		c0.1-0.2,0.1-0.3,0-0.4c0-0.1-0.2-0.2-0.4-0.2h-3c-0.1,0-0.3,0-0.5,0.3l-1,2.7c-0.6-0.2-1-0.5-1.4-1C6.3,18.2,6,17.6,6,16.9
		c0-0.8,0.3-1.4,0.8-2c0.5-0.6,1.2-0.9,2-1l0.5-0.1c0.3,0,0.5-0.2,0.4-0.4l0.1-0.5c0.1-1,0.5-1.9,1.3-2.6c0.8-0.7,1.7-1,2.7-1
		c1,0,1.9,0.3,2.7,1c0.8,0.7,1.2,1.5,1.3,2.6l0.1,0.5c0,0.3,0.2,0.4,0.4,0.4h1.6c0.8,0,1.5,0.3,2.2,0.9c0.6,0.6,0.9,1.3,0.9,2.1
		c0,0.8-0.3,1.5-0.8,2c-0.6,0.6-1.2,0.9-2,1c-0.3,0-0.4,0.2-0.4,0.4v1.4c0,0.3,0.2,0.4,0.4,0.4c0,0,0,0,0,0c1.4,0,2.6-0.6,3.6-1.6
		c1-1,1.5-2.2,1.5-3.6c0-0.9-0.2-1.6-0.6-2.4c0.7-0.8,1.2-1.6,1.4-2.6l0.2-0.7c0-0.1,0-0.1,0-0.2C26.2,11,26.1,10.8,25.8,10.7z
		 M21,9.3c0.2,0.6,0.6,1.2,1.1,1.7c0.4,0.5,0.9,0.9,1.5,1.2c-0.1,0.2-0.3,0.4-0.4,0.6c-0.9-0.7-2-1.1-3.2-1.1h-0.1
		c-0.3-1.2-0.9-2.2-1.8-3c0.3-0.4,0.7-0.8,1.1-1c0.5-0.3,1.1-0.4,1.6-0.4v0.1C20.7,8,20.8,8.7,21,9.3z"/>
</g>
</svg>
