<?xml version="1.0" encoding="utf-8"?>
<!-- Generator: Adobe Illustrator 22.0.1, SVG Export Plug-In . SVG Version: 6.00 Build 0)  -->
<svg version="1.1" id="Layer_1" xmlns="http://www.w3.org/2000/svg" xmlns:xlink="http://www.w3.org/1999/xlink" x="0px" y="0px"
	 viewBox="0 0 30 30" style="enable-background:new 0 0 30 30;" xml:space="preserve">
<g>
	<path d="M11.3,19.9c0.1,0,0.2,0,0.3,0c0.2,0,0.4,0,0.5-0.1c0.2-0.1,0.4-0.4,0.5-0.7l0.3-1c0.1-0.3,0.1-0.6-0.1-0.8
		c-0.2-0.3-0.4-0.4-0.7-0.5c-0.3-0.1-0.6,0-0.9,0.1c-0.3,0.1-0.4,0.4-0.5,0.7l-0.3,1c0,0.2-0.1,0.3-0.1,0.4c0,0.2,0,0.3,0.1,0.5
		C10.7,19.7,11,19.8,11.3,19.9z"/>
	<path d="M10.9,21.6c-0.3-0.1-0.6,0-0.8,0.1c-0.2,0.1-0.4,0.4-0.5,0.7l-0.2,1l0,0.2c0,0.1,0,0.1,0,0.2c0,0.2,0.1,0.4,0.2,0.6
		c0.1,0.2,0.3,0.3,0.6,0.4c0.1,0,0.2,0.1,0.3,0.1c0.2,0,0.3,0,0.5-0.1c0.3-0.1,0.4-0.4,0.5-0.7l0.3-1c0.1-0.3,0.1-0.6-0.1-0.8
		C11.4,21.8,11.2,21.7,10.9,21.6z"/>
	<path d="M13.4,24.7c-0.3-0.1-0.6,0-0.9,0.1c-0.3,0.2-0.4,0.4-0.5,0.7l-0.2,1c0,0.1,0,0.2,0,0.3c0,0.2,0.1,0.4,0.2,0.6
		c0.1,0.2,0.3,0.4,0.6,0.4c0.1,0,0.2,0.1,0.3,0.1c0.1,0,0.3,0,0.5-0.1c0.3-0.1,0.5-0.3,0.6-0.7l0.3-1c0.1-0.3,0.1-0.6-0.1-0.8
		C14,25,13.7,24.8,13.4,24.7z"/>
	<path d="M26,11.8l0.2-1l-1-0.3c-0.7-0.2-1.3-0.6-1.8-1.3c-0.4-0.6-0.6-1.2-0.6-1.9c0-0.2,0-0.5,0.1-0.7l0.3-1l-1.3-0.4
		c-0.5-0.1-0.9-0.1-1.3-0.1c-0.4,0-0.8,0-1.2,0.1c-0.4,0.1-0.8,0.2-1.2,0.4c-0.5,0.2-0.9,0.5-1.3,0.8c-0.4,0.3-0.7,0.7-0.9,1.1
		c-0.7-0.3-1.5-0.4-2.3-0.4c-1.5,0-2.8,0.5-3.9,1.4c-1.1,0.9-1.8,2-2.1,3.3c-1.1,0.3-2,0.9-2.8,1.8c-0.8,0.9-1.1,2-1.1,3.2
		c0,1.4,0.5,2.6,1.5,3.6c1,1,2.2,1.5,3.6,1.6c0.2,0,0.4-0.2,0.4-0.4v-1.4c0-0.3-0.2-0.4-0.4-0.4c0,0,0,0,0,0c-0.8-0.1-1.5-0.4-2-1
		c-0.5-0.6-0.8-1.3-0.8-2c0-0.8,0.3-1.4,0.8-2c0.5-0.6,1.2-0.9,1.9-1l0.5-0.1c0.3,0,0.5-0.2,0.4-0.4l0.1-0.5c0.1-1,0.5-1.9,1.3-2.5
		c0.8-0.7,1.6-1,2.7-1c1,0,1.9,0.3,2.7,1c0.8,0.7,1.2,1.5,1.3,2.6l0.1,0.5c0,0.3,0.2,0.4,0.4,0.4h1.6c0.8,0,1.5,0.3,2.1,0.9
		c0.6,0.6,0.9,1.3,0.9,2.1c0,0.8-0.3,1.5-0.8,2c-0.5,0.6-1.2,0.9-2,1c-0.3,0-0.4,0.2-0.4,0.4v1.4c0,0.3,0.2,0.4,0.5,0.4h0
		c1.4,0,2.6-0.6,3.6-1.6c1-1,1.4-2.2,1.4-3.6c0-0.8-0.2-1.6-0.6-2.4C25.3,13.8,25.8,12.9,26,11.8L26,11.8z M21.5,10.2
		c0.5,0.8,1.2,1.5,2,1.9c-0.1,0.2-0.3,0.5-0.5,0.7c-0.9-0.7-2-1.1-3.2-1.1h-0.1c-0.3-1.1-0.9-2.1-1.8-3c0.3-0.4,0.7-0.8,1.1-1
		c0.5-0.3,1.1-0.4,1.6-0.4c0,0,0,0.1,0,0.1C20.7,8.4,20.9,9.4,21.5,10.2z"/>
	<path d="M19.6,17.4c-0.1-0.2-0.4-0.4-0.7-0.5c-0.3-0.1-0.6-0.1-0.8,0.1c-0.2,0.2-0.4,0.4-0.5,0.7l-0.3,1c0,0.1-0.1,0.3-0.1,0.3
		c0,0.2,0.1,0.4,0.2,0.6c0.1,0.2,0.3,0.3,0.6,0.4l0.1,0c0.1,0,0.1,0,0.1,0c0.1,0,0.3,0,0.5-0.1c0.3-0.1,0.5-0.3,0.6-0.7l0.3-1
		C19.8,17.9,19.8,17.6,19.6,17.4z"/>
	<path d="M17.6,21.6c-0.3-0.1-0.6-0.1-0.8,0.1c-0.2,0.2-0.4,0.4-0.5,0.7l-0.3,1l0,0.1c0,0.1,0,0.2,0,0.2c0,0.3,0.1,0.8,0.8,1
		c0.1,0,0.2,0,0.3,0c0.2,0,0.3,0,0.5-0.1c0.2-0.1,0.5-0.3,0.6-0.7l0.3-1c0.1-0.3,0-0.6-0.1-0.9C18.1,21.8,17.9,21.7,17.6,21.6z"/>
	<path d="M14.8,19.9c-0.3-0.1-0.6,0-0.9,0.1c-0.3,0.1-0.4,0.4-0.5,0.7l-0.2,1l0,0.3c0,0.2,0.1,0.4,0.2,0.6c0.1,0.2,0.3,0.3,0.6,0.4
		c0.1,0,0.2,0.1,0.3,0.1c0.2,0,0.3,0,0.5-0.1c0.3-0.1,0.4-0.4,0.5-0.7l0.3-1c0.1-0.3,0.1-0.6-0.1-0.8C15.3,20.2,15.1,20,14.8,19.9z"
		/>
</g>
</svg>
