<?xml version="1.0" encoding="utf-8"?>
<!-- Generator: Adobe Illustrator 22.0.1, SVG Export Plug-In . SVG Version: 6.00 Build 0)  -->
<svg version="1.1" id="Layer_1" xmlns="http://www.w3.org/2000/svg" xmlns:xlink="http://www.w3.org/1999/xlink" x="0px" y="0px"
	 viewBox="0 0 30 30" style="enable-background:new 0 0 30 30;" xml:space="preserve">
<g>
	<path d="M9.1,23.9c-0.3-0.1-0.6-0.1-0.8,0c-0.3,0.1-0.5,0.3-0.6,0.6c-0.1,0.1-0.1,0.3-0.1,0.4c0,0.2,0,0.3,0.1,0.4
		c0.1,0.3,0.3,0.5,0.6,0.6C8.3,26,8.5,26,8.6,26C8.8,26,8.9,26,9,26c0.3-0.1,0.5-0.3,0.6-0.6c0.1-0.3,0.1-0.6,0-0.9
		C9.5,24.2,9.3,24,9.1,23.9z"/>
	<path d="M11.4,26.3c-0.3-0.1-0.6-0.1-0.8,0c-0.3,0.1-0.5,0.3-0.6,0.6c-0.1,0.3-0.2,0.6,0,0.9l0,0c0.1,0.3,0.3,0.5,0.6,0.6
		c0.2,0.1,0.3,0.1,0.4,0.1c0.1,0,0.2,0,0.4-0.1c0.3-0.1,0.5-0.3,0.6-0.6c0.1-0.3,0.1-0.5,0-0.8C11.9,26.7,11.7,26.5,11.4,26.3z"/>
	<path d="M10.5,23.6c0.3,0,0.6-0.1,0.8-0.4l2.3-2.9c0.2-0.2,0.3-0.5,0.2-0.8c0-0.3-0.2-0.6-0.4-0.7c-0.2-0.2-0.5-0.3-0.8-0.2
		c-0.3,0-0.6,0.2-0.7,0.4l-2.3,2.9c-0.2,0.2-0.3,0.4-0.3,0.7l0,0.1c0,0.3,0.2,0.5,0.4,0.7C9.9,23.5,10.2,23.6,10.5,23.6
		C10.5,23.6,10.5,23.6,10.5,23.6z"/>
	<path d="M18,19.6c0-0.3-0.2-0.6-0.4-0.8c-0.2-0.2-0.5-0.2-0.8-0.2c-0.3,0-0.6,0.2-0.7,0.4l-4.3,5.4c-0.2,0.2-0.3,0.4-0.3,0.7l0,0.1
		c0,0.3,0.2,0.5,0.4,0.7c0.2,0.2,0.5,0.3,0.7,0.3c0.3,0,0.6-0.1,0.8-0.4l4.3-5.4C17.9,20.2,18,19.9,18,19.6z"/>
	<path d="M26.3,10.8l-1-0.3c-0.5-0.2-1-0.4-1.4-0.8c-0.4-0.3-0.6-0.7-0.8-1.1c-0.2-0.4-0.2-0.8-0.2-1.2c0-0.2,0-0.5,0.1-0.7l0.2-1
		l-1-0.3c0,0-0.1,0-0.1,0l-0.1,0c-0.5-0.1-0.9-0.2-1.3-0.2c0,0,0,0,0,0c-0.4,0-0.8,0.1-1.2,0.1c-0.4,0.1-0.8,0.2-1.2,0.4
		c-0.4,0.2-0.9,0.5-1.3,0.9c-0.4,0.3-0.7,0.7-0.9,1.1c-0.7-0.3-1.5-0.4-2.2-0.4c-1.5,0-2.8,0.5-3.9,1.4c-1.1,0.9-1.8,2-2.2,3.4
		c-1.1,0.3-2,0.9-2.7,1.8c-0.7,0.9-1.1,2-1.1,3.2c0,1.2,0.4,2.2,1.1,3.2c0.7,0.9,1.6,1.5,2.7,1.9c0.2,0,0.3,0,0.5-0.2L9.5,20H9
		c-0.8,0-1.5-0.3-2.1-0.9C6.3,18.5,6,17.8,6,16.9c0-0.8,0.3-1.4,0.8-2c0.5-0.6,1.2-0.9,2-1l0.5-0.1c0.3,0,0.4-0.2,0.4-0.4L9.7,13
		c0.1-1,0.6-1.9,1.3-2.6c0.8-0.7,1.7-1,2.7-1c1,0,1.9,0.3,2.7,1c0.8,0.7,1.2,1.5,1.3,2.6l0.1,0.5c0,0.3,0.2,0.4,0.4,0.4h1.6
		c0.8,0,1.5,0.3,2.1,0.9c0.6,0.6,0.9,1.3,0.9,2.1c0,0.8-0.3,1.5-0.8,2.1c-0.5,0.6-1.1,0.9-1.9,1c-0.5,0.1-0.8,0.2-1,0.4l-2.3,2.9
		c-0.2,0.2-0.3,0.5-0.3,0.8c0,0.3,0.2,0.5,0.4,0.8c0.2,0.2,0.5,0.3,0.7,0.3c0.3,0,0.6-0.2,0.8-0.5l2-2.5c0.6-0.1,1.2-0.2,1.7-0.5
		c0.6-0.3,1.1-0.7,1.5-1.1c0.4-0.5,0.8-1,1-1.6c0.2-0.6,0.4-1.3,0.4-1.9c0-0.8-0.2-1.6-0.6-2.4c0.8-0.7,1.3-1.6,1.5-2.7L26.3,10.8z
		 M21.5,10.2c0.5,0.8,1.2,1.5,2.1,1.9c-0.2,0.3-0.3,0.5-0.5,0.7c-0.9-0.7-2-1.1-3.2-1.1h-0.1c-0.3-1.2-0.9-2.2-1.9-3
		c0.3-0.4,0.6-0.8,1.1-1c0.5-0.3,1-0.4,1.6-0.4c0,0,0,0,0.1,0v0.1C20.6,8.4,20.9,9.3,21.5,10.2z"/>
	<path d="M16.6,25.2c-0.3-0.1-0.6-0.1-0.8,0c-0.3,0.1-0.5,0.3-0.6,0.6C15.1,25.8,15,26,15,26.1c0,0.2,0,0.3,0.1,0.4
		c0.1,0.3,0.3,0.5,0.6,0.6c0.1,0.1,0.3,0.1,0.4,0.1c0.1,0,0.2,0,0.4-0.1c0.3-0.1,0.5-0.3,0.6-0.6c0.1-0.3,0.1-0.6,0-0.8
		C17.1,25.5,16.9,25.3,16.6,25.2z"/>
</g>
</svg>
