<?xml version="1.0" encoding="utf-8"?>
<!-- Generator: Adobe Illustrator 22.0.1, SVG Export Plug-In . SVG Version: 6.00 Build 0)  -->
<svg version="1.1" id="Layer_1" xmlns="http://www.w3.org/2000/svg" xmlns:xlink="http://www.w3.org/1999/xlink" x="0px" y="0px"
	 viewBox="0 0 30 30" style="enable-background:new 0 0 30 30;" xml:space="preserve">
<g>
	<path d="M15.8,18.1c-0.1-0.1-0.1-0.1-0.2-0.2l-0.2-0.2L15,18.1c-0.4,0.4-0.8,0.9-1.3,1.5c-0.2,0.3-0.4,0.7-0.6,1.1
		c-0.2,0.4-0.3,0.7-0.3,1.1c0,0.7,0.3,1.3,0.8,1.8c0.5,0.5,1.1,0.7,1.8,0.7c0.7,0,1.3-0.3,1.8-0.8c0.5-0.5,0.8-1.1,0.8-1.8
		c0-0.6-0.3-1.3-0.9-2.2C16.7,19,16.2,18.5,15.8,18.1z"/>
	<path d="M12.8,16.6c-0.2-0.4-0.5-0.8-0.7-1c-0.1-0.1-0.2-0.3-0.4-0.4L11.5,15l-0.5,0.6c-0.3,0.3-0.5,0.7-0.8,1.1
		c-0.2,0.4-0.4,0.8-0.4,1.1c0,0.5,0.2,0.8,0.5,1.2c0.3,0.3,0.7,0.5,1.2,0.5c0.5,0,0.9-0.2,1.2-0.5c0.3-0.3,0.5-0.7,0.5-1.2
		C13.1,17.5,13,17.1,12.8,16.6z"/>
	<path d="M16.3,15.9c0.2-0.2,0.3-0.5,0.3-0.8c0-0.5-0.3-1.1-1-1.8l-0.2-0.2l-0.4,0.5c-0.2,0.2-0.4,0.5-0.5,0.7
		c-0.2,0.3-0.3,0.6-0.3,0.8c0,0.3,0.1,0.6,0.4,0.8c0.2,0.2,0.5,0.3,0.9,0.3C15.8,16.3,16.1,16.2,16.3,15.9z"/>
	<path d="M25.8,10.7l-0.6-0.2c-0.5-0.1-1-0.4-1.4-0.8c-0.4-0.3-0.6-0.7-0.8-1.1c-0.2-0.4-0.2-0.8-0.2-1.2c0-0.3,0-0.5,0.1-0.8L23,6
		c0-0.2-0.1-0.4-0.3-0.5l-0.8-0.2c-0.9-0.2-1.7-0.2-2.5,0c-0.4,0.1-0.8,0.2-1.2,0.4c-0.4,0.2-0.9,0.5-1.3,0.8
		c-0.4,0.3-0.7,0.7-0.9,1.1c-0.8-0.3-1.5-0.4-2.2-0.4c-1.5,0-2.8,0.5-3.9,1.4c-1.1,0.9-1.8,2-2.2,3.3c-1.1,0.3-2,0.9-2.7,1.8
		c-0.7,0.9-1.1,2-1.1,3.2c0,1.4,0.5,2.6,1.5,3.6c1,1,2.2,1.5,3.6,1.6c0.3,0,0.4-0.2,0.4-0.4v-1.3c0-0.3-0.2-0.4-0.4-0.4h0
		c-0.8,0-1.5-0.3-2-0.9c-0.6-0.6-0.8-1.3-0.8-2.1c0-0.8,0.3-1.4,0.8-2c0.5-0.6,1.2-0.9,1.9-1l0.5,0c0.3,0,0.5-0.2,0.4-0.4l0.1-0.5
		c0.1-1,0.5-1.9,1.3-2.5c0.8-0.7,1.6-1,2.7-1c1,0,1.9,0.3,2.7,1c0.8,0.7,1.2,1.5,1.3,2.6l0.1,0.5c0,0.3,0.2,0.4,0.4,0.4h1.6
		c0.8,0,1.5,0.3,2.1,0.9c0.6,0.6,0.9,1.3,0.9,2.1c0,0.8-0.3,1.5-0.8,2.1c-0.6,0.6-1.2,0.9-2,0.9c-0.3,0-0.4,0.2-0.4,0.4v1.3
		c0,0.3,0.2,0.4,0.4,0.4c0,0,0,0,0,0c0.9,0,1.8-0.3,2.5-0.8c0.8-0.5,1.4-1.1,1.8-1.9c0.4-0.8,0.7-1.6,0.7-2.6c0-0.8-0.2-1.6-0.6-2.4
		c0.7-0.7,1.2-1.6,1.5-2.6l0.1-0.7c0,0,0-0.1,0-0.2C26.1,10.9,26,10.7,25.8,10.7z M21.5,10.2c0.5,0.8,1.2,1.5,2.1,2
		c-0.1,0.2-0.3,0.4-0.4,0.6c-0.9-0.7-2-1.1-3.2-1.1h-0.1c-0.3-1.2-0.9-2.2-1.9-3c0.3-0.4,0.7-0.8,1.1-1c0.5-0.3,1-0.4,1.6-0.4v0.1
		C20.6,8.4,20.9,9.3,21.5,10.2z"/>
</g>
</svg>
