<?xml version="1.0" encoding="utf-8"?>
<!-- Generator: Adobe Illustrator 22.0.1, SVG Export Plug-In . SVG Version: 6.00 Build 0)  -->
<svg version="1.1" id="Layer_1" xmlns="http://www.w3.org/2000/svg" xmlns:xlink="http://www.w3.org/1999/xlink" x="0px" y="0px"
	 viewBox="0 0 30 30" style="enable-background:new 0 0 30 30;" xml:space="preserve">
<g>
	<path d="M12.9,17.3c-0.2-0.3-0.4-0.4-0.7-0.5c-0.3-0.1-0.6-0.1-0.8,0.1c-0.3,0.1-0.4,0.4-0.5,0.7l-1.4,5.9l0,0.1c0,0,0,0.1,0,0.1
		c0,0.2,0.1,0.4,0.2,0.6c0.1,0.2,0.4,0.4,0.6,0.4c0.1,0,0.2,0.1,0.3,0.1c0.2,0,0.3,0,0.5-0.1c0.3-0.1,0.4-0.4,0.5-0.7l1.4-5.9
		C13.1,17.8,13,17.5,12.9,17.3z M9.7,23.6L9.7,23.6L9.7,23.6L9.7,23.6z"/>
	<path d="M25.9,10.6l-0.6-0.2c-0.5-0.1-1-0.4-1.4-0.8c-0.4-0.4-0.7-0.7-0.8-1.1c-0.2-0.4-0.2-0.8-0.2-1.2c0-0.2,0-0.4,0.1-0.7
		L23.1,6c0.1-0.2,0-0.4-0.3-0.6L22,5.2C21,5,20.2,5,19.5,5.2c-0.4,0.1-0.8,0.2-1.2,0.4c-0.4,0.2-0.9,0.5-1.3,0.8
		c-0.4,0.3-0.7,0.7-0.9,1.1c-0.8-0.3-1.5-0.4-2.2-0.4c-1.5,0-2.8,0.5-3.9,1.4c-1.1,0.9-1.8,2-2.2,3.4c-1.1,0.3-2,0.9-2.7,1.8
		c-0.8,0.9-1.2,2-1.2,3.2c0,1.4,0.5,2.6,1.5,3.6c1,1,2.2,1.5,3.6,1.6c0.3,0,0.4-0.2,0.4-0.4v-1.3c0-0.3-0.2-0.4-0.4-0.4c0,0,0,0,0,0
		c-0.8,0-1.5-0.4-2-1C6.3,18.4,6,17.7,6,16.9c0-0.8,0.3-1.4,0.8-2c0.5-0.6,1.2-0.9,1.9-1l0.5,0c0.3,0,0.5-0.2,0.4-0.4l0.1-0.5
		c0.1-1,0.5-1.9,1.3-2.6c0.8-0.7,1.7-1,2.7-1c1,0,1.9,0.3,2.7,1c0.8,0.7,1.2,1.5,1.3,2.6l0.1,0.5c0,0.3,0.2,0.4,0.4,0.4h1.6
		c0.8,0,1.5,0.3,2.1,0.9c0.6,0.6,0.9,1.3,0.9,2.1c0,0.8-0.3,1.5-0.8,2.1c-0.6,0.6-1.2,0.9-2,1c-0.3,0-0.5,0.2-0.5,0.4v1.3
		c0,0.2,0.1,0.4,0.5,0.4h0c1.4,0,2.6-0.6,3.6-1.6c1-1,1.5-2.2,1.5-3.6c0-0.8-0.2-1.7-0.6-2.4c0.8-0.7,1.3-1.6,1.5-2.6l0.1-0.7
		c0,0,0-0.1,0-0.2C26.2,10.9,26.1,10.7,25.9,10.6z M21.5,10.2c0.5,0.8,1.2,1.5,2.1,2c-0.1,0.2-0.3,0.5-0.5,0.6c-0.9-0.7-2-1-3.2-1
		h-0.1c-0.3-1.2-0.9-2.2-1.9-3c0.3-0.5,0.7-0.8,1.1-1.1c0.5-0.3,1-0.4,1.6-0.4c0,0,0,0,0.1,0v0.1C20.7,8.3,20.9,9.3,21.5,10.2z"/>
	<path d="M19.6,17.3c-0.1-0.2-0.4-0.4-0.7-0.5c-0.3-0.1-0.6-0.1-0.8,0.1c-0.3,0.1-0.4,0.4-0.5,0.7l-1.4,5.9l0,0.2c0,0.1,0,0.1,0,0.1
		c0,0.3,0.1,0.8,0.8,1c0.2,0,0.3,0.1,0.4,0.1c0.2,0,0.3,0,0.4-0.1c0.2-0.1,0.5-0.3,0.5-0.8l1.4-5.9C19.8,17.8,19.8,17.6,19.6,17.3z"
		/>
	<path d="M16.3,17.3c-0.1-0.2-0.4-0.4-0.6-0.5c-0.3-0.1-0.6-0.1-0.9,0.1c-0.3,0.2-0.4,0.4-0.5,0.7l-2.3,9c0,0,0,0,0,0
		c0,0.1,0,0.2,0,0.2c0,0.2,0.1,0.4,0.2,0.6c0.1,0.2,0.3,0.3,0.6,0.4c0.1,0,0.2,0,0.3,0c0.6,0,0.9-0.3,1.1-0.8l2.3-8.9
		C16.5,17.9,16.4,17.6,16.3,17.3z"/>
</g>
</svg>
