<?xml version="1.0" encoding="utf-8"?>
<!-- Generator: Adobe Illustrator 22.0.1, SVG Export Plug-In . SVG Version: 6.00 Build 0)  -->
<svg version="1.1" id="Layer_1" xmlns="http://www.w3.org/2000/svg" xmlns:xlink="http://www.w3.org/1999/xlink" x="0px" y="0px"
	 viewBox="0 0 30 30" style="enable-background:new 0 0 30 30;" xml:space="preserve">
<g>
	<path d="M11.9,21.9c0.2-0.2,0.3-0.5,0.3-0.8c0-0.3-0.1-0.6-0.3-0.8c-0.4-0.4-1.2-0.4-1.5,0c-0.2,0.2-0.3,0.5-0.3,0.8
		c0,0.3,0.1,0.5,0.3,0.7c0.2,0.2,0.5,0.3,0.8,0.3C11.5,22.2,11.7,22.1,11.9,21.9z"/>
	<path d="M13.3,25.5c-0.3-0.1-0.6-0.1-0.8,0.1c-0.3,0.1-0.4,0.4-0.5,0.7l-0.1,0.6c0,0.1,0,0.2,0,0.3c0,0.2,0.1,0.4,0.2,0.6
		c0.1,0.2,0.4,0.4,0.6,0.4c0.1,0,0.2,0,0.3,0c0.5,0,0.9-0.3,1-0.8l0.1-0.6c0.1-0.3,0.1-0.6-0.1-0.9C13.8,25.7,13.5,25.6,13.3,25.5z"
		/>
	<path d="M13.6,23.2c-0.3,0-0.6,0.1-0.8,0.3c-0.2,0.2-0.3,0.5-0.3,0.8c0,0.3,0.1,0.5,0.3,0.8s0.5,0.3,0.8,0.3c0.3,0,0.6-0.1,0.8-0.3
		c0.2-0.2,0.3-0.5,0.3-0.8c0-0.3-0.1-0.6-0.3-0.8C14.1,23.3,13.9,23.2,13.6,23.2z"/>
	<path d="M10.9,22.4c-0.3-0.1-0.6,0-0.9,0.1c-0.3,0.2-0.4,0.4-0.5,0.7L9.4,24c0,0.1,0,0.1,0,0.1c0,0.2,0.1,0.4,0.2,0.6
		c0.1,0.2,0.3,0.4,0.6,0.4l0.1,0c0,0,0,0,0.1,0c0.1,0,0.1,0,0.2,0c0.5,0,0.9-0.3,1-0.8l0.1-0.6c0.1-0.3,0-0.6-0.1-0.8
		C11.4,22.7,11.2,22.5,10.9,22.4z"/>
	<path d="M16.9,20.4c-0.2,0.2-0.3,0.5-0.3,0.8c0,0.3,0.1,0.5,0.3,0.7c0.2,0.2,0.5,0.3,0.8,0.3c0.3,0,0.6-0.1,0.8-0.3
		c0.2-0.2,0.3-0.5,0.3-0.8c0-0.3-0.1-0.6-0.3-0.8C18,20,17.3,20,16.9,20.4z"/>
	<path d="M25.8,10.7l-0.6-0.2c-0.4-0.1-0.8-0.3-1.1-0.5c-0.3-0.2-0.6-0.5-0.7-0.8C23.2,9,23.1,8.7,23,8.3c-0.1-0.3-0.1-0.6-0.1-0.9
		c0-0.3,0-0.5,0.1-0.8l0.1-0.6c0-0.1,0.1-0.4-0.3-0.5l-0.8-0.3c-0.9-0.2-1.6-0.2-2.5,0c-0.4,0.1-0.8,0.2-1.2,0.4
		c-0.4,0.2-0.8,0.5-1.2,0.8c-0.3,0.3-0.7,0.7-0.9,1.1c-0.8-0.3-1.6-0.4-2.3-0.4c-1.5,0-2.8,0.5-3.9,1.4c-1.1,0.9-1.8,2-2.2,3.3
		c-1.1,0.3-2,0.9-2.7,1.7c-0.7,0.9-1.1,2-1.2,3.1v0.4c0,0.8,0.3,1.6,0.7,2.4c0.4,0.7,1,1.3,1.7,1.8l0.1,0h0c0.8,0.5,1.7,0.8,2.6,0.8
		c0.3,0,0.4-0.2,0.4-0.4v-1.3c0-0.2-0.2-0.4-0.4-0.4c-0.3,0-0.7-0.1-1-0.2c-0.2-0.1-0.4-0.2-0.6-0.3l-0.1-0.1h0
		c-0.3-0.3-0.6-0.6-0.8-1c-0.2-0.4-0.3-0.9-0.3-1.4l0-0.2h0c0-0.7,0.3-1.3,0.8-1.8c0.5-0.6,1.2-0.9,1.9-1l0.5-0.1
		c0.3,0,0.5-0.2,0.4-0.4L9.8,13c0.1-1,0.5-1.9,1.3-2.6c0.8-0.7,1.7-1,2.7-1c1,0,1.9,0.3,2.7,1c0.8,0.7,1.2,1.5,1.3,2.6l0.1,0.6
		c0,0.3,0.2,0.4,0.4,0.4h1.6c0.8,0,1.5,0.3,2.2,0.9c0.6,0.6,0.9,1.3,0.9,2.1c0,0.8-0.3,1.5-0.8,2c-0.6,0.6-1.2,0.9-2,1
		c-0.3,0-0.4,0.2-0.4,0.4v1.4c0,0.3,0.2,0.4,0.4,0.4c0,0,0,0,0,0c1.4,0,2.6-0.6,3.6-1.6c1-1,1.5-2.2,1.5-3.6c0-0.9-0.2-1.7-0.6-2.4
		c0.7-0.7,1.2-1.6,1.4-2.6l0.2-0.7c0-0.1,0-0.1,0-0.2C26.2,11,26.1,10.8,25.8,10.7z M21,9.3c0.2,0.6,0.6,1.2,1.1,1.7
		c0.4,0.5,0.9,0.9,1.5,1.2c-0.1,0.2-0.3,0.4-0.4,0.6c-0.9-0.7-2-1.1-3.2-1.1h-0.1c-0.3-1.2-0.9-2.1-1.8-3c0.3-0.4,0.7-0.8,1.1-1
		c0.5-0.3,1.1-0.4,1.6-0.4v0.1C20.7,8.1,20.8,8.7,21,9.3z"/>
	<path d="M14.8,20c-0.3-0.1-0.6-0.1-0.8,0.1c-0.3,0.2-0.4,0.4-0.5,0.7l-0.2,0.9c0,0.1,0,0.2,0,0.3c0,0.2,0.1,0.4,0.2,0.6
		c0.1,0.2,0.3,0.4,0.6,0.4c0.1,0,0.2,0,0.3,0c0.2,0,0.3,0,0.5-0.1c0.3-0.1,0.4-0.4,0.5-0.7l0.3-0.9c0.1-0.3,0.1-0.6-0.1-0.8
		C15.3,20.2,15.1,20,14.8,20z"/>
	<path d="M17.4,22.4c-0.3-0.1-0.6,0-0.9,0.1c-0.3,0.2-0.4,0.4-0.5,0.7l-0.1,0.6l0,0.1c0,0.1,0,0.1,0,0.2c0,0.2,0.1,0.4,0.2,0.6
		c0.1,0.2,0.3,0.4,0.6,0.4l0.1,0c0,0,0,0,0.1,0l0-0.2c0,0,0,0,0,0l0,0.3c0.1,0,0.1,0,0.1,0c0.4,0,0.8-0.1,1-0.9l0.1-0.6
		c0.1-0.3,0.1-0.6-0.1-0.8C17.9,22.7,17.7,22.5,17.4,22.4z"/>
</g>
</svg>
