<?xml version="1.0" encoding="utf-8"?>
<!-- Generator: Adobe Illustrator 22.0.1, SVG Export Plug-In . SVG Version: 6.00 Build 0)  -->
<svg version="1.1" id="Layer_1" xmlns="http://www.w3.org/2000/svg" xmlns:xlink="http://www.w3.org/1999/xlink" x="0px" y="0px"
	 viewBox="0 0 30 30" style="enable-background:new 0 0 30 30;" xml:space="preserve">
<g>
	<path d="M13.7,25.9c-0.2,0.2-0.3,0.5-0.3,0.8c0,0.3,0.1,0.5,0.3,0.7c0.2,0.2,0.5,0.3,0.8,0.3c0.3,0,0.6-0.1,0.8-0.3
		c0.2-0.2,0.3-0.5,0.3-0.8c0-0.3-0.1-0.6-0.3-0.8C14.8,25.4,14.2,25.4,13.7,25.9z"/>
	<path d="M10.5,23.9c-0.2,0.2-0.3,0.5-0.3,0.8c0,0.3,0.1,0.5,0.3,0.8c0.2,0.2,0.5,0.3,0.8,0.3c0.3,0,0.6-0.1,0.8-0.3
		c0.2-0.2,0.3-0.5,0.3-0.8s-0.1-0.6-0.3-0.8C11.7,23.5,11,23.5,10.5,23.9z"/>
	<path d="M10.5,20.3c-0.2,0.2-0.3,0.5-0.3,0.8c0,0.3,0.1,0.6,0.3,0.8c0.2,0.2,0.5,0.3,0.8,0.3c0.3,0,0.6-0.1,0.8-0.3
		c0.2-0.2,0.3-0.5,0.3-0.8c0-0.3-0.1-0.6-0.3-0.8C11.7,19.9,10.9,19.8,10.5,20.3z"/>
	<path d="M13.7,22.2c-0.2,0.2-0.3,0.5-0.3,0.8c0,0.3,0.1,0.6,0.3,0.8c0.2,0.2,0.5,0.3,0.8,0.3c0.3,0,0.6-0.1,0.8-0.3
		c0.2-0.2,0.3-0.5,0.3-0.8c0-0.3-0.1-0.6-0.3-0.8C14.8,21.7,14.2,21.7,13.7,22.2z"/>
	<path d="M25.8,10.7l-0.6-0.2c-0.4-0.1-0.8-0.3-1.1-0.5s-0.6-0.5-0.7-0.8c-0.2-0.3-0.3-0.6-0.4-0.9c-0.1-0.3-0.1-0.6-0.1-0.9
		c0-0.3,0-0.5,0.1-0.8L23,6c0-0.2,0-0.4-0.3-0.5l-0.8-0.2C21,5,20.2,5,19.4,5.2c-0.4,0.1-0.8,0.2-1.2,0.4c-0.4,0.2-0.9,0.5-1.2,0.8
		c-0.4,0.3-0.7,0.7-0.9,1.1c-0.8-0.3-1.5-0.4-2.3-0.4c-1.5,0-2.8,0.5-3.9,1.4c-1.1,0.9-1.8,2-2.2,3.4c-1.1,0.3-2,0.9-2.7,1.8
		c-0.7,0.9-1.1,2-1.1,3.2c0,1.4,0.5,2.6,1.5,3.6c1,1,2.2,1.5,3.6,1.6c0.3,0,0.4-0.2,0.4-0.4v-1.3c0-0.3-0.2-0.4-0.4-0.4h0
		c-0.8,0-1.5-0.4-2-1C6.3,18.4,6,17.7,6,16.9c0-0.8,0.3-1.5,0.8-2c0.5-0.6,1.2-0.9,1.9-1l0.5-0.1c0.3,0,0.5-0.2,0.4-0.4L9.8,13
		c0.1-1,0.5-1.9,1.3-2.6c0.8-0.7,1.6-1,2.7-1c1,0,1.9,0.3,2.7,1c0.8,0.7,1.2,1.5,1.3,2.6l0.1,0.5c0,0.3,0.2,0.4,0.4,0.4h1.6
		c0.8,0,1.6,0.3,2.2,0.9c0.6,0.6,0.9,1.3,0.9,2.1c0,0.8-0.3,1.5-0.8,2.1c-0.6,0.6-1.2,0.9-2,1c-0.3,0-0.5,0.2-0.5,0.4v1.3
		c0,0.2,0.1,0.4,0.5,0.4c0.9,0,1.8-0.3,2.5-0.7c0.8-0.5,1.4-1.1,1.8-1.9c0.4-0.8,0.7-1.6,0.7-2.6c0-0.9-0.2-1.7-0.6-2.4
		c0.7-0.7,1.2-1.5,1.5-2.6l0.2-0.7c0-0.1,0-0.1,0-0.2C26.2,10.9,26.1,10.7,25.8,10.7z M21.5,10.2c0.5,0.8,1.2,1.5,2,1.9
		c-0.1,0.2-0.3,0.4-0.4,0.6c-0.9-0.7-2-1.1-3.2-1.1h-0.1c-0.3-1.1-0.9-2.1-1.9-3c0.3-0.4,0.6-0.7,1.1-1c0.5-0.3,1-0.4,1.6-0.4
		c0,0,0.1,0,0.1,0v0.1C20.7,8.4,20.9,9.4,21.5,10.2z"/>
	<path d="M17,20.3c-0.2,0.2-0.3,0.5-0.3,0.8c0,0.3,0.1,0.6,0.3,0.8c0.2,0.2,0.5,0.3,0.8,0.3c0.3,0,0.6-0.1,0.8-0.3
		c0.2-0.2,0.3-0.5,0.3-0.8c0-0.3-0.1-0.6-0.3-0.8C18.1,19.8,17.4,19.8,17,20.3z"/>
	<path d="M17,23.9c-0.2,0.2-0.3,0.5-0.3,0.8c0,0.3,0.1,0.5,0.3,0.8c0.2,0.2,0.5,0.3,0.8,0.3c0.3,0,0.6-0.1,0.8-0.3
		c0.2-0.2,0.3-0.5,0.3-0.8c0-0.3-0.1-0.6-0.3-0.8C18.1,23.5,17.4,23.5,17,23.9z"/>
	<path d="M13.7,18.5c-0.2,0.2-0.3,0.5-0.3,0.8c0,0.3,0.1,0.6,0.3,0.8c0.2,0.2,0.5,0.3,0.8,0.3c0.3,0,0.6-0.1,0.8-0.3
		c0.2-0.2,0.3-0.5,0.3-0.8c0-0.3-0.1-0.6-0.3-0.8C14.8,18.1,14.1,18.1,13.7,18.5z"/>
</g>
</svg>
