<?xml version="1.0" encoding="utf-8"?>
<!-- Generator: Adobe Illustrator 22.0.1, SVG Export Plug-In . SVG Version: 6.00 Build 0)  -->
<svg version="1.1" id="Layer_1" xmlns="http://www.w3.org/2000/svg" xmlns:xlink="http://www.w3.org/1999/xlink" x="0px" y="0px"
	 viewBox="0 0 30 30" style="enable-background:new 0 0 30 30;" xml:space="preserve">
<g>
	<path d="M12.1,21.4l0.9-3.2c0.1-0.3,0.1-0.6-0.1-0.9c-0.2-0.3-0.4-0.4-0.7-0.5c-0.3-0.1-0.6-0.1-0.8,0.1c-0.3,0.1-0.4,0.4-0.5,0.7
		L10,20.8l0,0.1c0,0.1,0,0.1,0,0.2c0,0.2,0.1,0.4,0.2,0.6c0.1,0.2,0.3,0.3,0.6,0.4c0.2,0.1,0.3,0.1,0.5,0.1c0.2,0,0.3,0,0.4-0.1
		C11.9,22,12,21.7,12.1,21.4z"/>
	<path d="M25.8,10.7l-0.6-0.2c-0.5-0.2-1-0.4-1.4-0.8c-0.4-0.4-0.7-0.8-0.8-1.2c-0.2-0.4-0.2-0.8-0.2-1.2c0-0.2,0-0.5,0.1-0.7
		l0.1-0.6c0-0.1,0.1-0.3-0.3-0.5L22,5.3C21.1,5,20.3,5,19.5,5.2c-0.4,0.1-0.8,0.2-1.2,0.4c-0.4,0.2-0.8,0.5-1.3,0.8
		c-0.4,0.3-0.7,0.7-0.9,1.1c-0.7-0.3-1.5-0.4-2.3-0.4c-1.5,0-2.8,0.5-3.9,1.4c-1.1,0.9-1.8,2-2.2,3.3c-1.1,0.3-2,0.9-2.7,1.8
		c-0.7,0.9-1.1,2.1-1.1,3.3c0,1.4,0.5,2.6,1.5,3.6c1,1,2.2,1.5,3.6,1.6c0.3,0,0.4-0.2,0.4-0.4v-1.3c0-0.3-0.2-0.4-0.4-0.4h0
		c-0.8,0-1.4-0.3-2-0.9c-0.6-0.6-0.8-1.3-0.8-2.1c0-0.8,0.3-1.4,0.8-2c0.5-0.6,1.2-0.9,1.9-1l0.5,0c0.3,0,0.5-0.2,0.4-0.4l0.1-0.5
		c0.1-1,0.5-1.9,1.3-2.6c0.8-0.7,1.7-1,2.7-1c1,0,1.9,0.3,2.7,1c0.8,0.7,1.2,1.5,1.3,2.6l0.1,0.5c0,0.2,0.2,0.4,0.4,0.4h1.6
		c0.8,0,1.5,0.3,2.1,0.9c0.6,0.6,0.9,1.3,0.9,2.1c0,0.8-0.3,1.5-0.8,2.1c-0.6,0.6-1.2,0.9-2,0.9c-0.3,0-0.5,0.2-0.5,0.4v1.3
		c0,0.3,0.2,0.4,0.5,0.4c0,0,0,0,0,0c1.4,0,2.6-0.6,3.6-1.6c1-1,1.5-2.2,1.5-3.6c0-0.8-0.2-1.6-0.6-2.4c0.7-0.7,1.2-1.6,1.5-2.6
		l0.1-0.6c0,0,0-0.1,0-0.2C26.2,11,26.1,10.8,25.8,10.7z M21.5,10.3c0.5,0.8,1.2,1.5,2.1,1.9c-0.1,0.2-0.3,0.4-0.4,0.6
		c-0.9-0.7-2-1.1-3.2-1.1h-0.1c-0.3-1.2-0.9-2.2-1.8-3c0.3-0.4,0.6-0.8,1.1-1c0.5-0.3,1.1-0.4,1.6-0.4v0.1
		C20.7,8.4,20.9,9.4,21.5,10.3z"/>
	<path d="M13.3,25.7c-0.3-0.1-0.5-0.1-0.8,0c-0.2,0.1-0.4,0.3-0.5,0.5c-0.1,0.2-0.2,0.4-0.2,0.6c0,0.2,0,0.3,0.1,0.4
		c0.1,0.3,0.3,0.5,0.6,0.6c0.1,0.1,0.3,0.1,0.5,0.1c0.1,0,0.2,0,0.4-0.1c0.3-0.1,0.5-0.3,0.6-0.6c0.1-0.3,0.1-0.6,0-0.9
		C13.8,26,13.6,25.8,13.3,25.7z"/>
	<path d="M10.8,22.6c-0.3-0.1-0.6-0.1-0.8,0c-0.3,0.1-0.5,0.3-0.6,0.6c-0.1,0.2-0.1,0.5,0,0.8l0,0c0.1,0.3,0.3,0.5,0.6,0.6
		c0.1,0.1,0.3,0.1,0.4,0.1c0.1,0,0.3,0,0.4-0.1c0.3-0.1,0.5-0.3,0.6-0.6c0.1-0.3,0.1-0.6,0-0.8C11.3,22.9,11.1,22.7,10.8,22.6z"/>
	<path d="M19.6,17.3c-0.1-0.2-0.4-0.4-0.6-0.5c-0.3-0.1-0.6-0.1-0.8,0.1c-0.3,0.1-0.4,0.4-0.5,0.7l-0.9,3.2c0,0.1,0,0.2,0,0.3
		c0,0.2,0.1,0.4,0.2,0.6c0.1,0.2,0.3,0.3,0.6,0.4c0.2,0,0.3,0,0.3,0c0.5,0,0.9-0.3,1-0.8l0.9-3.2C19.8,17.9,19.8,17.6,19.6,17.3z"/>
	<path d="M17.5,22.7c-0.3-0.1-0.6-0.1-0.8,0c-0.3,0.1-0.5,0.3-0.6,0.6C16,23.3,16,23.5,16,23.6s0,0.3,0.1,0.4
		c0.1,0.3,0.3,0.5,0.6,0.6c0.2,0.1,0.3,0.1,0.4,0.1c0.1,0,0.2,0,0.4-0.1c0.3-0.1,0.5-0.3,0.6-0.6c0.1-0.3,0.1-0.6,0-0.8
		C18,23,17.8,22.8,17.5,22.7z"/>
	<path d="M16.3,17.3c-0.1-0.2-0.4-0.4-0.6-0.5c-0.3-0.1-0.6-0.1-0.8,0.1c-0.3,0.1-0.4,0.4-0.5,0.7l-1.7,6.2c0,0.1-0.1,0.2-0.1,0.3
		c0,0.3,0.1,0.8,0.8,1c0.1,0,0.2,0.1,0.3,0.1c0.1,0,0.3,0,0.4-0.1c0.2-0.1,0.5-0.3,0.6-0.7l1.7-6.1C16.5,17.9,16.4,17.6,16.3,17.3z"
		/>
</g>
</svg>
