<?xml version="1.0" encoding="utf-8"?>
<!-- Generator: Adobe Illustrator 22.0.1, SVG Export Plug-In . SVG Version: 6.00 Build 0)  -->
<svg version="1.1" id="Layer_1" xmlns="http://www.w3.org/2000/svg" xmlns:xlink="http://www.w3.org/1999/xlink" x="0px" y="0px"
	 viewBox="0 0 30 30" style="enable-background:new 0 0 30 30;" xml:space="preserve">
<g>
	<path d="M12.8,23.4c-0.2,0.2-0.3,0.5-0.3,0.8c0,0.3,0.1,0.5,0.3,0.8c0.2,0.2,0.5,0.3,0.7,0.3c0.3,0,0.6-0.1,0.8-0.3
		c0.2-0.2,0.3-0.5,0.3-0.8c0-0.3-0.1-0.5-0.3-0.8C14,23.1,13.3,23,12.8,23.4z"/>
	<path d="M13.3,25.5c-0.3-0.1-0.6-0.1-0.8,0.1c-0.3,0.1-0.4,0.4-0.5,0.7l-0.1,0.6c0,0.1,0,0.2,0,0.3c0,0.2,0.1,0.4,0.2,0.6
		c0.1,0.2,0.3,0.4,0.6,0.4c0.1,0,0.2,0,0.3,0c0.5,0,0.9-0.3,1-0.8l0.1-0.6c0.1-0.3,0-0.6-0.1-0.9C13.8,25.7,13.6,25.5,13.3,25.5z"/>
	<path d="M10.7,22.4c-0.3-0.1-0.6-0.1-0.8,0.1c-0.3,0.2-0.4,0.4-0.5,0.7l-0.1,0.5c0,0.1,0,0.2,0,0.3c0,0.2,0.1,0.4,0.2,0.6
		c0.1,0.2,0.3,0.4,0.6,0.5c0.1,0,0.2,0.1,0.4,0.1c0.2,0,0.3,0,0.5-0.1c0.3-0.1,0.4-0.4,0.5-0.7l0.1-0.6c0.1-0.3,0-0.6-0.1-0.8
		C11.3,22.6,11,22.4,10.7,22.4z"/>
	<path d="M11.4,19.8c0.1,0,0.2,0,0.3,0c0.2,0,0.3,0,0.5-0.1c0.3-0.1,0.4-0.4,0.5-0.7l0.3-0.9c0.1-0.3,0.1-0.6-0.1-0.9
		c-0.2-0.2-0.4-0.4-0.7-0.5c-0.3-0.1-0.6-0.1-0.8,0.1c-0.3,0.1-0.4,0.4-0.5,0.7l-0.2,0.9l0,0.1c0,0.1,0,0.2,0,0.2
		c0,0.2,0.1,0.4,0.2,0.6C10.9,19.6,11.1,19.7,11.4,19.8z"/>
	<path d="M10,21.1c0,0.3,0.1,0.5,0.3,0.7c0.2,0.2,0.5,0.3,0.7,0.3c0.3,0,0.6-0.1,0.8-0.3c0.2-0.2,0.3-0.5,0.3-0.8
		c0-0.3-0.1-0.6-0.3-0.8c-0.4-0.4-1.1-0.4-1.5,0C10.1,20.5,10,20.8,10,21.1z"/>
	<path d="M17.4,22.4c-0.3-0.1-0.6,0-0.9,0.1c-0.3,0.2-0.4,0.4-0.5,0.7L16,23.8c0,0,0,0,0,0.1l0,0.2c0,0.2,0.1,0.4,0.2,0.6
		c0.1,0.2,0.3,0.4,0.6,0.4l0.1,0l0-0.2c0,0,0,0,0,0l0,0.3c0.1,0,0.1,0,0.1,0c0.4,0,0.8-0.1,1-0.9l0.1-0.6c0.1-0.3,0.1-0.6-0.1-0.8
		C18,22.7,17.8,22.5,17.4,22.4z M16.2,24.1L16.2,24.1L16.2,24.1L16.2,24.1z"/>
	<path d="M25.8,10.7l-0.6-0.2c-0.5-0.2-1-0.4-1.4-0.8c-0.4-0.4-0.7-0.8-0.8-1.2c-0.2-0.4-0.2-0.8-0.2-1.2c0-0.1,0-0.4,0.1-0.7
		L23.1,6c0.1-0.1,0-0.2,0-0.3c0-0.1-0.1-0.2-0.3-0.2L22,5.2c-0.8-0.2-1.7-0.2-2.5,0c-0.4,0.1-0.8,0.2-1.2,0.4
		c-0.4,0.2-0.9,0.5-1.3,0.9c-0.4,0.3-0.7,0.7-0.9,1.1c-0.8-0.3-1.5-0.4-2.2-0.4c-1.5,0-2.8,0.5-3.9,1.4c-1.1,0.9-1.8,2-2.2,3.4
		c-1.1,0.3-2,0.9-2.7,1.8c-0.7,0.9-1.1,2-1.1,3.2c0,1.4,0.5,2.6,1.5,3.6c1,1,2.2,1.5,3.6,1.6c0.3,0,0.4-0.2,0.4-0.4v-1.3
		c0-0.3-0.2-0.4-0.4-0.4h0c-0.8,0-1.5-0.4-2-1C6.3,18.4,6,17.7,6,16.9c0-0.8,0.3-1.5,0.8-2c0.5-0.6,1.2-0.9,1.9-1l0.5-0.1
		c0.3,0,0.5-0.2,0.4-0.4l0.1-0.5c0.1-1.1,0.5-1.9,1.3-2.6c0.8-0.7,1.7-1,2.7-1c1,0,1.9,0.3,2.7,1c0.8,0.7,1.2,1.5,1.3,2.6l0.1,0.5
		c0,0.3,0.2,0.4,0.4,0.4h1.6c0.8,0,1.5,0.3,2.2,0.9c0.6,0.6,0.9,1.3,0.9,2.1c0,0.5-0.1,1-0.4,1.4c-0.2,0.4-0.6,0.8-1,1.1
		c-0.4,0.3-0.9,0.4-1.4,0.5c-0.3,0-0.5,0.2-0.5,0.4v1.3c0,0.3,0.2,0.4,0.5,0.4c0.9,0,1.8-0.3,2.5-0.7c0.8-0.5,1.4-1.1,1.8-1.9
		c0.4-0.8,0.7-1.6,0.7-2.6c0-0.9-0.2-1.7-0.6-2.5c0.8-0.7,1.3-1.6,1.5-2.6l0.1-0.6c0-0.1,0-0.1,0-0.2C26.2,10.8,25.9,10.7,25.8,10.7
		z M21.5,10.2c0.5,0.8,1.2,1.5,2.1,1.9c-0.1,0.2-0.3,0.5-0.5,0.7c-0.9-0.7-2-1.1-3.2-1.1h-0.1c-0.3-1.2-0.9-2.2-1.9-3
		c0.3-0.4,0.6-0.8,1.1-1.1c0.5-0.3,1-0.4,1.6-0.4c0,0,0.1,0,0.1,0v0.1C20.7,8.3,20.9,9.3,21.5,10.2z"/>
	<path d="M19.6,17.4c-0.1-0.3-0.4-0.4-0.7-0.5c-0.3-0.1-0.6-0.1-0.8,0.1c-0.3,0.1-0.4,0.4-0.5,0.7l-0.3,1l0.2,0.1c0,0,0,0,0,0
		l-0.3,0l0,0.1c0,0.2,0.1,0.4,0.2,0.6c0.1,0.2,0.4,0.3,0.6,0.4l0.2,0c0.1,0,0.1,0,0.1,0c0.1,0,0.3,0,0.5-0.1
		c0.3-0.1,0.5-0.4,0.5-0.7l0.2-0.9C19.8,17.9,19.7,17.6,19.6,17.4z"/>
	<path d="M14.8,19.9c-0.3-0.1-0.6-0.1-0.8,0.1c-0.3,0.1-0.4,0.4-0.5,0.7l-0.2,0.9c0,0.1,0,0.2,0,0.3c0,0.2,0,0.4,0.2,0.6
		c0.1,0.2,0.3,0.4,0.6,0.4c0.1,0,0.2,0,0.3,0c0.2,0,0.3,0,0.5-0.1c0.3-0.1,0.4-0.4,0.5-0.7l0.3-0.9c0.1-0.3,0.1-0.6-0.1-0.8
		C15.3,20.2,15.1,20,14.8,19.9z"/>
	<path d="M17,20.3c-0.2,0.2-0.3,0.5-0.3,0.8c0,0.3,0.1,0.6,0.3,0.7c0.2,0.2,0.5,0.3,0.8,0.3c0.3,0,0.5-0.1,0.8-0.3
		c0.2-0.2,0.3-0.5,0.3-0.8c0-0.3-0.1-0.5-0.3-0.8C18.1,20,17.4,19.9,17,20.3z"/>
</g>
</svg>
