<?xml version="1.0" encoding="utf-8"?>
<!-- Generator: Adobe Illustrator 22.0.1, SVG Export Plug-In . SVG Version: 6.00 Build 0)  -->
<svg version="1.1" id="Layer_1" xmlns="http://www.w3.org/2000/svg" xmlns:xlink="http://www.w3.org/1999/xlink" x="0px" y="0px"
	 viewBox="0 0 30 30" style="enable-background:new 0 0 30 30;" xml:space="preserve">
<g>
	<path d="M6.6,19.1h9c0.3,0,0.6-0.1,0.8-0.3c0.2-0.2,0.3-0.5,0.3-0.8c0-0.3-0.1-0.6-0.3-0.8c-0.2-0.2-0.5-0.3-0.8-0.3h-9
		c-0.3,0-0.6,0.1-0.8,0.3c-0.2,0.2-0.4,0.5-0.4,0.8c0,0.3,0.1,0.5,0.3,0.8C6,19,6.3,19.1,6.6,19.1z"/>
	<path d="M13.7,21.8c0.2-0.2,0.3-0.5,0.3-0.8c0-0.3-0.1-0.6-0.3-0.8c-0.2-0.2-0.5-0.3-0.8-0.3H4c-0.3,0-0.6,0.1-0.8,0.3
		C3,20.5,2.9,20.7,2.9,21c0,0.3,0.1,0.6,0.3,0.8C3.4,22,3.7,22.1,4,22.1h9C13.2,22.1,13.5,22,13.7,21.8z"/>
	<path d="M17.3,23h-9c-0.3,0-0.6,0.1-0.8,0.3c-0.2,0.2-0.3,0.5-0.3,0.8s0.1,0.6,0.3,0.8c0.2,0.2,0.5,0.3,0.8,0.3h9
		c0.3,0,0.6-0.1,0.8-0.3s0.3-0.5,0.3-0.8c0-0.3-0.1-0.6-0.3-0.8C17.9,23.2,17.6,23,17.3,23z"/>
	<path d="M26.4,14.3c-0.5-0.8-1.1-1.4-1.9-1.9c-0.8-0.5-1.7-0.7-2.6-0.7h-0.1c-0.4-1.3-1.1-2.4-2.1-3.2c-1.1-0.9-2.4-1.3-3.8-1.3
		c-1.5,0-2.8,0.5-3.9,1.4c-1.1,0.9-1.8,2-2.1,3.4c-0.8,0.2-1.6,0.6-2.2,1.2c-0.7,0.6-1.2,1.4-1.4,2.4l0,0.1c0,0.2,0.2,0.4,0.4,0.4H8
		c0.2,0,0.3-0.1,0.5-0.3c0.2-0.5,0.5-0.9,1-1.2c0.4-0.3,0.9-0.5,1.5-0.5l0.5-0.1c0.3,0,0.4-0.2,0.4-0.4l0.1-0.5
		c0.1-1,0.5-1.9,1.3-2.6c0.8-0.7,1.7-1,2.7-1c1,0,1.9,0.3,2.7,1c0.8,0.7,1.2,1.5,1.3,2.5l0.1,0.6c0,0.2,0.2,0.4,0.4,0.4h1.6
		c0.8,0,1.5,0.3,2.1,0.9c0.6,0.6,0.9,1.3,0.9,2.1c0,0.8-0.3,1.5-0.9,2.1c-0.6,0.6-1.3,0.9-2.1,0.9H15c-0.3,0-0.4,0.2-0.4,0.4v1.3
		c0,0.3,0.2,0.4,0.4,0.4h6.9c0.7,0,1.4-0.1,2-0.4c0.6-0.3,1.2-0.6,1.7-1.1c0.5-0.5,0.8-1,1.1-1.7c0.3-0.6,0.4-1.3,0.4-2
		C27.1,16,26.9,15.1,26.4,14.3z"/>
</g>
</svg>
