<?xml version="1.0" encoding="utf-8"?>
<!-- Generator: Adobe Illustrator 22.0.1, SVG Export Plug-In . SVG Version: 6.00 Build 0)  -->
<svg version="1.1" id="Layer_1" xmlns="http://www.w3.org/2000/svg" xmlns:xlink="http://www.w3.org/1999/xlink" x="0px" y="0px"
	 viewBox="0 0 30 30" style="enable-background:new 0 0 30 30;" xml:space="preserve">
<g>
	<path d="M9.5,15.9c0,0.3,0.2,0.5,0.5,0.5h1.1c0.3,0,0.4-0.1,0.5-0.2s0.1-0.2,0.1-0.3c0-0.9,0.4-1.6,1-2.2c0.6-0.6,1.4-0.9,2.3-0.9
		s1.6,0.3,2.3,0.9c0.6,0.6,1,1.3,1,2.2c0,0.1,0,0.2,0.1,0.3s0.2,0.2,0.4,0.2H20c0.3,0,0.5-0.2,0.5-0.5v-0.1c0-1.3-0.5-2.5-1.4-3.4
		s-2-1.6-3.3-1.8c-0.2,0-0.5-0.1-0.8-0.1s-0.6,0-0.8,0.1h-0.1c-1.3,0.2-2.4,0.8-3.2,1.8C10,13.4,9.6,14.5,9.5,15.9L9.5,15.9z"/>
	<path d="M15.6,17.3c-0.2,0.2-0.4,0.4-0.4,0.7c0,0.3,0.1,0.6,0.3,0.8c0.2,0.2,0.5,0.3,0.8,0.3c0.3,0,0.5-0.1,0.8-0.3
		c0.2-0.2,0.4-0.5,0.4-0.8s-0.1-0.5-0.4-0.7C16.7,16.9,16.1,16.9,15.6,17.3z"/>
	<path d="M21.9,17h-3.1c-0.3,0-0.5,0.1-0.8,0.3c-0.2,0.2-0.4,0.4-0.4,0.7c0,0.3,0.1,0.6,0.3,0.8c0.2,0.2,0.5,0.3,0.8,0.3h3.1
		c0.3,0,0.5-0.1,0.7-0.3c0.2-0.2,0.3-0.5,0.3-0.8s-0.1-0.5-0.3-0.7C22.4,17.1,22.2,17,21.9,17z"/>
	<path d="M19.8,19.8h-1.9c-0.3,0-0.6,0.1-0.8,0.3c-0.2,0.2-0.3,0.5-0.3,0.8s0.1,0.6,0.3,0.8c0.2,0.2,0.5,0.3,0.8,0.3h1.9
		c0.4,0,0.6-0.1,0.8-0.3c0.2-0.2,0.3-0.5,0.3-0.8s-0.1-0.5-0.3-0.8C20.4,20,20.1,19.8,19.8,19.8z"/>
	<path d="M14,19.2c0.3,0,0.6-0.1,0.8-0.3c0.2-0.2,0.3-0.5,0.3-0.8s-0.1-0.6-0.3-0.7C14.6,17.1,14.3,17,14,17H8.3
		c-0.3,0-0.6,0.1-0.8,0.3c-0.2,0.2-0.3,0.4-0.3,0.7c0,0.4,0.1,0.6,0.3,0.8C7.7,19,8,19.1,8.3,19.1H14V19.2z"/>
	<path d="M8.5,20.2c-0.2,0.2-0.4,0.5-0.4,0.8s0.1,0.6,0.3,0.8C8.7,22,9,22.1,9.3,22.1c0.4,0,0.6-0.1,0.8-0.3
		c0.2-0.2,0.3-0.5,0.3-0.8s-0.1-0.5-0.3-0.8C9.7,19.8,9,19.7,8.5,20.2z"/>
	<path d="M15.5,19.8h-3.8c-0.3,0-0.6,0.1-0.8,0.3c-0.2,0.2-0.3,0.5-0.3,0.8c0,0.4,0.1,0.6,0.3,0.8c0.2,0.2,0.5,0.3,0.8,0.3h3.8
		c0.3,0,0.5-0.1,0.8-0.3c0.2-0.2,0.4-0.5,0.4-0.8s-0.1-0.5-0.4-0.8C16,20,15.8,19.8,15.5,19.8z"/>
</g>
</svg>
