<?xml version="1.0" encoding="utf-8"?>
<!-- Generator: Adobe Illustrator 22.0.1, SVG Export Plug-In . SVG Version: 6.00 Build 0)  -->
<svg version="1.1" id="Layer_1" xmlns="http://www.w3.org/2000/svg" xmlns:xlink="http://www.w3.org/1999/xlink" x="0px" y="0px"
	 viewBox="0 0 30 30" style="enable-background:new 0 0 30 30;" xml:space="preserve">
<g>
	<path d="M2.7,20.9c0,0.2,0.1,0.4,0.2,0.6c0.2,0.2,0.4,0.2,0.6,0.2h18.6c0.2,0,0.4-0.1,0.6-0.2c0.2-0.2,0.2-0.4,0.2-0.6
		c0-0.2-0.1-0.5-0.2-0.6c-0.2-0.2-0.4-0.2-0.6-0.2H3.5c-0.2,0-0.4,0.1-0.6,0.2C2.8,20.5,2.7,20.7,2.7,20.9z M5.3,17.8
		c0,0.2,0.1,0.4,0.3,0.6c0.1,0.2,0.3,0.3,0.6,0.3h18.6c0.2,0,0.4-0.1,0.6-0.2s0.2-0.4,0.2-0.6c0-0.2-0.1-0.4-0.2-0.6S25,17,24.7,17
		H6.1c-0.2,0-0.4,0.1-0.6,0.2C5.3,17.4,5.3,17.6,5.3,17.8z M5.4,15.4L5.4,15.4c0,0.1,0,0.2,0.1,0.2H7c0.1,0,0.1-0.1,0.2-0.1
		c0.2-0.5,0.6-0.9,1.1-1.3c0.5-0.3,1-0.5,1.6-0.6l0.5-0.1c0.1,0,0.2-0.1,0.2-0.2l0.1-0.5c0.1-1.1,0.6-2,1.4-2.7
		C12.7,9.4,13.7,9,14.8,9c1.1,0,2,0.4,2.8,1.1s1.3,1.6,1.4,2.7l0.1,0.6c0,0.1,0.1,0.2,0.2,0.2h1.6c0.6,0,1.2,0.2,1.8,0.5
		c0.5,0.3,0.9,0.8,1.2,1.4c0.1,0.1,0.1,0.1,0.2,0.1h1.4c0.1,0,0.2-0.1,0.1-0.2c-0.2-0.6-0.4-0.9-0.5-1.1c0.7-0.6,1.2-1.5,1.5-2.6
		l0.2-0.7c0-0.1,0-0.1,0-0.2s-0.1-0.1-0.1-0.1L26,10.6c-0.9-0.3-1.6-0.8-2-1.6s-0.6-1.7-0.4-2.6l0.1-0.6c0-0.1,0-0.2-0.1-0.2
		l-0.8-0.2c-1.1-0.3-2.2-0.2-3.2,0.3c-1,0.4-1.9,1.2-2.5,2.1c-0.8-0.3-1.6-0.5-2.3-0.5c-1.4,0-2.6,0.4-3.7,1.3s-1.8,2-2.1,3.4
		c-0.8,0.2-1.6,0.6-2.2,1.2S5.7,14.6,5.4,15.4z M7,24c0,0.2,0.1,0.4,0.3,0.6c0.2,0.2,0.4,0.3,0.6,0.3h18.6c0.2,0,0.4-0.1,0.6-0.2
		s0.2-0.4,0.2-0.6c0-0.2-0.1-0.4-0.2-0.6s-0.4-0.2-0.6-0.2H7.9c-0.2,0-0.4,0.1-0.6,0.2C7.1,23.5,7,23.7,7,24z M18.5,8.7
		c0.4-0.6,0.8-1,1.4-1.3s1.2-0.4,1.9-0.4c-0.1,1,0.2,2,0.7,2.9c0.5,0.9,1.3,1.6,2.2,2c-0.1,0.4-0.4,0.7-0.8,1.1
		c-0.9-0.8-2-1.1-3.1-1.1h-0.3C20.2,10.6,19.5,9.5,18.5,8.7z"/>
	<path d="M26.5,25.1H7.9c-0.3,0-0.6-0.1-0.8-0.3c-0.2-0.2-0.3-0.5-0.3-0.8c0-0.3,0.1-0.6,0.3-0.8c0.2-0.2,0.5-0.3,0.8-0.3h18.6
		c0.3,0,0.6,0.1,0.8,0.3c0.2,0.2,0.3,0.5,0.3,0.8c0,0.3-0.1,0.6-0.3,0.8S26.8,25.1,26.5,25.1z M7.9,23.4c-0.2,0-0.3,0.1-0.4,0.2
		c-0.1,0.1-0.2,0.2-0.2,0.4c0,0.2,0.1,0.3,0.2,0.4c0.1,0.1,0.3,0.2,0.4,0.2h18.6c0.2,0,0.3-0.1,0.4-0.2c0.1-0.1,0.2-0.3,0.2-0.4
		c0-0.2-0.1-0.3-0.2-0.4c-0.1-0.1-0.2-0.2-0.4-0.2H7.9z M22.1,22H3.5c-0.3,0-0.6-0.1-0.8-0.3c-0.2-0.2-0.3-0.4-0.3-0.8
		c0-0.3,0.1-0.6,0.3-0.8c0.2-0.2,0.5-0.3,0.8-0.3h18.6c0.3,0,0.6,0.1,0.8,0.3c0.2,0.2,0.3,0.5,0.3,0.8c0,0.3-0.1,0.5-0.3,0.8
		C22.7,21.9,22.4,22,22.1,22z M3.5,20.3c-0.2,0-0.3,0.1-0.4,0.2c-0.1,0.1-0.2,0.3-0.2,0.4c0,0.2,0.1,0.3,0.2,0.4
		c0.1,0.1,0.3,0.2,0.5,0.2h18.6c0.2,0,0.3-0.1,0.4-0.2s0.2-0.2,0.2-0.4c0-0.2-0.1-0.3-0.2-0.4c-0.1-0.1-0.3-0.2-0.4-0.2H3.5z
		 M24.7,18.9H6.1c-0.3,0-0.6-0.1-0.8-0.4C5.1,18.4,5,18.1,5,17.8s0.1-0.6,0.3-0.8c0.2-0.2,0.5-0.3,0.8-0.3h18.6
		c0.3,0,0.6,0.1,0.8,0.3c0.2,0.2,0.3,0.5,0.3,0.8c0,0.3-0.1,0.6-0.3,0.8C25.3,18.8,25,18.9,24.7,18.9z M6.1,17.2
		c-0.2,0-0.3,0.1-0.4,0.2c-0.1,0.1-0.2,0.2-0.2,0.4c0,0.2,0.1,0.3,0.2,0.4c0.1,0.1,0.2,0.2,0.4,0.2h18.6c0.2,0,0.3-0.1,0.4-0.2
		c0.1-0.1,0.2-0.3,0.2-0.4c0-0.2-0.1-0.3-0.2-0.4c-0.1-0.1-0.2-0.2-0.4-0.2H6.1z M5.6,15.8l-0.3-0.1c0-0.1-0.1-0.3-0.1-0.4l0.5-1.1
		v0c0.2-0.4,0.5-0.8,0.9-1.1c0.6-0.6,1.4-1,2.2-1.2c0.4-1.4,1.1-2.5,2.2-3.3c1.1-0.9,2.4-1.4,3.9-1.4c0.7,0,1.4,0.1,2.2,0.4
		c0.6-0.9,1.5-1.6,2.5-2c1.1-0.5,2.2-0.6,3.4-0.3l0.8,0.2c0.2,0.1,0.3,0.2,0.3,0.3c0,0.1,0,0.2,0,0.3l-0.1,0.6
		c-0.2,0.9-0.1,1.6,0.3,2.4c0.4,0.7,1.1,1.2,1.9,1.5l0.6,0.2c0.1,0,0.2,0.1,0.3,0.2c0.1,0.1,0.1,0.3,0,0.4l-0.2,0.6
		c-0.3,1-0.7,1.9-1.4,2.6c0.1,0.2,0.2,0.5,0.4,0.9c0,0.2,0,0.3-0.1,0.4c-0.1,0.1-0.1,0.1-0.3,0.1H24c-0.2,0-0.3-0.1-0.4-0.3
		c-0.3-0.6-0.6-1-1.1-1.3c-0.5-0.3-1-0.5-1.6-0.5h-1.6c-0.3,0-0.5-0.2-0.5-0.4l-0.1-0.5c-0.1-1-0.5-1.8-1.3-2.5
		c-0.8-0.7-1.6-1-2.7-1c-1,0-1.9,0.3-2.7,1c-0.8,0.7-1.2,1.5-1.3,2.5l-0.1,0.5c0,0.2-0.2,0.4-0.4,0.4l-0.5,0.1c-0.5,0-1,0.2-1.4,0.5
		c-0.4,0.3-0.8,0.7-1,1.2c-0.1,0.1-0.2,0.3-0.4,0.3L5.6,15.8L5.6,15.8z M6.9,15.3L6.9,15.3L6.9,15.3z M24,15.3
		C24,15.3,24,15.3,24,15.3l1.3,0c-0.1-0.3-0.3-0.7-0.4-0.9l-0.1-0.2l0.2-0.1c0.7-0.6,1.2-1.4,1.4-2.4l0.2-0.6l-0.6-0.2
		c-0.9-0.3-1.7-0.8-2.2-1.7c-0.5-0.8-0.6-1.8-0.4-2.7l0.1-0.5l-0.8-0.2c-1-0.3-2.1-0.2-3.1,0.2c-1,0.4-1.8,1.1-2.4,2l-0.1,0.2L17,8
		c-0.8-0.3-1.5-0.4-2.2-0.4c-1.3,0-2.5,0.4-3.6,1.3c-1,0.8-1.7,1.9-2,3.2l0,0.2l-0.1,0c-0.8,0.2-1.5,0.6-2.1,1.1
		c-0.6,0.5-0.9,1.2-1.2,1.9h1.2c0,0,0,0,0,0c0.2-0.5,0.6-1,1.1-1.3c0.5-0.4,1.1-0.6,1.7-0.6l0.5-0.1l0.1-0.5
		c0.1-1.1,0.6-2.1,1.4-2.9c0.8-0.8,1.9-1.1,3-1.1c1.1,0,2.1,0.4,3,1.1c0.9,0.8,1.3,1.7,1.5,2.8l0.1,0.5l1.5,0c0.7,0,1.3,0.2,1.9,0.6
		C23.3,14.2,23.7,14.7,24,15.3C24,15.3,24,15.3,24,15.3z M10.2,13.3C10.2,13.3,10.2,13.3,10.2,13.3L10.2,13.3z M24,13.3l-0.2-0.1
		c-0.9-0.7-1.9-1.1-3-1.1h-0.5l0-0.2c-0.3-1.3-0.9-2.3-1.9-3l-0.2-0.1l0.1-0.2c0.4-0.6,0.9-1.1,1.5-1.4c0.6-0.3,1.3-0.5,2-0.4l0.2,0
		L22,7c-0.1,1,0.2,1.9,0.7,2.8c0.5,0.9,1.2,1.5,2.1,1.9l0.2,0.1L24.9,12c-0.2,0.4-0.4,0.8-0.8,1.1L24,13.3z M20.7,11.6h0.1
		c1.2,0,2.2,0.3,3.1,1c0.2-0.2,0.3-0.4,0.4-0.6c-0.9-0.5-1.6-1.1-2.1-2c-0.5-0.9-0.8-1.8-0.7-2.8c-0.5,0-1,0.1-1.5,0.4
		c-0.5,0.3-0.9,0.6-1.2,1.1C19.7,9.4,20.4,10.4,20.7,11.6z"/>
</g>
</svg>
