<?xml version="1.0" encoding="utf-8"?>
<!-- Generator: Adobe Illustrator 22.0.1, SVG Export Plug-In . SVG Version: 6.00 Build 0)  -->
<svg version="1.1" id="Layer_1" xmlns="http://www.w3.org/2000/svg" xmlns:xlink="http://www.w3.org/1999/xlink" x="0px" y="0px"
	 viewBox="0 0 30 30" style="enable-background:new 0 0 30 30;" xml:space="preserve">
<g>
	<path d="M17.9,13.6c0-0.3-0.1-0.5-0.3-0.8c-0.2-0.2-0.5-0.4-0.8-0.4h-3.8c-0.3,0-0.5,0.1-0.8,0.3c-0.2,0.2-0.4,0.5-0.4,0.8
		c0,0.3,0.1,0.6,0.3,0.8c0.2,0.2,0.5,0.3,0.8,0.3h3.8c0.3,0,0.6-0.1,0.8-0.3C17.8,14.2,17.9,13.9,17.9,13.6z"/>
	<path d="M15.6,15.8c-0.2,0.2-0.4,0.5-0.4,0.7c0,0.3,0.1,0.6,0.3,0.8c0.2,0.2,0.5,0.3,0.8,0.3c0.3,0,0.5-0.1,0.8-0.3
		c0.2-0.2,0.4-0.5,0.4-0.8c0-0.3-0.1-0.5-0.4-0.7C16.6,15.5,16,15.5,15.6,15.8z"/>
	<path d="M21.8,11.8c0.3,0,0.6-0.1,0.8-0.3c0.2-0.2,0.3-0.5,0.3-0.8c0-0.3-0.1-0.6-0.3-0.7c-0.2-0.2-0.5-0.3-0.8-0.3
		c-0.3,0-0.5,0.1-0.7,0.3c-0.2,0.2-0.3,0.4-0.3,0.7c0,0.3,0.1,0.6,0.3,0.8C21.2,11.7,21.5,11.8,21.8,11.8z"/>
	<path d="M19.2,12.5c-0.3,0-0.5,0.1-0.8,0.3c-0.2,0.2-0.4,0.5-0.4,0.8c0,0.3,0.1,0.6,0.3,0.8c0.2,0.2,0.5,0.3,0.8,0.3h2
		c0.3,0,0.6-0.1,0.7-0.3c0.2-0.2,0.3-0.5,0.3-0.8c0-0.3-0.1-0.5-0.3-0.8c-0.2-0.2-0.4-0.4-0.7-0.4H19.2z"/>
	<path d="M13.7,11.8h5.7c0.3,0,0.5-0.1,0.8-0.3c0.2-0.2,0.4-0.5,0.4-0.8c0-0.3-0.1-0.5-0.4-0.7c-0.2-0.2-0.5-0.3-0.8-0.3h-5.7
		c-0.3,0-0.6,0.1-0.8,0.3c-0.2,0.2-0.3,0.4-0.3,0.7c0,0.3,0.1,0.6,0.3,0.8C13.1,11.7,13.3,11.8,13.7,11.8z"/>
	<path d="M8.2,11.8h3c0.3,0,0.6-0.1,0.8-0.3c0.2-0.2,0.3-0.5,0.3-0.8c0-0.3-0.1-0.6-0.3-0.7c-0.2-0.2-0.5-0.3-0.8-0.3h-3
		c-0.3,0-0.6,0.1-0.8,0.3c-0.2,0.2-0.3,0.4-0.3,0.7c0,0.4,0.1,0.6,0.3,0.8C7.6,11.7,7.9,11.8,8.2,11.8z"/>
	<path d="M19.7,18.4h-1.9c-0.3,0-0.6,0.1-0.8,0.3c-0.2,0.2-0.3,0.5-0.3,0.8c0,0.3,0.1,0.6,0.3,0.8c0.2,0.2,0.5,0.3,0.8,0.3h1.9
		c0.4,0,0.6-0.1,0.8-0.3c0.2-0.2,0.3-0.5,0.3-0.8c0-0.3-0.1-0.6-0.3-0.8C20.3,18.5,20,18.4,19.7,18.4z"/>
	<path d="M21.8,15.5h-3.1c-0.3,0-0.5,0.1-0.8,0.3c-0.2,0.2-0.4,0.5-0.4,0.7c0,0.3,0.1,0.6,0.3,0.8c0.2,0.2,0.5,0.3,0.8,0.3h3.1
		c0.3,0,0.6-0.1,0.7-0.3c0.2-0.2,0.3-0.5,0.3-0.8c0-0.3-0.1-0.5-0.3-0.7C22.3,15.7,22.1,15.5,21.8,15.5z"/>
	<path d="M11.6,18.4c-0.3,0-0.6,0.1-0.8,0.3c-0.2,0.2-0.3,0.5-0.3,0.8c0,0.3,0.1,0.6,0.3,0.8c0.2,0.2,0.5,0.3,0.8,0.3h3.8
		c0.3,0,0.6-0.1,0.8-0.3c0.2-0.2,0.3-0.5,0.3-0.8v-0.1l-1-1H11.6z"/>
	<path d="M13.9,17.7c0.3,0,0.6-0.1,0.8-0.3c0.2-0.2,0.3-0.5,0.3-0.8c0-0.3-0.1-0.5-0.3-0.7c-0.2-0.2-0.5-0.3-0.8-0.3H8.2
		c-0.3,0-0.6,0.1-0.8,0.3c-0.2,0.2-0.3,0.4-0.3,0.7c0,0.4,0.1,0.6,0.3,0.8c0.2,0.2,0.5,0.3,0.8,0.3H13.9z"/>
	<path d="M9.8,12.8c-0.2,0.2-0.3,0.5-0.3,0.8c0,0.3,0.1,0.6,0.3,0.8c0.2,0.2,0.4,0.3,0.7,0.3c0.4,0,0.6-0.1,0.8-0.3
		c0.2-0.2,0.3-0.5,0.3-0.8c0-0.3-0.1-0.5-0.3-0.8c-0.2-0.2-0.5-0.4-0.8-0.4C10.2,12.5,10,12.6,9.8,12.8z"/>
	<path d="M9.2,18.4c-0.3,0-0.6,0.1-0.8,0.3c-0.2,0.2-0.4,0.5-0.4,0.8c0,0.3,0.1,0.6,0.3,0.8c0.2,0.2,0.5,0.3,0.8,0.3
		c0.3,0,0.6-0.1,0.8-0.3c0.2-0.2,0.3-0.5,0.3-0.8c0-0.3-0.1-0.5-0.3-0.8C9.8,18.5,9.5,18.4,9.2,18.4z"/>
</g>
</svg>
