<?xml version="1.0" encoding="utf-8"?>
<!-- Generator: Adobe Illustrator 22.0.1, SVG Export Plug-In . SVG Version: 6.00 Build 0)  -->
<svg version="1.1" id="Layer_1" xmlns="http://www.w3.org/2000/svg" xmlns:xlink="http://www.w3.org/1999/xlink" x="0px" y="0px"
	 viewBox="0 0 30 30" style="enable-background:new 0 0 30 30;" xml:space="preserve">
<path d="M21.8,13C21.8,13,21.8,13,21.8,13L21,13c-1.2,0-2.2-0.5-3-1.3c-0.8-0.8-1.3-1.8-1.3-3.1l0-0.9c0-0.3-0.2-0.5-0.5-0.5H15
	c-1,0-1.9,0.2-2.8,0.6c-0.9,0.4-1.7,0.9-2.3,1.6c-0.7,0.7-1.2,1.5-1.6,2.3c-0.4,0.9-0.6,1.9-0.6,2.8c0,1,0.2,1.9,0.6,2.9
	c0.4,0.9,0.9,1.7,1.6,2.3c0.7,0.7,1.5,1.2,2.3,1.6c0.9,0.4,1.9,0.6,2.9,0.6c1.3,0,2.6-0.3,3.7-1c1.1-0.7,2-1.6,2.7-2.7
	c0.6-1.1,1-2.4,1-3.7v-1C22.3,13.2,22.1,13,21.8,13z M20.2,15.1c-0.1,0.6-0.3,1.2-0.6,1.8c-0.4,0.6-0.8,1.1-1.2,1.5
	c-0.5,0.4-1,0.7-1.6,0.9c-1.2,0.5-2.4,0.4-3.5-0.1c-0.6-0.2-1.1-0.6-1.6-1c-0.5-0.4-0.8-1-1.1-1.6c-0.3-0.6-0.4-1.3-0.4-2.1
	c0-0.8,0.2-1.6,0.6-2.4c0.4-0.8,1-1.4,1.7-1.9c0.7-0.5,1.4-0.7,2.3-0.8c0.2,1.4,0.8,2.6,1.7,3.6C17.3,14,18.6,14.7,20.2,15.1z"/>
</svg>
