<?xml version="1.0" encoding="utf-8"?>
<!-- Generator: Adobe Illustrator 22.0.1, SVG Export Plug-In . SVG Version: 6.00 Build 0)  -->
<svg version="1.1" id="Layer_1" xmlns="http://www.w3.org/2000/svg" xmlns:xlink="http://www.w3.org/1999/xlink" x="0px" y="0px"
	 viewBox="0 0 30 30" style="enable-background:new 0 0 30 30;" xml:space="preserve">
<path d="M23.2,13.6l-0.7-0.2c-0.5-0.1-0.9-0.4-1.3-0.6c-0.3-0.3-0.6-0.6-0.8-0.9c-0.2-0.3-0.4-0.7-0.5-1c-0.1-0.3-0.1-0.7-0.1-1
	c0-0.3,0-0.6,0.1-0.9L20,8.2c0-0.1,0-0.4-0.3-0.5l-0.9-0.3c-0.3-0.1-0.5-0.1-0.8-0.1c-0.7-0.1-1.3-0.1-1.9,0c-1.5,0.3-2.7,1-3.6,2.1
	c-1,1.2-1.4,2.5-1.4,4v0.2c-1,0.6-1.6,1.4-1.9,2.4c-0.8,0.3-1.4,0.7-1.8,1.3c-0.5,0.7-0.7,1.4-0.7,2.2c0,1,0.4,1.9,1.1,2.7
	c0.8,0.8,1.7,1.1,2.7,1.1h6.9c1,0,1.9-0.4,2.7-1.1c0.7-0.7,1.1-1.7,1.1-2.7c0-0.4-0.1-0.8-0.2-1.1c0.4-0.3,0.8-0.6,1.1-1v0.1
	l0.5-0.7c0.3-0.5,0.6-1,0.7-1.4c0.1-0.2,0.2-0.5,0.2-0.8l0.2-0.6c0-0.1,0-0.1,0-0.2C23.5,13.9,23.5,13.7,23.2,13.6z M15.4,17.9
	c0.1,0.3,0.3,0.4,0.5,0.4h1.3c0.4,0,0.7,0.1,0.9,0.4c0.3,0.3,0.4,0.6,0.4,0.9c0,0.4-0.1,0.7-0.4,1c-0.3,0.3-0.6,0.4-0.9,0.4h-6.9
	c-0.4,0-0.7-0.1-1-0.4C9.1,20.4,9,20,9,19.7c0-0.4,0.1-0.7,0.3-0.9c0.2-0.3,0.5-0.4,0.9-0.4l0.6-0.1c0.3,0,0.4-0.2,0.4-0.4l0.1-0.6
	c0.1-0.5,0.3-0.9,0.7-1.3c0.4-0.3,0.8-0.5,1.3-0.5c0.5,0,1,0.2,1.3,0.5c0.4,0.3,0.6,0.8,0.7,1.3L15.4,17.9z M15.9,13.8
	c-0.7-0.5-1.6-0.8-2.5-0.8c0.1-0.7,0.3-1.3,0.7-1.8l0,0l0.1-0.2c0.4-0.5,0.8-0.8,1.3-1.1c0.5-0.2,1.1-0.4,1.7-0.4v0.1
	c0,1.1,0.3,2.2,0.9,3.2c0.6,0.9,1.3,1.7,2.3,2.2c-0.3,0.5-0.7,1-1.2,1.3c-0.5-0.4-1.2-0.6-1.9-0.7C17.2,15,16.7,14.3,15.9,13.8z"/>
</svg>
