<?xml version="1.0" encoding="utf-8"?>
<!-- Generator: Adobe Illustrator 22.0.1, SVG Export Plug-In . SVG Version: 6.00 Build 0)  -->
<svg version="1.1" id="Layer_1" xmlns="http://www.w3.org/2000/svg" xmlns:xlink="http://www.w3.org/1999/xlink" x="0px" y="0px"
	 viewBox="0 0 30 30" style="enable-background:new 0 0 30 30;" xml:space="preserve">
<path d="M25.8,10.7l-0.6-0.2c-0.4-0.1-0.8-0.3-1.1-0.5c-0.3-0.2-0.6-0.5-0.7-0.8c-0.2-0.3-0.3-0.6-0.4-0.9c-0.1-0.3-0.1-0.6-0.1-0.9
	c0-0.3,0-0.5,0.1-0.8L23,6.1c0.1-0.1,0-0.2,0-0.3c0-0.1-0.1-0.2-0.3-0.3l-0.8-0.3c-0.9-0.2-1.7-0.2-2.5,0c-0.4,0.1-0.8,0.2-1.2,0.4
	c-0.4,0.2-0.8,0.5-1.2,0.8c-0.3,0.3-0.7,0.7-0.9,1.1c-1.4-0.5-2.9-0.6-4.3-0.1c-1,0.3-1.9,0.9-2.6,1.7C8.5,10,8,10.9,7.7,11.9
	c-1.1,0.3-2,0.9-2.7,1.8c-0.7,0.9-1.1,2-1.1,3.2c0,0.9,0.2,1.8,0.7,2.6c0.5,0.8,1.1,1.4,1.9,1.9c0.8,0.5,1.7,0.7,2.6,0.7h10.8
	c0.9,0,1.8-0.2,2.6-0.7c0.8-0.5,1.4-1.1,1.9-1.9c0.5-0.8,0.7-1.7,0.7-2.6c0-0.1,0-0.2,0-0.2c0-0.8-0.2-1.5-0.6-2.2
	c0.7-0.7,1.2-1.5,1.4-2.6l0.2-0.7l0-0.1C26.1,11,26.1,10.8,25.8,10.7z M22,14.8c0.6,0.6,0.9,1.3,0.9,2.1c0,0.8-0.3,1.5-0.9,2.1
	c-0.6,0.6-1.3,0.9-2.1,0.9H9.1c-0.8,0-1.5-0.3-2.1-0.9c-0.6-0.6-0.9-1.3-0.9-2.1c0-0.8,0.2-1.4,0.8-2c0.5-0.6,1.2-0.9,1.9-1l0.9,0
	L9.8,13c0.1-0.8,0.4-1.4,0.8-2C11,10.4,11.5,10,12,9.8l0.3-0.1c0.5-0.2,1-0.3,1.5-0.3c0,0,0.1,0,0.1,0c0.1,0,0.1,0,0.2,0
	c1,0.1,1.8,0.5,2.5,1.1c0.7,0.7,1.1,1.5,1.2,2.4l0.1,1h2C20.7,13.9,21.4,14.2,22,14.8z M19.9,11.7h-0.1c-0.3-1.1-0.9-2.1-1.8-3
	c0.3-0.4,0.7-0.8,1.1-1c0.5-0.3,1-0.4,1.6-0.4c0,1,0.3,2,0.8,2.9c0.5,0.8,1.2,1.5,2,2c-0.1,0.2-0.3,0.4-0.4,0.6
	C22.2,12.1,21.1,11.7,19.9,11.7z"/>
</svg>
