<?xml version="1.0" encoding="utf-8"?>
<!-- Generator: Adobe Illustrator 22.0.1, SVG Export Plug-In . SVG Version: 6.00 Build 0)  -->
<svg version="1.1" id="Layer_1" xmlns="http://www.w3.org/2000/svg" xmlns:xlink="http://www.w3.org/1999/xlink" x="0px" y="0px"
	 viewBox="0 0 30 30" style="enable-background:new 0 0 30 30;" xml:space="preserve">
<g>
	<path d="M15.1,13.8h-2.4l2.8-5.1c0.1-0.2,0.1-0.4,0-0.4c-0.1-0.1-0.2-0.2-0.4-0.2h-3.8c-0.3,0-0.4,0.2-0.5,0.3l-2.8,7.5
		c0,0.2,0,0.3,0.1,0.4c0.1,0.1,0.2,0.1,0.3,0.1h2.4l-3.1,8.3h0.9l7-10.3c0.1-0.2,0.1-0.3,0-0.4C15.4,13.9,15.3,13.8,15.1,13.8z"/>
	<path d="M22.2,10.2c0-0.1-0.1-0.2-0.4-0.2h-1.7l2-3.7c0.1-0.2,0.1-0.3,0-0.5c-0.1-0.1-0.2-0.2-0.4-0.2H19c-0.2,0-0.4,0.1-0.5,0.4
		l-2.1,5.5c-0.1,0.2,0,0.4,0.1,0.4c0.1,0.1,0.2,0.2,0.4,0.2h1.7l-2.4,6.3h0.8l5.3-7.8C22.3,10.5,22.3,10.3,22.2,10.2z"/>
</g>
</svg>
