<?xml version="1.0" encoding="utf-8"?>
<!-- Generator: Adobe Illustrator 22.0.1, SVG Export Plug-In . SVG Version: 6.00 Build 0)  -->
<svg version="1.1" id="Layer_1" xmlns="http://www.w3.org/2000/svg" xmlns:xlink="http://www.w3.org/1999/xlink" x="0px" y="0px"
	 viewBox="0 0 30 30" style="enable-background:new 0 0 30 30;" xml:space="preserve">
<g>
	<path d="M7.5,13.7c-0.2,0.2-0.3,0.4-0.3,0.7c0,0.3,0.1,0.5,0.3,0.7c0.2,0.2,0.4,0.3,0.7,0.3s0.5-0.1,0.7-0.3
		c0.2-0.2,0.3-0.4,0.3-0.7c0-0.3-0.1-0.5-0.3-0.7C8.5,13.4,7.8,13.4,7.5,13.7z"/>
	<path d="M10.1,10.5c0.3,0,0.5-0.1,0.7-0.3c0.2-0.2,0.3-0.4,0.3-0.7c0-0.2-0.1-0.5-0.3-0.7c-0.4-0.4-1-0.3-1.3,0
		C9.3,9,9.2,9.3,9.2,9.5c0,0.3,0.1,0.5,0.3,0.7C9.6,10.4,9.9,10.5,10.1,10.5z"/>
	<path d="M19.8,10.5c0.3,0,0.5-0.1,0.7-0.3c0.2-0.2,0.3-0.4,0.3-0.7c0-0.2-0.1-0.5-0.3-0.7c-0.4-0.4-1-0.3-1.3,0
		c-0.2,0.2-0.3,0.4-0.3,0.7c0,0.3,0.1,0.5,0.3,0.7C19.4,10.4,19.6,10.5,19.8,10.5z"/>
	<path d="M15,8.5c0.3,0,0.5-0.1,0.7-0.3s0.3-0.4,0.3-0.6c0-0.3-0.1-0.5-0.3-0.7c-0.4-0.4-0.9-0.4-1.3,0C14.1,7,14,7.3,14,7.5
		c0,0.3,0.1,0.5,0.3,0.7C14.5,8.4,14.8,8.5,15,8.5z"/>
	<path d="M9.5,18.6c-0.2,0.2-0.3,0.4-0.3,0.7c0,0.3,0.1,0.5,0.3,0.6c0.2,0.2,0.4,0.3,0.7,0.3c0.3,0,0.5-0.1,0.7-0.3
		c0.2-0.2,0.3-0.4,0.3-0.7c0-0.2-0.1-0.5-0.3-0.7C10.4,18.2,9.8,18.2,9.5,18.6z"/>
	<path d="M22.5,13.7c-0.4-0.4-1-0.4-1.3,0c-0.2,0.2-0.3,0.4-0.3,0.7c0,0.2,0.1,0.5,0.3,0.6c0.2,0.2,0.4,0.3,0.7,0.3
		c0.2,0,0.5-0.1,0.6-0.3s0.3-0.4,0.3-0.6C22.8,14.2,22.7,13.9,22.5,13.7z"/>
	<path d="M19.9,13.4h-2.6l1.9-1.9c0.2-0.2,0.3-0.4,0.3-0.6c0-0.2-0.1-0.5-0.3-0.7c-0.4-0.4-0.9-0.4-1.3,0L16,12.1V9.5
		c0-0.3-0.1-0.5-0.3-0.7c-0.4-0.4-1-0.4-1.3,0c-0.2,0.2-0.3,0.4-0.3,0.7v2.6l-1.8-1.8c-0.4-0.4-1-0.4-1.3,0
		c-0.2,0.2-0.3,0.4-0.3,0.7c0,0.3,0.1,0.5,0.3,0.6l1.9,1.9h-2.6c-0.3,0-0.5,0.1-0.7,0.3c-0.2,0.2-0.3,0.4-0.3,0.7
		c0,0.3,0.1,0.5,0.3,0.6c0.2,0.2,0.4,0.3,0.7,0.3h2.6l-1.9,1.9c-0.2,0.2-0.3,0.4-0.3,0.7c0,0.3,0.1,0.5,0.3,0.7c0.4,0.4,1,0.4,1.3,0
		l1.8-1.8v2.6c0,0.3,0.1,0.5,0.3,0.7c0.2,0.2,0.4,0.3,0.7,0.3c0.3,0,0.5-0.1,0.7-0.3c0.2-0.2,0.3-0.4,0.3-0.7v-2.6l1.9,1.9
		c0.3,0.4,0.9,0.4,1.3,0c0.2-0.2,0.2-0.4,0.2-0.7c0-0.3-0.1-0.5-0.3-0.6l-1.9-1.9h2.6c0.2,0,0.5-0.1,0.6-0.3s0.3-0.4,0.3-0.6
		c0-0.3-0.1-0.5-0.3-0.7C20.4,13.5,20.2,13.4,19.9,13.4z"/>
	<path d="M14.3,20.6C14.1,20.8,14,21,14,21.2c0,0.3,0.1,0.5,0.3,0.7c0.2,0.2,0.4,0.3,0.7,0.3c0.3,0,0.5-0.1,0.7-0.3
		c0.2-0.2,0.3-0.4,0.3-0.7c0-0.2-0.1-0.5-0.3-0.6C15.3,20.2,14.7,20.2,14.3,20.6z"/>
	<path d="M19.2,18.6c-0.2,0.2-0.3,0.4-0.3,0.7c0,0.3,0.1,0.5,0.3,0.6c0.2,0.2,0.4,0.3,0.7,0.3c0.3,0,0.5-0.1,0.7-0.3
		c0.2-0.2,0.3-0.4,0.3-0.7c0-0.2-0.1-0.5-0.3-0.7C20.1,18.2,19.5,18.2,19.2,18.6z"/>
</g>
</svg>
