<?xml version="1.0" encoding="utf-8"?>
<!-- Generator: Adobe Illustrator 22.0.1, SVG Export Plug-In . SVG Version: 6.00 Build 0)  -->
<svg version="1.1" id="Layer_1" xmlns="http://www.w3.org/2000/svg" xmlns:xlink="http://www.w3.org/1999/xlink" x="0px" y="0px"
	 viewBox="0 0 30 30" style="enable-background:new 0 0 30 30;" xml:space="preserve">
<g>
	<path d="M19.5,18.1c0-0.2,0.2-0.3,0.4-0.5c0.4-0.2,0.6-0.5,0.6-0.9v-0.1c0-0.1,0-0.1,0-0.1l0,0c0-0.1-0.1-0.2-0.1-0.3
		c-0.2-0.3-0.6-0.5-1-0.5c-0.2,0-0.3,0-0.5,0.1L18.6,16c-0.1,0.1-0.2,0.1-0.3,0.3c-0.1,0.1-0.3,0.2-0.4,0.4
		c-0.1,0.1-0.3,0.3-0.4,0.6c-0.1,0.2-0.2,0.5-0.2,0.7c-0.1,0.5,0,1,0.3,1.5c0.2,0.4,0.6,0.8,1,1.2c0.4,0.4,0.6,0.8,0.6,1.1
		c0,0.1-0.1,0.3-0.1,0.4c-0.1,0.1-0.2,0.3-0.2,0.3c-0.1,0-0.1,0.1-0.1,0.1h-0.1c-0.3,0.2-0.4,0.4-0.4,0.7c0,0.3,0.1,0.6,0.2,0.8
		c0.2,0.3,0.5,0.4,0.9,0.4c0.1,0,0.2,0,0.2,0c0.2,0,0.3-0.1,0.6-0.2c0.1-0.1,0.2-0.1,0.3-0.2l0.4-0.4c0.2-0.2,0.4-0.5,0.5-0.8
		s0.2-0.6,0.2-1c0.1-1-0.4-1.9-1.3-2.7C19.7,18.7,19.5,18.4,19.5,18.1z"/>
	<path d="M16.2,19.1c0,0-0.1-0.1-0.2-0.2c0,0-0.1-0.1-0.2-0.3c-0.1-0.1-0.1-0.2-0.1-0.3c0,0,0-0.1,0-0.2c0-0.2,0.2-0.4,0.4-0.5
		c0.3-0.1,0.5-0.4,0.6-0.7v-0.1c0-0.1,0-0.1,0-0.2v-0.1c-0.1-0.3-0.2-0.5-0.5-0.7l-0.2,0l-0.2-0.1c-0.3-0.1-0.7,0-1,0.1l-0.1,0.1
		c-0.1,0.1-0.2,0.1-0.3,0.3c-0.1,0.1-0.3,0.2-0.4,0.4c-0.1,0.1-0.3,0.3-0.4,0.6c-0.1,0.3-0.2,0.5-0.2,0.7c0,0.1,0,0.1,0,0.2
		c0,0.7,0.2,1.4,0.8,2.2c0.1,0.1,0.3,0.3,0.5,0.4c0.4,0.4,0.6,0.8,0.6,1v0.2l-0.1,0.2L15,22.3l-0.2,0.2l-0.1,0.1l0,0
		c-0.2,0.2-0.4,0.4-0.4,0.7c0,0.3,0,0.6,0.2,0.8c0,0.1,0.1,0.1,0.2,0.2l0.2,0.1H15c0.1,0,0.1,0,0.1,0c0.1,0,0.1,0,0.3,0h0.3
		c0,0,0.1,0,0.3-0.1l0.1-0.1c0.1,0,0.2-0.1,0.3-0.2c0.1-0.1,0.2-0.3,0.4-0.4c0.2-0.2,0.3-0.5,0.5-0.8c0.1-0.3,0.2-0.6,0.2-1
		c0.1-0.7-0.2-1.5-0.8-2.2C16.5,19.5,16.3,19.3,16.2,19.1z M16.3,16.9L16.3,16.9L16.3,16.9L16.3,16.9z"/>
	<path d="M9.6,16.3L10,16c0.1-0.1,0.2-0.1,0.2-0.2c0.1-0.1,0.1-0.1,0.2-0.2l0.1-0.1c0,0,0.1,0,0.1-0.1l0.1-0.1
		c0.2-0.1,0.5-0.2,0.7-0.2h0.2v-0.4c0-0.9,0.3-1.7,1-2.3c0.7-0.7,1.4-1,2.4-1c0.9,0,1.7,0.3,2.4,1c0.7,0.6,1,1.4,1,2.3
		c0,0.1,0,0.2,0,0.3l-0.1,0.4l0.4-0.2c0.5-0.2,1.1-0.2,1.5,0.1l0.3,0.2l0.1-0.4c0-0.1,0-0.3,0-0.5c0-1-0.2-1.9-0.7-2.8
		c-0.5-0.8-1.2-1.5-2-2c-1-0.3-1.9-0.6-2.9-0.6c-0.7,0-1.5,0.2-2.2,0.5s-1.3,0.7-1.8,1.2s-0.9,1.1-1.2,1.8s-0.5,1.4-0.5,2.1
		c0,0.4,0,0.8,0.1,1.1L9.6,16.3z"/>
	<path d="M12.2,19L12.2,19c-0.2-0.2-0.3-0.3-0.3-0.4s-0.1-0.2-0.1-0.3v-0.1l0,0v-0.1c0,0,0,0,0.1-0.1c0,0,0,0,0.1-0.1l0.1-0.1
		c0,0,0.1,0,0.1-0.1l0.2-0.1c0.1-0.1,0.2-0.2,0.3-0.3c0.1-0.2,0.2-0.4,0.2-0.6s-0.1-0.4-0.2-0.6c-0.1-0.1-0.2-0.3-0.4-0.3l0,0
		c-0.1,0-0.1-0.1-0.2-0.1c-0.2-0.1-0.7-0.1-1,0.1L11,15.9c-0.1,0-0.1,0.1-0.2,0.1l-0.2,0.1l0,0l-0.1,0.1c0,0,0,0.1-0.1,0.1
		c-0.1,0.1-0.1,0.2-0.3,0.3c-0.3,0.4-0.4,0.7-0.5,1.1c0,0.2,0,0.3,0,0.4v0.2c0,0,0,0.1,0,0.2s0,0.2,0.1,0.3c0.1,0.3,0.2,0.6,0.4,0.8
		c0,0.1,0.1,0.1,0.1,0.2l0.1,0.2c0.1,0.1,0.2,0.2,0.4,0.4l0.1,0.1c0,0,0,0,0.1,0.1c0,0,0.1,0.1,0.1,0.2l0.1,0.1
		c0.1,0.1,0.1,0.2,0.2,0.3c0.1,0.2,0.1,0.3,0.1,0.5v0.1v0.1c0,0,0,0,0,0.1c0,0,0,0.1-0.1,0.1c0,0,0,0.1-0.1,0.1c0,0,0,0.1-0.1,0.1
		c0,0,0,0-0.1,0.1c0,0-0.1,0-0.1,0.1c0,0-0.1,0-0.1,0.1l0,0c-0.2,0.2-0.4,0.4-0.4,0.7c0,0.3,0.1,0.6,0.2,0.8
		c0.2,0.3,0.5,0.4,0.9,0.4c0,0,0.1,0,0.2,0h0.1c0.1,0,0.2,0,0.3-0.1c0,0,0.1,0,0.1-0.1h0.1c0.1-0.1,0.2-0.1,0.3-0.2s0.2-0.2,0.4-0.4
		c0.2-0.2,0.3-0.5,0.5-0.8c0.1-0.3,0.2-0.6,0.2-1c0.1-1-0.4-1.9-1.3-2.7C12.2,19,12.2,18.9,12.2,19z M12,24.1L12,24.1L12,24.1
		L12,24.1z"/>
</g>
</svg>
