<?xml version="1.0" encoding="utf-8"?>
<!-- Generator: Adobe Illustrator 22.0.1, SVG Export Plug-In . SVG Version: 6.00 Build 0)  -->
<svg version="1.1" id="Layer_1" xmlns="http://www.w3.org/2000/svg" xmlns:xlink="http://www.w3.org/1999/xlink" x="0px" y="0px"
	 viewBox="0 0 30 30" style="enable-background:new 0 0 30 30;" xml:space="preserve">
<g>
	<path d="M13.4,21.8c0.2-0.2,0.3-0.5,0.3-0.8c0-0.3-0.1-0.6-0.3-0.8c-0.2-0.2-0.5-0.3-0.8-0.3H3.2c-0.3,0-0.6,0.1-0.8,0.3
		c-0.2,0.2-0.3,0.5-0.3,0.8c0,0.3,0.1,0.6,0.3,0.8c0.2,0.2,0.5,0.3,0.8,0.3h9.4C12.9,22.1,13.2,22,13.4,21.8z"/>
	<path d="M5.8,19.1h9.4c0.3,0,0.6-0.1,0.8-0.3c0.2-0.2,0.3-0.5,0.3-0.8c0-0.3-0.1-0.6-0.3-0.8c-0.2-0.2-0.5-0.3-0.8-0.3H5.9
		c-0.3,0-0.6,0.1-0.8,0.3c-0.2,0.2-0.3,0.5-0.3,0.8c0,0.3,0.1,0.6,0.3,0.8C5.3,19,5.5,19.1,5.8,19.1z"/>
	<path d="M27.6,10.7L27,10.5c-0.4-0.1-0.8-0.3-1.1-0.5c-0.3-0.2-0.5-0.5-0.7-0.8c-0.2-0.3-0.3-0.6-0.4-0.9c-0.1-0.3-0.1-0.6-0.1-0.9
		c0-0.2,0-0.5,0.1-0.8l0.1-0.6c0.1-0.2,0-0.4-0.3-0.6l-0.9-0.3C22.8,5,22,5,21.2,5.2c-0.4,0.1-0.8,0.2-1.2,0.4
		c-0.4,0.2-0.8,0.5-1.2,0.8c-0.4,0.3-0.7,0.7-0.9,1.1c-0.7-0.3-1.5-0.4-2.3-0.4c-1.5,0-2.8,0.5-3.9,1.4c-1.1,0.9-1.8,2-2.1,3.4
		c-0.8,0.2-1.6,0.6-2.2,1.2c-0.7,0.7-1.2,1.4-1.4,2.3l0,0c0,0,0,0.1,0,0.2c0,0.2,0.1,0.4,0.4,0.4h1.4c0.1,0,0.3,0,0.5-0.3
		c0.2-0.5,0.5-0.9,1-1.2c0.4-0.3,0.9-0.5,1.5-0.6l0.5-0.1c0.3,0,0.4-0.2,0.4-0.4l0.1-0.5c0.1-1,0.5-1.9,1.3-2.6c0.8-0.7,1.7-1,2.7-1
		c1,0,1.9,0.3,2.7,1c0.8,0.7,1.2,1.5,1.3,2.6l0.1,0.5c0,0.3,0.2,0.4,0.4,0.4h1.6c0.8,0,1.5,0.3,2.1,0.9s0.9,1.3,0.9,2.1
		c0,0.8-0.3,1.5-0.9,2.1c-0.6,0.6-1.3,0.9-2.1,0.9h-6.9c-0.2,0-0.4,0.2-0.4,0.4v1.3c0,0.2,0.2,0.4,0.4,0.4h6.9
		c0.9,0,1.8-0.2,2.6-0.7c0.8-0.5,1.4-1.1,1.9-1.9c0.5-0.8,0.7-1.7,0.7-2.6c0-0.9-0.2-1.7-0.6-2.4c0.7-0.7,1.2-1.5,1.4-2.6l0.2-0.7
		c0-0.1,0-0.1,0-0.2C27.9,11,27.9,10.8,27.6,10.7z M25.3,12.2c-0.1,0.2-0.3,0.4-0.4,0.6c-0.9-0.7-2-1.1-3.2-1.1h-0.1
		c-0.3-1.1-0.9-2.1-1.9-3c0.3-0.4,0.7-0.8,1.1-1c0.5-0.3,1.1-0.4,1.6-0.4c0,1,0.3,2,0.8,2.9C23.7,11.1,24.4,11.7,25.3,12.2z"/>
	<path d="M17,23.1H7.6c-0.3,0-0.6,0.1-0.8,0.3c-0.2,0.2-0.3,0.5-0.3,0.8c0,0.3,0.1,0.6,0.3,0.8c0.2,0.2,0.5,0.3,0.8,0.3H17
		c0.3,0,0.6-0.1,0.8-0.3s0.3-0.5,0.3-0.8c0-0.3-0.1-0.6-0.3-0.8C17.6,23.2,17.3,23.1,17,23.1z"/>
</g>
</svg>
