<?xml version="1.0" encoding="utf-8"?>
<!-- Generator: Adobe Illustrator 22.0.1, SVG Export Plug-In . SVG Version: 6.00 Build 0)  -->
<svg version="1.1" id="Layer_1" xmlns="http://www.w3.org/2000/svg" xmlns:xlink="http://www.w3.org/1999/xlink" x="0px" y="0px"
	 viewBox="0 0 30 30" style="enable-background:new 0 0 30 30;" xml:space="preserve">
<g>
	<path d="M3.9,19.1h10.9c0.8,0,1.5-0.3,2.1-0.9s0.9-1.3,0.9-2.1c0-0.8-0.3-1.5-0.9-2.1c-0.6-0.6-1.3-0.8-2.1-0.8
		c-0.8,0-1.5,0.3-2.1,0.8c-0.2,0.2-0.3,0.5-0.3,0.8c0,0.3,0.1,0.6,0.3,0.8c0.2,0.2,0.5,0.3,0.8,0.3c0.3,0,0.6-0.1,0.8-0.3
		c0.3-0.3,0.7-0.3,1,0c0.1,0.1,0.2,0.3,0.2,0.5c0,0.2-0.1,0.4-0.2,0.5c-0.1,0.1-0.3,0.2-0.5,0.2H3.9c-0.3,0-0.6,0.1-0.8,0.3
		c-0.2,0.2-0.3,0.5-0.3,0.8c0,0.3,0.1,0.5,0.3,0.8C3.3,19,3.6,19.1,3.9,19.1z"/>
	<path d="M9.6,19.9H3.9c-0.3,0-0.6,0.1-0.8,0.3c-0.2,0.2-0.3,0.5-0.3,0.8c0,0.3,0.1,0.6,0.3,0.8c0.2,0.2,0.5,0.3,0.8,0.3h5.7
		c0.2,0,0.4,0.1,0.5,0.2c0.1,0.1,0.2,0.3,0.2,0.5c0,0.2-0.1,0.4-0.2,0.5c-0.3,0.3-0.7,0.3-1,0c-0.5-0.4-1.1-0.4-1.6,0
		c-0.2,0.2-0.3,0.5-0.3,0.8c0,0.3,0.1,0.5,0.3,0.8c0.6,0.6,1.3,0.9,2.1,0.9c0.8,0,1.5-0.3,2.1-0.9c0.6-0.6,0.9-1.3,0.9-2.1
		s-0.3-1.5-0.9-2.1C11.1,20.2,10.4,19.9,9.6,19.9z"/>
	<path d="M27,10.7l-0.6-0.2c-0.8-0.2-1.4-0.7-1.8-1.3C24.2,8.6,24,8,24,7.4c0-0.2,0-0.5,0.1-0.7L24.2,6c0-0.2-0.1-0.4-0.3-0.5
		l-0.8-0.2c-0.9-0.2-1.7-0.2-2.5,0c-0.4,0.1-0.8,0.2-1.2,0.4c-0.4,0.2-0.8,0.5-1.2,0.8c-0.4,0.3-0.7,0.7-0.9,1.1
		c-0.7-0.3-1.4-0.4-2.2-0.4c-1.5,0-2.8,0.5-3.9,1.4c-1.1,0.9-1.8,2-2.1,3.3c-0.8,0.2-1.6,0.6-2.2,1.3c-0.7,0.6-1.2,1.4-1.4,2.3
		l0,0.2c0,0.2,0.1,0.4,0.4,0.4h1.4c0.2,0,0.3-0.1,0.5-0.3c0.2-0.5,0.5-0.9,1-1.2c0.4-0.3,0.9-0.5,1.5-0.6l0.5-0.1
		c0.3,0,0.4-0.2,0.4-0.4l0.1-0.5c0.1-1,0.5-1.9,1.3-2.5c0.8-0.7,1.7-1,2.7-1c1,0,1.9,0.3,2.7,1c0.8,0.7,1.2,1.5,1.3,2.6l0.1,0.5
		c0,0.3,0.2,0.4,0.4,0.4h1.6c0.8,0,1.5,0.3,2.1,0.9c0.6,0.6,0.9,1.3,0.9,2.1c0,0.8-0.3,1.5-0.9,2.1c-0.6,0.6-1.3,0.9-2.1,0.9h-6.9
		c-0.3,0-0.4,0.2-0.4,0.4v1.4c0,0.2,0.2,0.4,0.4,0.4h6.9c0.9,0,1.8-0.2,2.6-0.7c0.8-0.5,1.4-1.1,1.9-1.9c0.5-0.8,0.7-1.7,0.7-2.6
		c0-0.9-0.2-1.7-0.6-2.4c0.7-0.7,1.2-1.6,1.4-2.6l0.1-0.6c0-0.1,0-0.1,0-0.2C27.3,11,27.2,10.9,27,10.7z M22.6,10.3
		c0.5,0.8,1.2,1.5,2.1,1.9c-0.1,0.2-0.3,0.4-0.4,0.6c-0.9-0.7-2-1.1-3.1-1.1h-0.1c-0.3-1.2-0.9-2.2-1.9-3c0.3-0.4,0.6-0.8,1.1-1
		c0.5-0.3,1.1-0.4,1.6-0.4c0,0,0,0,0,0c0,0,0,0.1,0,0.1C21.8,8.4,22,9.4,22.6,10.3z"/>
</g>
</svg>
