<?xml version="1.0" encoding="utf-8"?>
<!-- Generator: Adobe Illustrator 22.0.1, SVG Export Plug-In . SVG Version: 6.00 Build 0)  -->
<svg version="1.1" id="Layer_1" xmlns="http://www.w3.org/2000/svg" xmlns:xlink="http://www.w3.org/1999/xlink" x="0px" y="0px"
	 viewBox="0 0 30 30" style="enable-background:new 0 0 30 30;" xml:space="preserve">
<path d="M17.9,11.5c-0.8-0.8-1.8-1.2-2.9-1.2c-0.4,0-0.7,0-1.1,0.1c0.7-1,1.5-1.8,2.6-2.3c0.2-0.1,0.4-0.3,0.4-0.5
	c0.1-0.2,0-0.5-0.1-0.7c-0.1-0.2-0.3-0.4-0.5-0.4c-0.2-0.1-0.5,0-0.7,0.1c-0.6,0.4-1.2,0.8-1.8,1.3c-0.5,0.5-1,0.9-1.3,1.4
	c-0.3,0.5-0.6,0.9-0.8,1.5c-0.2,0.5-0.4,1-0.5,1.4c-0.1,0.4-0.2,0.8-0.3,1.2c-0.1,0.4-0.1,0.7-0.1,0.8l0,0.2c0,0.1,0,0.2,0,0.2v0
	c0,0.7,0.2,1.4,0.6,2c0.4,0.6,0.9,1.1,1.5,1.5c0.6,0.4,1.3,0.6,2.1,0.6c0.4,0,0.8,0,1.1-0.1c-0.7,1-1.5,1.8-2.6,2.4
	c-0.2,0.1-0.4,0.3-0.4,0.5c-0.1,0.2,0,0.5,0.1,0.7c0.2,0.3,0.5,0.5,0.8,0.5c0.2,0,0.3,0,0.4-0.1c0.5-0.3,1-0.6,1.4-1
	c0.4-0.4,0.8-0.7,1.1-1.1c0.3-0.4,0.6-0.8,0.8-1.2c0.2-0.4,0.4-0.8,0.6-1.1c0.1-0.3,0.3-0.6,0.4-1.1c0.1-0.4,0.2-0.7,0.2-0.9
	c0.1-0.3,0.1-0.6,0.1-0.8l0-0.3c0-0.1,0-0.2,0-0.2v-0.2C19.2,13.3,18.7,12.4,17.9,11.5z M17,14.4l0,0.3c-0.1,0.5-0.3,0.9-0.6,1.3
	c-0.4,0.3-0.8,0.5-1.3,0.5c-0.5,0-1-0.2-1.4-0.6c-0.4-0.4-0.6-0.8-0.6-1.3l0-0.3c0.1-0.5,0.3-0.9,0.6-1.2c0.4-0.3,0.8-0.5,1.3-0.5
	c0.6,0,1,0.2,1.4,0.6C16.8,13.4,17,13.9,17,14.4z"/>
</svg>
